<svg width="726" height="638" fill="none" xmlns="http://www.w3.org/2000/svg"><g clip-path="url(#prefix__clip0)"><path d="M536.214 101.509c4.319-33.474-19.316-64.112-52.79-68.432-33.475-4.319-64.113 19.316-68.432 52.79-4.32 33.475 19.316 64.113 52.79 68.433 33.475 4.319 64.113-19.316 68.432-52.791z" fill="#CCC"/><path d="M469.7 32.9a61.727 61.727 0 0123.8 2.2A65.94 65.94 0 01515 45.9a64.041 64.041 0 0124.5 41.6 65.004 65.004 0 01-1.3 25.2 63.813 63.813 0 01-11.3 23.1 62.84 62.84 0 01-19.7 16.9 64.958 64.958 0 01-12.1 5.2 62.77 62.77 0 01-12.9 2.6 64.314 64.314 0 01-48.6-15.6 64.226 64.226 0 01-21.7-45 64.509 64.509 0 0135-60.3 63.971 63.971 0 0122.8-6.7zm0 0a57.875 57.875 0 00-11.7 2.4 62.781 62.781 0 00-11 4.7 57.74 57.74 0 00-29.2 59.3 57.859 57.859 0 0022.3 37.5 57.077 57.077 0 0019.4 9.7 57.862 57.862 0 0021.5 1.9 53.658 53.658 0 0010.6-2 54.396 54.396 0 0010.1-4 58.118 58.118 0 0028.17-72.402A58.12 58.12 0 00513.9 46.9a59.293 59.293 0 00-20.6-11.7 58.04 58.04 0 00-11.7-2.5 118.637 118.637 0 00-11.9.2z" fill="#F2F2F2"/><path d="M688 152.3a37.478 37.478 0 00-11.2 1.7c.6-2.3 1.1-4.6 1.5-7a57.143 57.143 0 0011.4-34.5 57.826 57.826 0 00-57.8-57.8 57.083 57.083 0 00-30.9 9 71.625 71.625 0 00-46.8 23.8 56.505 56.505 0 00-13.7-1.7 57.771 57.771 0 00-57.7 54.4 34.216 34.216 0 00-7.9-.9 36.894 36.894 0 00-32.3 18.9 28.503 28.503 0 00-29.212 3.496 28.497 28.497 0 00-10.565 27.458 28.51 28.51 0 0019.336 22.175A28.51 28.51 0 00450.8 204.6a36.785 36.785 0 0024.1 9 40.078 40.078 0 0011-1.6 50.068 50.068 0 0089.6-13 71.72 71.72 0 0032.4 7.8 70.837 70.837 0 0043.3-14.6 37.1 37.1 0 0073.592 3.284A37.1 37.1 0 00688 152.3zM349.4 165.4a33.783 33.783 0 01-19.9-17.4 36.56 36.56 0 01-50.8-8.1 58.908 58.908 0 01-44.7 3.3 57.819 57.819 0 01-8.1-3.4c-.1.2-.1.4-.2.6a40.45 40.45 0 01-33.845 27.431 40.45 40.45 0 01-44.971-41.123 40.45 40.45 0 0124.302-36.157A40.445 40.445 0 01193.7 87.7a58.673 58.673 0 0155.822-58.903A58.676 58.676 0 01310.8 82c2.989.227 5.942.798 8.8 1.7a36.161 36.161 0 0122.2 20.5 34.121 34.121 0 117.6 61.2z" fill="#274F6D"/><path opacity=".59" d="M601 64.2a104.054 104.054 0 00-12.7 3.9l-3 1.2c-1 .4-2 .9-3 1.4l-2.9 1.4c-1 .5-1.9 1.1-2.8 1.6A86.518 86.518 0 00566 81a77.43 77.43 0 00-9.2 8.9l-1.4 1.6-2.1-.5a77.099 77.099 0 00-11.7-1.9c-2-.2-4-.1-6-.2-1 0-2 .1-3 .1l-3 .2-3 .5c-1 .2-2 .3-3 .6l-3 .8c-.5.1-1 .3-1.5.4l-1.4.6-2.9 1.2c-.9.4-1.8 1-2.7 1.4l-2.7 1.5-2.5 1.8-1.3.9c-.4.3-.8.7-1.2 1l-2.3 2.1c-.391.341-.759.709-1.1 1.1l-1 1.1c-.7.8-1.4 1.5-2 2.3l-1.8 2.5a16.724 16.724 0 00-1.7 2.6 39.452 39.452 0 00-2.8 5.4l-1.2 2.8-1 2.9c-.3 1-.7 1.9-.9 2.9-.174.98-.408 1.948-.7 2.9-.1.5-.3 1-.4 1.5l-.2 1.5c-.2 1-.3 2-.5 3-.1.5-.1 1-.2 1.5l-.1 1.5-.2 3-.3 4-4.1-.7a47.64 47.64 0 00-5.3-.6 21.702 21.702 0 00-2.6.1 10.887 10.887 0 00-2.6.3 31.292 31.292 0 00-10 3 36.089 36.089 0 00-8.6 5.8 36.6 36.6 0 00-6.6 8.1l-2 3.3-3.3-1.6a25.49 25.49 0 00-11.9-2.5 25.765 25.765 0 00-12 3.3c-.487.229-.956.496-1.4.8-.4.3-.9.6-1.3.9-.8.7-1.7 1.3-2.5 2.1a25.823 25.823 0 00-4.3 5 29.568 29.568 0 00-4.7 12.7h-.8a28.059 28.059 0 012.2-14.5 29.727 29.727 0 019.6-11.8 22.908 22.908 0 013.3-2.1 10.087 10.087 0 011.8-.9l1.8-.8c.61-.293 1.246-.527 1.9-.7.6-.2 1.3-.4 1.9-.6.6-.1 1.3-.3 2-.4.7-.1 1.3-.2 2-.3a31.803 31.803 0 0115.8 2.3l-5.3 1.7a40.182 40.182 0 018-10.3c.8-.7 1.7-1.4 2.5-2.1.9-.6 1.7-1.3 2.7-1.9l1.4-.9c.5-.3 1-.5 1.4-.8 1-.5 2-1 3-1.4a39.412 39.412 0 0112.7-3.1c1.1-.1 2.2-.1 3.3-.1 1.1 0 2.2 0 3.3.1 2.155.179 4.294.513 6.4 1l-4.3 3.3.5-3.3.2-1.7c.1-.6.2-1.1.3-1.6.3-1.1.6-2.2.8-3.2l.4-1.6c.2-.5.4-1 .6-1.6a41.423 41.423 0 012.6-6.1l1.5-3 1.7-2.8a67.516 67.516 0 018-10.3c.7-.8 1.5-1.5 2.3-2.3l1.2-1.1c.4-.4.8-.7 1.2-1.1l2.5-2.1c.4-.3.8-.7 1.2-1l1.3-.9 2.6-1.9c.4-.3.9-.6 1.4-.9l1.4-.8c.9-.5 1.8-1.2 2.8-1.7l2.9-1.5 1.4-.8 1.5-.6 3-1.3c1-.5 2.1-.7 3.1-1.1l3.1-1c1.1-.3 2.1-.5 3.2-.7 1.1-.2 2.2-.5 3.3-.7 1.1-.1 2.2-.3 3.3-.4 1.1-.1 2.2-.3 3.3-.3 4.476-.14 8.951.332 13.3 1.4l-3.5 1.1a67.06 67.06 0 0110.4-9.5 61.304 61.304 0 0112.1-7c1.1-.4 2.1-.9 3.2-1.3l3.3-1.2c1.1-.3 2.2-.7 3.3-1a33.89 33.89 0 013.4-.8 57.22 57.22 0 0113.7-1.1l-.2.8zM270.8 31.7a52.608 52.608 0 0116 6.4c1.3.7 2.4 1.6 3.7 2.4 1.2.8 2.3 1.8 3.5 2.7 1.1.9 2.2 2 3.3 3 1.1 1 2 2.1 3 3.2s1.9 2.3 2.8 3.4c.9 1.2 1.7 2.4 2.5 3.7.8 1.3 1.5 2.6 2.3 3.9.7 1.3 1.3 2.7 2 4a60.79 60.79 0 014.7 17.3l-3.4-3.4a39.7 39.7 0 0120.6 7.3 39.264 39.264 0 0113.6 17.2l-5.8-1.8a37.417 37.417 0 0110.7-4.5 37.829 37.829 0 015.7-1 37.452 37.452 0 015.8-.1A35.861 35.861 0 01373 98a33.704 33.704 0 019.8 5.9 30.236 30.236 0 014 4 38.28 38.28 0 013.3 4.6 35.164 35.164 0 014.3 10.2 32.66 32.66 0 01-1.9 21.1c.677-3.389.912-6.851.7-10.3a35.8 35.8 0 00-2.2-9.8 34.47 34.47 0 00-4.8-8.6 37.302 37.302 0 00-3.2-3.6c-.6-.5-1.2-1-1.8-1.6l-.4-.4-.5-.3-1-.7a32.352 32.352 0 00-8.5-4.3 29.172 29.172 0 00-9.2-1.6 31.91 31.91 0 00-17.6 5l-3.9 2.5-1.9-4.3a35.671 35.671 0 00-4.6-7.7 37.569 37.569 0 00-6.4-6.2 31.451 31.451 0 00-7.9-4.2 32.532 32.532 0 00-8.7-2.1l-3.2-.3-.2-3a59.492 59.492 0 00-3.3-15.6c-.5-1.2-1-2.5-1.5-3.7-.6-1.2-1.1-2.4-1.7-3.6-.7-1.2-1.3-2.4-2-3.5s-1.4-2.3-2.2-3.4a39.12 39.12 0 00-2.5-3.2c-.9-1-1.8-2.1-2.7-3.1-1-.9-1.9-2-2.9-2.9a39.89 39.89 0 00-3.1-2.7 69.745 69.745 0 00-14.5-8.9z" fill="#F2F2F2"/><path d="M376.3 535.4a41.216 41.216 0 00-29.8 4.7c-1.8-12.8-12.8-24.2-27.9-27.3-10.7-2.2-21 .1-28.6 5.5-12-16.1-30.8-28.5-53.5-33.3-44.7-9.3-87.4 14.6-95.5 53.3-8 38.7 21.7 77.7 66.3 86.9 21.5 4.5 42.5 1.2 59.4-7.6a56.867 56.867 0 0032.3 19c28.4 5.9 55.6-9.3 60.7-33.9.143-.76.243-1.528.3-2.3.9.2 1.7.5 2.6.7 20.9 4.4 41-6.8 44.8-25 3.8-18.1-10.1-36.3-31.1-40.7zM545.8 492a27.538 27.538 0 0121.4 4.4 24.502 24.502 0 0140-16.6 58.776 58.776 0 0159.543-26.394 58.772 58.772 0 0130.431 15.212 58.773 58.773 0 01-6.084 90.462A58.782 58.782 0 01626 561.4a37.255 37.255 0 01-66.8-14.2c-.1-.6-.2-1.3-.3-1.9-.616.225-1.252.393-1.9.5a27.485 27.485 0 01-28.414-11.381A27.475 27.475 0 01545.8 492z" fill="#143052"/><path opacity=".59" d="M407.4 576.2a30.766 30.766 0 00-4.5-20.6 42.382 42.382 0 00-3.1-4.3l-1.8-1.9c-.6-.7-1.3-1.2-1.9-1.8a37.046 37.046 0 00-8.7-5.9l-1.2-.6-1.2-.5c-.8-.3-1.6-.7-2.4-1a46.8 46.8 0 00-5-1.4 39.682 39.682 0 00-10.3-1.1 38.718 38.718 0 00-19.4 5.6l-3.9 2.4-.7-4.6a26.758 26.758 0 00-7.1-14.1 34.776 34.776 0 00-13.5-8.8 35.26 35.26 0 00-16.1-1.9 36.167 36.167 0 00-7.9 1.8 31.973 31.973 0 00-7.1 3.7l-2.8 1.9-2-2.7a72.88 72.88 0 00-10.2-11.3 85.094 85.094 0 00-12.1-9.4 87.872 87.872 0 00-13.6-7.1 90.284 90.284 0 00-14.7-4.8 97.53 97.53 0 00-15.3-2.4 92.499 92.499 0 00-45.9 8.2 81.435 81.435 0 0129.9-11.2 87.04 87.04 0 0116.2-1.2 88.235 88.235 0 0116.2 1.7 96.49 96.49 0 0115.7 4.4 91.912 91.912 0 0114.8 7.2 90.524 90.524 0 0113.3 9.7 86.204 86.204 0 0111.2 12.2l-4.3-.9a36.85 36.85 0 0118.2-6.8 42.795 42.795 0 0119.1 2.5 41.057 41.057 0 018.6 4.4c.7.5 1.4.9 2 1.4l1.9 1.5 1.8 1.7c.6.6 1.1 1.2 1.7 1.8a33.331 33.331 0 018.2 17.7l-4.5-2.2a42.547 42.547 0 0122.5-5.6c1.943.018 3.882.185 5.8.5 1.899.279 3.772.714 5.6 1.3a49.383 49.383 0 015.4 1.9c.9.4 1.7.8 2.6 1.2l1.3.6 1.2.7a43.531 43.531 0 019 7c.6.7 1.3 1.4 1.9 2.1l1.7 2.2a39.434 39.434 0 012.9 4.9 29.386 29.386 0 013.2 10.7 29.895 29.895 0 01-.7 11.2zM524.5 524.5a28.003 28.003 0 01-1.1-8.2c.11-2.856.615-5.683 1.5-8.4a27.678 27.678 0 014-7.6 29.265 29.265 0 0123-11.9 29.319 29.319 0 0117.4 5.1l-5.6 2.6a28.107 28.107 0 0117-23.8 32.098 32.098 0 017.5-2.1c2.591-.3 5.209-.3 7.8 0a32.098 32.098 0 017.5 2.1 28.05 28.05 0 016.6 4.1l-6.6 1a61.165 61.165 0 0128.1-23.9 61.8 61.8 0 0136.5-3.6 62.867 62.867 0 0117.2 6.5 56.088 56.088 0 017.6 5.1 64.616 64.616 0 016.7 6.1 58.474 58.474 0 0110 14.8 52.135 52.135 0 013.1 8.3 50.257 50.257 0 011.7 8.6 61.577 61.577 0 00-18.1-28.4 63.584 63.584 0 00-6.6-5 72.746 72.746 0 00-7.2-4 58.397 58.397 0 00-15.6-4.7 56.49 56.49 0 00-31.7 4.3 69.382 69.382 0 00-7.1 3.8 59.327 59.327 0 00-6.4 4.8 76.633 76.633 0 00-5.7 5.7 59.327 59.327 0 00-4.8 6.4l-2.8 4.2-3.9-3.2a20.587 20.587 0 00-20.6-3.4 19.06 19.06 0 00-4.8 2.7 21.058 21.058 0 00-8.3 14.1l-.9 6.2-4.7-3.6a24.7 24.7 0 00-13.4-5 25.89 25.89 0 00-14.3 3.4 27.052 27.052 0 00-6 4.7 29.045 29.045 0 00-4.4 6.4 26.266 26.266 0 00-2.6 15.8z" fill="#F2F2F2"/><path d="M406.8 362.5L383 388.1l201.9 70.8-178.1-96.4z" fill="url(#prefix__paint0_linear)"/><path d="M372.1 386.8l-23.9 25.7 202 70.7-178.1-96.4z" fill="url(#prefix__paint1_linear)"/><path d="M243.9 376c2.6.7 5.3 1.4 8 2.2 10.9 3.2 22.7 6.2 35.2 9.4" fill="#fff"/><path d="M425.8 412.3c-11.6-5-16.8-1.7-25.8-4.9l-15.7 19.3s-11.1-1.7-14-1.7c-2.9 0-56.5-12-62.5-13.3 0 0-63.3-17.4-68.9-18.2-8.4-1.2-113.6-13.8-113.6-13.8s43.2-17.2 47.3-17.8c4.1-.6 78.3 1.3 82 1.2 3.7-.1 71.8-24.8 74.5-26.5 2.7-1.6 7.8-9 18.8-8.1 0 0-4-6.8 32.7 13.3 2.3 1.3 34.2 32.7 42.1 46.1l3.1 24.4z" fill="#F3F3F3"/><path d="M274.9 390.4c-6-1.8-33-5.5-20.8-2.1 12.2 3.5.4-25.2.4-25.2-3.7.1-77.9-1.8-82-1.2-4.1.6-44.5 18.3-44.5 18.3s102.4 12 110.8 13.2c5.6.8 68.9 18.2 68.9 18.2 6 1.3 59.6 13.2 62.5 13.3 2.9 0 14 1.7 14 1.7l5.3 14.4s6.4 15.7 14.8 14.8c7-.8-2.9-8.9-3.5-11.6-2-9.5-5.8-22.4-5.8-22.6 0 0-12.1-2.6-22.3-4.1l-97.8-27.1z" fill="#C9C9C9"/><path d="M286.3 408.3c47.717 0 86.4-38.683 86.4-86.4 0-47.717-38.683-86.4-86.4-86.4-47.717 0-86.4 38.683-86.4 86.4 0 47.717 38.683 86.4 86.4 86.4zM359.1 387.1s52.5 13.4 54.8 14.5c2.3 1.1 29.4 21.9 30 25.8.6 3.9 11.8 17.4 18.5 14 0 0 1.7 19.1-6.7 19.1s-25.2-12.9-24.7-19.6c.5-6.7-1.2-24.1-1.2-24.1l-55-21.8-15.7-7.9z" fill="#C9C9C9"/><path d="M378.4 314.8l-21.5 25.1 279.5 92-258-117.1zM431 298.6l-26.7 22.7 240.2 80.5L431 298.6z" fill="#3BCDFB"/><path d="M429.8 416.8c-5.2-3.9-36.8-14-36.8-14M376.9 425.7c-4.7-.7-9.5-1.5-14.2-2.4-18.9-3.3-37.6-7.4-56.2-12.1-13.8-3.5-27.5-7.4-41.2-11-8.7-2.3-17.6-5.4-26.5-6.7-8.4-1.2-108.5-13.2-108.5-13.2s38.2-17.8 42.2-18.3c4.1-.6 78.3 1.3 82 1.2 3.7-.1 71.8-24.8 74.5-26.5 2.7-1.6 32-19.3 43-18.3 0 0-48.9 9-12.3 29 2.3 1.3 53.9 33 68.7 44" stroke="#000" stroke-width="5" stroke-miterlimit="10" stroke-linecap="round" stroke-linejoin="round"/><path d="M358.6 387.4l49.3 17.7c-5.276.613-10.592.814-15.9.6-2.1-.2-33.4-18.3-33.4-18.3z" fill="#000" stroke="#000" stroke-miterlimit="10" stroke-linecap="round" stroke-linejoin="round"/><path d="M315.3 313.7l23.8-49.2 67.4 22.7-11.3-47.3L542.7 310l-99.3-15.1 26.7 61.5-154.8-42.7z" fill="#3BCDFB"/><path d="M542.7 310l-99.3-15.1 26.7 61.5-152-41.1 5.1-28.6 118 41.6-20.5-55.5 122 37.2z" fill="#1F76DD"/><path d="M560.2 314.9l-106.8-12.6 27.5 63.5-183.3-50.4 17.9-62.7 82.6 25.4-11.9-49.6 174 86.4zm-247.4-8.1l146.5 40.3-25.8-59.6 57.5 6.8-86.7-43 10.7 45-91.2-28-11 38.5z" fill="#000"/><path d="M206.1 308.9l-22.9-40.1-55.5 23.1 6.8-40.6-120 67.7 82.6-18.5-18.8 53.4 127.8-45z" fill="#3BCDFB"/><path d="M14.5 319l82.6-18.5-18.8 53.4 125.6-43.5-6-23.8-96.9 41.9 14-48L14.5 319z" fill="#1F76DD"/><path d="M141.4 241.2l-7.1 42.5 68.1-26.2 18.7 51.7-151.4 53.2 19.5-55.1L0 324.1l141.4-82.9zm54.9 29.9L121.1 300l6.4-38.5L57 302.8l48-9.1-18.3 51.7 121-42.5-11.4-31.8z" fill="#000"/><path d="M365.2 423.9s22-4.6 22.6-20.9c0 0 19.4 8.4 22 12.2 2.6 3.8 13.6 27.8 4.1 33.9-9.6 6.1-18.3-.3-22.9-20.9 0 .1-23.5-3.7-25.8-4.3z" fill="#707070"/><path d="M376 419.6c3.5.9 20 3.5 20.9 4.1.9.6 5.5 24.1 13.3 26.7 0 0-1.7 10.7-11.3 4.3-9.6-6.4-10.7-22-10.7-22l-27.5-6.1 15.3-7z" fill="#3D3C3C"/><path d="M365.2 423.9s22-4.6 22.6-20.9c0 0 19.4 8.4 22 12.2 2.6 3.8 13.6 27.8 4.1 33.9-9.6 6.1-18.3-.3-22.9-20.9 0 .1-23.5-3.7-25.8-4.3z" stroke="#000" stroke-width="5" stroke-miterlimit="10" stroke-linecap="round" stroke-linejoin="round"/><path d="M399.2 407.8s22.3-3 24.1-19.2c0 0 18.8 9.8 21.1 13.7 2.3 3.9 11.6 28.7 1.6 34.1-10 5.4-18.2-1.6-21.3-22.5-.1.1-23.3-5.3-25.5-6.1z" fill="#707070"/><path d="M410.1 401l20 8.4s4.6 26.4 13.6 27.2c9 .9-4.9 6.7-10.7 2.6-5.8-4.1-10.1-21.4-10.1-21.4l-23.7-10 10.9-6.8z" fill="#3D3C3C"/><path d="M399.2 407.8s22.3-3 24.1-19.2c0 0 18.8 9.8 21.1 13.7 2.3 3.9 11.6 28.7 1.6 34.1-10 5.4-18.2-1.6-21.3-22.5-.1.1-23.3-5.3-25.5-6.1z" stroke="#000" stroke-width="5" stroke-miterlimit="10" stroke-linecap="round" stroke-linejoin="round"/><path d="M392.4 358l-51.6-12.8s-11.8-.5-9-12.8c2.8-12.2 17.5-9.9 17.5-9.9 6.2.6-9.2-12.8.5-5.7 7.7 4.9 51.6 22.8 54 23.2 5.7.9 15.5 2.2 23.2 8.4 4.7 3.8 12.1 9.1 6.6 17.7-6.6 6.6-20.4-4.7-20.4-4.7s9 13.3.9 12.8c-5.6-.3-8.8-5.8-11.8-9.5 0-.1-5.2-6.2-9.9-6.7z" fill="#F3F3F3"/><path d="M360.9 339.9s33.6 10.7 38.3 14.2c4.7 3.5 13.3 18 18.3 17.7 0 0-.6 7.8-8.4 3.2-7.8-4.6-11.6-13.3-15.1-14.5-3.5-1.2-40.6-10.4-40.6-10.4l7.5-10.2z" fill="#C9C9C9"/><path d="M392.4 358l-51.6-12.8s-11.8-.5-9-12.8c2.8-12.2 17.5-9.9 17.5-9.9 6.2.6-9.2-12.8.5-5.7 7.7 4.9 51.6 22.8 54 23.2 5.7.9 15.5 2.2 23.2 8.4 4.7 3.8 12.1 9.1 6.6 17.7-6.6 6.6-20.4-4.7-20.4-4.7s9 13.3.9 12.8c-5.6-.3-8.8-5.8-11.8-9.5 0-.1-5.2-6.2-9.9-6.7z" stroke="#000" stroke-width="5" stroke-miterlimit="10" stroke-linecap="round" stroke-linejoin="round"/><path d="M371.1 274.1a108.294 108.294 0 01-110.08 126.141A108.29 108.29 0 01246.4 185.2a108.268 108.268 0 01124.7 88.9z" fill="#3D3C3C"/><path d="M359.5 252.8c9.5 56.4-30.3 104.4-86.7 113.9-56.4 9.5-109.9-23-117.5-79.6-3.7-27.7 34-90 90.4-99.5 56.4-9.5 104.4 8.8 113.8 65.2z" fill="#707070"/><path d="M299.1 400.1a109.815 109.815 0 01-16 3.9 113.471 113.471 0 01-129.069-85.022A113.465 113.465 0 01229.5 184.1a109.815 109.815 0 0116-3.9 113.385 113.385 0 01130.6 93.1 113.47 113.47 0 01-77 126.8zm-66.4-206.2c-48.4 15.5-78.5 65-70.1 115.2a103.179 103.179 0 00118.7 84.6 102.133 102.133 0 0014.5-3.5c48.4-15.5 78.5-65 70.1-115.2a103.244 103.244 0 00-89.545-85.266A103.247 103.247 0 00232.7 193.9z" fill="#000"/><path d="M310.7 321.4l-67 21.5a53.663 53.663 0 01-37.5-1.5c-11.8-5.1-20.2-14.2-23.9-25.7-7.5-23.4 7.8-49.3 34.2-57.7l67-21.5c26.3-8.4 53.9 3.7 61.4 27.2 7.4 23.3-7.9 49.2-34.2 57.7z" fill="#000"/><path d="M316.3 262.2a4.463 4.463 0 00-6-1.8L261.6 287l-53.6 6.1a4.432 4.432 0 00-2.965 1.642A4.422 4.422 0 00204.1 298a4.432 4.432 0 001.642 2.965 4.422 4.422 0 003.258.935l22.3-2.5a11.83 11.83 0 00-.3 5.3 12.327 12.327 0 009.388 10.036 12.33 12.33 0 009.337-1.575A12.323 12.323 0 00255.3 300.6a11.394 11.394 0 00-1.3-3.8l9.3-1.1a2.93 2.93 0 00.9-.2c.3-.1.5-.2.8-.3l9.7-5.3a10.194 10.194 0 001.2 4.1 12.35 12.35 0 0011.854 6.982 12.35 12.35 0 0010.953-8.323 12.35 12.35 0 00-.607-9.459 11.69 11.69 0 00-3.4-4.2l19.7-10.8a4.325 4.325 0 002.421-4.331 4.329 4.329 0 00-.521-1.669z" fill="#fff"/><path d="M175.1 368.6c-.1 25.4-46.6 39-58.6 37-12.1-2-32.4-18.4-34.2-34.9-1.8-16.5 12.8-28.4 30.6-38.9 25.9-15.2 34.5-14.6 56.8-6.1 5.5 2.1 14.5 7.5 17.3 10.6 5.3 5.8 6.5 23.2-2.4 26.3-8.9 3.2-17.5-6.6-15.4-15.5l-14.7-7.2s20.7 21.6 20.6 28.7z" fill="#F3F3F3"/><path d="M81.5 365.4s23.5 30.1 38.1 26.7c14.6-3.4 17.8-6.2 29.7-11.8 9.5-4.5 1.2-17.7-7-32.5-2.4-4.4 1.8-19.3 8.5-19.3s38.9 14.8 38.9 16.5c0 1.7.6 16.3.6 16.3l-15.7 48.2-40.4 8.4s-32.5-3.4-34.2-5c-1.7-1.7-18.5-24.7-18.5-24.7v-22.8z" fill="#C9C9C9"/><path d="M175.1 368.6c-.1 25.4-46.6 39-58.6 37-12.1-2-32.4-18.4-34.2-34.9-1.8-16.5 12.8-28.4 30.6-38.9 25.9-15.2 34.5-14.6 56.8-6.1 5.5 2.1 14.5 7.5 17.3 10.6 5.3 5.8 6.5 23.2-2.4 26.3-8.9 3.2-17.5-6.6-15.4-15.5l-14.7-7.2s20.7 21.6 20.6 28.7z" stroke="#000" stroke-width="5" stroke-miterlimit="10" stroke-linecap="round" stroke-linejoin="round"/></g><defs><linearGradient id="prefix__paint0_linear" x1="383" y1="410.7" x2="584.9" y2="410.7" gradientUnits="userSpaceOnUse"><stop stop-color="#4A8CC5" stop-opacity=".882"/><stop offset="1" stop-color="#448BCA" stop-opacity="0"/></linearGradient><linearGradient id="prefix__paint1_linear" x1="348.2" y1="435" x2="550.2" y2="435" gradientUnits="userSpaceOnUse"><stop stop-color="#4A8CC5" stop-opacity=".882"/><stop offset="1" stop-color="#448BCA" stop-opacity="0"/></linearGradient><clipPath id="prefix__clip0"><path fill="#fff" d="M0 0h725.3v637.871H0z"/></clipPath></defs></svg>
