<svg viewBox="0 0 490 556" fill="none" xmlns="http://www.w3.org/2000/svg">
  <path d="M242.736 14.1L13.936 146.2V410.5L242.736 542.6L471.636 410.5V146.2L242.736 14.1Z" stroke="#fafafa" stroke-width="4" stroke-miterlimit="10"/>
  <path d="M12.936 301.3L147.136 286.7V381L14.936 409.6" stroke="#fafafa" stroke-width="3" stroke-miterlimit="10" stroke-linecap="round" stroke-linejoin="round"/>
  <path d="M14.936 148.1L109.836 196.3L14.936 301" stroke="#fafafa" stroke-width="3" stroke-miterlimit="10" stroke-linecap="round" stroke-linejoin="round"/>
  <path d="M390.936 286.7L474.836 148.1L384.136 186.8L318.836 60.1L155.736 66.3L109.836 196.3L148.436 286.7L281.836 366.7L298.236 513.1" stroke="#fafafa" stroke-width="3" stroke-miterlimit="10" stroke-linecap="round" stroke-linejoin="round"/>
  <path d="M147.136 381L184.336 508.7L281.836 366.7L147.136 381Z" stroke="#fafafa" stroke-width="3" stroke-miterlimit="10" stroke-linecap="round" stroke-linejoin="round"/>
  <path d="M474.836 409.6L390.936 286.7L410.236 450.9" stroke="#fafafa" stroke-width="3" stroke-miterlimit="10" stroke-linecap="round" stroke-linejoin="round"/>
  <path d="M410.236 445.9L260.136 308.4L390.936 286.7L474.836 251.3L384.136 186.8L267.536 294.1" stroke="#fafafa" stroke-width="3" stroke-miterlimit="10" stroke-linecap="round" stroke-linejoin="round"/>
  <!-- <path d="M155.736 66.3L238.336 182L318.836 60.1" stroke="#fafafa" stroke-width="7" stroke-miterlimit="10"/> -->
  <path d="M109.836 196.3L228.136 251.3L384.136 186.8" stroke="#fafafa" stroke-width="3" stroke-miterlimit="10" stroke-linecap="round" stroke-linejoin="round"/>
  <path d="M14.936 162.4C22.8337 162.4 29.236 155.998 29.236 148.1C29.236 140.202 22.8337 133.8 14.936 133.8C7.03831 133.8 0.635986 140.202 0.635986 148.1C0.635986 155.998 7.03831 162.4 14.936 162.4Z" fill="#fafafa"/>
  <path d="M241.936 28.8C249.834 28.8 256.236 22.3977 256.236 14.5C256.236 6.60234 249.834 0.200012 241.936 0.200012C234.038 0.200012 227.636 6.60234 227.636 14.5C227.636 22.3977 234.038 28.8 241.936 28.8Z" fill="#fafafa"/>
  <path d="M474.836 162.4C482.734 162.4 489.136 155.998 489.136 148.1C489.136 140.202 482.734 133.8 474.836 133.8C466.938 133.8 460.536 140.202 460.536 148.1C460.536 155.998 466.938 162.4 474.836 162.4Z" fill="#fafafa"/>
  <path d="M474.836 423.9C482.734 423.9 489.136 417.498 489.136 409.6C489.136 401.702 482.734 395.3 474.836 395.3C466.938 395.3 460.536 401.702 460.536 409.6C460.536 417.498 466.938 423.9 474.836 423.9Z" fill="#fafafa"/>
  <path d="M240.836 556C248.734 556 255.136 549.598 255.136 541.7C255.136 533.802 248.734 527.4 240.836 527.4C232.938 527.4 226.536 533.802 226.536 541.7C226.536 549.598 232.938 556 240.836 556Z" fill="#fafafa"/>
  <path d="M298.236 527.4C306.134 527.4 312.536 520.998 312.536 513.1C312.536 505.202 306.134 498.8 298.236 498.8C290.338 498.8 283.936 505.202 283.936 513.1C283.936 520.998 290.338 527.4 298.236 527.4Z" fill="#fafafa"/>
  <path d="M410.236 460.5C418.134 460.5 424.536 454.098 424.536 446.2C424.536 438.302 418.134 431.9 410.236 431.9C402.338 431.9 395.936 438.302 395.936 446.2C395.936 454.098 402.338 460.5 410.236 460.5Z" fill="#fafafa"/>
  <path d="M390.936 301C398.834 301 405.236 294.598 405.236 286.7C405.236 278.802 398.834 272.4 390.936 272.4C383.038 272.4 376.636 278.802 376.636 286.7C376.636 294.598 383.038 301 390.936 301Z" fill="#fafafa"/>
  <path d="M384.136 201.1C392.034 201.1 398.436 194.698 398.436 186.8C398.436 178.902 392.034 172.5 384.136 172.5C376.238 172.5 369.836 178.902 369.836 186.8C369.836 194.698 376.238 201.1 384.136 201.1Z" fill="#fafafa"/>
  <path d="M260.136 322.7C268.034 322.7 274.436 316.298 274.436 308.4C274.436 300.502 268.034 294.1 260.136 294.1C252.238 294.1 245.836 300.502 245.836 308.4C245.836 316.298 252.238 322.7 260.136 322.7Z" fill="#fafafa"/>
  <path d="M474.836 265.6C482.734 265.6 489.136 259.198 489.136 251.3C489.136 243.402 482.734 237 474.836 237C466.938 237 460.536 243.402 460.536 251.3C460.536 259.198 466.938 265.6 474.836 265.6Z" fill="#fafafa"/>
  <path d="M318.836 74.4C326.734 74.4 333.136 67.9977 333.136 60.1C333.136 52.2023 326.734 45.8 318.836 45.8C310.938 45.8 304.536 52.2023 304.536 60.1C304.536 67.9977 310.938 74.4 318.836 74.4Z" fill="#fafafa"/>
  <path d="M184.336 523C192.234 523 198.636 516.598 198.636 508.7C198.636 500.802 192.234 494.4 184.336 494.4C176.438 494.4 170.036 500.802 170.036 508.7C170.036 516.598 176.438 523 184.336 523Z" fill="#fafafa"/>
  <path d="M14.936 423.9C22.8337 423.9 29.236 417.498 29.236 409.6C29.236 401.702 22.8337 395.3 14.936 395.3C7.03831 395.3 0.635986 401.702 0.635986 409.6C0.635986 417.498 7.03831 423.9 14.936 423.9Z" fill="#fafafa"/>
  <path d="M147.136 395.3C155.034 395.3 161.436 388.898 161.436 381C161.436 373.102 155.034 366.7 147.136 366.7C139.238 366.7 132.836 373.102 132.836 381C132.836 388.898 139.238 395.3 147.136 395.3Z" fill="#fafafa"/>
  <path d="M148.436 301C156.334 301 162.736 294.598 162.736 286.7C162.736 278.802 156.334 272.4 148.436 272.4C140.538 272.4 134.136 278.802 134.136 286.7C134.136 294.598 140.538 301 148.436 301Z" fill="#fafafa"/>
  <path d="M155.736 80.6C163.634 80.6 170.036 74.1977 170.036 66.3C170.036 58.4023 163.634 52 155.736 52C147.838 52 141.436 58.4023 141.436 66.3C141.436 74.1977 147.838 80.6 155.736 80.6Z" fill="#fafafa"/>
  <path d="M14.936 315.3C22.8337 315.3 29.236 308.898 29.236 301C29.236 293.102 22.8337 286.7 14.936 286.7C7.03831 286.7 0.635986 293.102 0.635986 301C0.635986 308.898 7.03831 315.3 14.936 315.3Z" fill="#fafafa"/>
  <path d="M109.836 210.6C117.734 210.6 124.136 204.198 124.136 196.3C124.136 188.402 117.734 182 109.836 182C101.938 182 95.536 188.402 95.536 196.3C95.536 204.198 101.938 210.6 109.836 210.6Z" fill="#fafafa"/>
</svg>
