<svg xmlns="http://www.w3.org/2000/svg" width="555.31" height="680.728" viewBox="0 0 555.31 680.728">
  <g id="Grupo_87" data-name="Grupo 87" transform="translate(-28.143 -16.635)">
    <g id="_x32_" transform="translate(31.122 20.722)">
      <g id="Grupo_44" data-name="Grupo 44">
        <g id="Grupo_31" data-name="Grupo 31" transform="translate(321.289 319.17)">
          <path id="Caminho_470" data-name="Caminho 470" d="M209.127,416.6l-.467-.754,129.5-81.571L233.629,299.234l.683-.521,135.945-102.1.539.719-135.263,101.6L340.24,334.046Z" transform="translate(-208.66 -196.61)"/>
        </g>
        <g id="Grupo_32" data-name="Grupo 32" transform="translate(318.164 89.852)">
          <path id="Caminho_471" data-name="Caminho 471" d="M236.254,230.062l-.557-.7L338.536,147.7,206.92,69.722l.449-.772,132.748,78.643Z" transform="translate(-206.92 -68.95)"/>
        </g>
        <g id="Grupo_33" data-name="Grupo 33" transform="translate(0.323 44.872)">
          <path id="Caminho_472" data-name="Caminho 472" d="M85.163,439.675,37.507,349.948,29.98,292.933l6.9-114.856.09-.108L139.088,43.91l.7.539L37.758,178.4l-6.88,114.5,7.509,56.853,47.566,89.51Z" transform="translate(-29.98 -43.91)"/>
        </g>
        <g id="Grupo_34" data-name="Grupo 34" transform="translate(175.5 534.584)">
          <path id="Caminho_473" data-name="Caminho 473" d="M227.806,332.463l-.072-.018L127.5,317.41l.126-.88L227.77,331.547,273.415,320.3l.216.862Z" transform="translate(-127.5 -316.53)"/>
        </g>
        <g id="Grupo_35" data-name="Grupo 35" transform="translate(55.183 163.734)">
          <path id="Caminho_474" data-name="Caminho 474" d="M444.375,448.452l-.719-.557,99.983-131.85-55.4-49.794L352.35,197.363,188.9,140.995,60.52,110.942l.2-.862,128.419,30.052,163.555,56.4,136.107,69,56.045,50.4-.233.323Z" transform="translate(-60.52 -110.08)"/>
        </g>
        <g id="Grupo_36" data-name="Grupo 36" transform="translate(54.824)">
          <path id="Caminho_475" data-name="Caminho 475" d="M326.408,558.382l.162-.754,25.687-117.156-.018-170.92L323.48,109.572,178.428,88.394l11.227,124.718,38.854,148.519-.036.126L191.505,487.05l-10.113,67.685-.593-.413-65.781-45.105-54.1-49.7,26.98-114.2L60.32,183.024l.054-.126,54.3-118.575L113.832,64,278.608,19.181l.359-.251.126.234,98.223,11.892,65.063,45.052.3-.09.036.323,2.551,1.76-2.443-.844,13.688,110.168L489.1,338.459l-.018.09-31.328,137.2-13.239,45.357ZM324.4,109.5l28.741,159.962v171.1L327.612,557.053,443.8,520.39l13.1-44.872,31.292-137.077L455.635,187.568l-13.724-110.4ZM61.9,459.207l53.674,49.309,65.134,44.656,9.916-66.32,36.932-125.239-38.8-148.358L177.494,88.16,115.5,64.628,61.236,183.149,88.792,345.357l-.018.09ZM279.686,20.385l44.441,88.271L440.78,76.538ZM179.128,87.6l143.975,21-44.5-88.359Zm-62.4-23.46,61.125,23.23,98.438-66.643ZM282.866,20.529,439.325,75.083l-62.35-43.165Z" transform="translate(-60.32 -18.93)"/>
        </g>
        <g id="Grupo_37" data-name="Grupo 37" transform="translate(82.289 89.888)">
          <path id="Caminho_476" data-name="Caminho 476" d="M178.539,447.346,75.61,305.491l.2-.269L176.743,172.959,311.43,68.97l.557.7L177.353,173.641,76.724,305.509,179.275,446.825Z" transform="translate(-75.61 -68.97)"/>
        </g>
        <g id="Grupo_38" data-name="Grupo 38" transform="translate(7.527 68.601)">
          <path id="Caminho_477" data-name="Caminho 477" d="M34.259,168.15l-.269-.862,47.531-15.017L198.6,57.12l.575.683L81.952,153.079l-.072.036Z" transform="translate(-33.99 -57.12)"/>
        </g>
        <g id="Grupo_39" data-name="Grupo 39" transform="translate(0.391 163.959)">
          <rect id="Retângulo_3" data-name="Retângulo 3" width="140.67" height="0.898" transform="translate(0 129.711) rotate(-67.238)"/>
        </g>
        <g id="Grupo_40" data-name="Grupo 40" transform="translate(222.257 250.28)">
          <rect id="Retângulo_4" data-name="Retângulo 4" width="154.986" height="0.898" transform="translate(0 92.031) rotate(-36.428)"/>
        </g>
        <g id="Grupo_41" data-name="Grupo 41" transform="translate(450.426 168.135)">
          <path id="Caminho_478" data-name="Caminho 478" d="M313.692,264.1l-.826-.377,55.542-118.575L280.55,113.356l.3-.826,88.792,32.1Z" transform="translate(-280.55 -112.53)"/>
        </g>
        <g id="Grupo_42" data-name="Grupo 42" transform="translate(436.433 57.338)">
          <path id="Caminho_479" data-name="Caminho 479" d="M288.478,450.548l-.629-.629,86.942-86.942V194.16L272.76,51.443l.683-.593,55.219,52.111,47.028,90.894v.108l6.88,55.722-6.9,113.635Zm87.211-249.257V348.356l6-98.618ZM276.173,54.676l95.8,133.987-44.082-85.217Z" transform="translate(-272.76 -50.85)"/>
        </g>
        <g id="Grupo_43" data-name="Grupo 43" transform="translate(0 293.051)">
          <path id="Caminho_480" data-name="Caminho 480" d="M353.263,428.309l-1.94-.054L205.21,424.5,85.522,329.871l-.144-.036-.09-.234L29.8,182.07l.952.377L112.772,215l139.735,16.293.09.054,125.509,79.469L216.6,357.139ZM205.516,423.6l143.867,3.7L215.216,357.444,87.48,330.284ZM86.043,329.063l129.335,27.484,160.555-46.058L252.2,232.151l-139.716-16.31L31.363,183.633Z" transform="translate(-29.8 -182.07)"/>
        </g>
      </g>
      <g id="Grupo_57" data-name="Grupo 57" transform="translate(51.159 65.44)">
        <g id="Grupo_45" data-name="Grupo 45" transform="translate(292.548 181.679)">
          <path id="Caminho_481" data-name="Caminho 481" d="M228.146,160a3.5,3.5,0,1,1-3.5-3.5A3.5,3.5,0,0,1,228.146,160Z" transform="translate(-221.14 -156.5)"/>
        </g>
        <g id="Grupo_46" data-name="Grupo 46" transform="translate(292.548 352.33)">
          <path id="Caminho_482" data-name="Caminho 482" d="M228.146,255a3.5,3.5,0,1,1-3.5-3.5,3.5,3.5,0,0,1,3.5,3.5Z" transform="translate(-221.14 -251.5)"/>
        </g>
        <g id="Grupo_47" data-name="Grupo 47" transform="translate(167.884 273.759)">
          <circle id="Elipse_6" data-name="Elipse 6" cx="3.503" cy="3.503" r="3.503" transform="translate(0 0)"/>
        </g>
        <g id="Grupo_48" data-name="Grupo 48" transform="translate(128.814 125.113)">
          <circle id="Elipse_7" data-name="Elipse 7" cx="3.503" cy="3.503" r="3.503" transform="translate(0 0)"/>
        </g>
        <g id="Grupo_49" data-name="Grupo 49" transform="translate(263.735 21.304)">
          <path id="Caminho_483" data-name="Caminho 483" d="M212.106,70.723a3.5,3.5,0,1,1-3.5-3.5,3.5,3.5,0,0,1,3.5,3.5Z" transform="translate(-205.1 -67.22)"/>
        </g>
        <g id="Grupo_50" data-name="Grupo 50" transform="translate(117.767)">
          <path id="Caminho_484" data-name="Caminho 484" d="M130.846,58.863a3.5,3.5,0,1,1-3.5-3.5,3.5,3.5,0,0,1,3.5,3.5Z" transform="translate(-123.84 -55.36)"/>
        </g>
        <g id="Grupo_51" data-name="Grupo 51" transform="translate(28.184 256.963)">
          <circle id="Elipse_8" data-name="Elipse 8" cx="3.503" cy="3.503" r="3.503" transform="translate(0 0)"/>
        </g>
        <g id="Grupo_52" data-name="Grupo 52" transform="translate(395.297 98.995)">
          <path id="Caminho_485" data-name="Caminho 485" d="M286.567,114.584a4.114,4.114,0,1,1-4.114-4.114,4.114,4.114,0,0,1,4.114,4.114Z" transform="translate(-278.34 -110.47)"/>
        </g>
        <g id="Grupo_53" data-name="Grupo 53" transform="translate(428.26 249.975)">
          <path id="Caminho_486" data-name="Caminho 486" d="M304.917,198.634a4.114,4.114,0,1,1-4.114-4.114,4.114,4.114,0,0,1,4.114,4.114Z" transform="translate(-296.69 -194.52)"/>
        </g>
        <g id="Grupo_54" data-name="Grupo 54" transform="translate(395.297 387.16)">
          <path id="Caminho_487" data-name="Caminho 487" d="M286.567,275a4.114,4.114,0,1,1-4.114-4.114A4.114,4.114,0,0,1,286.567,275Z" transform="translate(-278.34 -270.89)"/>
        </g>
        <g id="Grupo_55" data-name="Grupo 55" transform="translate(129.137 398.441)">
          <path id="Caminho_488" data-name="Caminho 488" d="M138.4,281.284a4.114,4.114,0,1,1-4.114-4.114,4.114,4.114,0,0,1,4.114,4.114Z" transform="translate(-130.17 -277.17)"/>
        </g>
        <g id="Grupo_56" data-name="Grupo 56" transform="translate(0 94.881)">
          <circle id="Elipse_9" data-name="Elipse 9" cx="4.114" cy="4.114" r="4.114" transform="translate(0 0)"/>
        </g>
      </g>
    </g>
    <g id="Grupo_68" data-name="Grupo 68" transform="translate(119.088 617.333)">
      <g id="Grupo_65" data-name="Grupo 65">
        <g id="Grupo_60" data-name="Grupo 60" transform="translate(233.324 11.353)">
          <path id="Caminho_554" data-name="Caminho 554" d="M318.181,426.053,209.127,357.38l-.467.772,107.833,67.9Z" transform="translate(-208.66 -357.38)"/>
        </g>
        <g id="Grupo_61" data-name="Grupo 61" transform="translate(87.535)">
          <path id="Caminho_555" data-name="Caminho 555" d="M227.806,351.06l-.072.018L127.5,366.113l.126.88L227.77,351.976l45.644,11.263.216-.88Z" transform="translate(-127.5 -351.06)"/>
        </g>
        <g id="Grupo_62" data-name="Grupo 62" transform="translate(350.354 48.429)">
          <path id="Caminho_556" data-name="Caminho 556" d="M298.491,409.617l-23.963-31.6-.719.539,23.55,31.058Z" transform="translate(-273.81 -378.02)"/>
        </g>
        <g id="Grupo_63" data-name="Grupo 63" transform="translate(0 11.083)">
          <path id="Caminho_557" data-name="Caminho 557" d="M80.1,424.564l20.783-19.1,65.152-44.656,9.52,63.751h.916L166.7,359.25l-.593.413-65.781,45.105-21.556,19.8Z" transform="translate(-78.77 -355.621)"/>
          <path id="Caminho_558" data-name="Caminho 558" d="M223.575,426.173h.916l-14.82-67.631L325.857,395.2l9.035,30.968h.934l-9.251-31.687L208.45,357.23l.18.754Z" transform="translate(24.496 -357.23)"/>
        </g>
        <g id="Grupo_64" data-name="Grupo 64" transform="translate(5.227 11.245)">
          <path id="Caminho_559" data-name="Caminho 559" d="M83.135,426.1,164.2,362.008l143.885-3.7L177.891,426.1h1.94L311.95,357.32l-1.958.036L163.88,361.128,81.68,426.1Z" transform="translate(-81.68 -357.32)"/>
        </g>
      </g>
      <g id="Grupo_67" data-name="Grupo 67" transform="translate(93.175 78.409)">
        <g id="Grupo_66" data-name="Grupo 66">
          <path id="Caminho_560" data-name="Caminho 560" d="M137.143,396.327a4.078,4.078,0,0,0-6.5,0Z" transform="translate(-130.64 -394.71)"/>
        </g>
      </g>
    </g>
    <g id="Grupo_85" data-name="Grupo 85" transform="translate(119.268 611.261)">
      <g id="Grupo_74" data-name="Grupo 74" transform="translate(0 5.353)">
        <g id="Grupo_69" data-name="Grupo 69" transform="translate(285.87 48.796)">
          <rect id="Retângulo_5" data-name="Retângulo 5" width="67.811" height="1.347" transform="translate(0 21.076) rotate(-18.109)"/>
        </g>
        <g id="Grupo_70" data-name="Grupo 70" transform="translate(8.03)">
          <path id="Caminho_561" data-name="Caminho 561" d="M209.855,400.515l56.53-9.449-.808,9.449h1.365l.934-11.065-.844.144L201.7,400.515Z" transform="translate(10.912 -319.771)"/>
          <path id="Caminho_562" data-name="Caminho 562" d="M85.029,431.4l15.682-21.161,160.932-57.213L223.614,431.4H225.1l39.178-80.744-164.4,58.452-.126.162L83.34,431.4Z" transform="translate(-83.34 -350.66)"/>
        </g>
        <g id="Grupo_71" data-name="Grupo 71" transform="translate(20.46 0.629)">
          <path id="Caminho_563" data-name="Caminho 563" d="M293.27,431.126h2.1l-13.005-10.778L183.892,351.01l-.772,1.1,98.42,69.32Z" transform="translate(-16.314 -351.01)"/>
          <path id="Caminho_564" data-name="Caminho 564" d="M91.607,405.572c1.706-11.065,3.018-18.9,3.575-20.909l69.14,20.909h4.652L94.679,383.1l-.269.18c-.539.359-2.1,9.215-4.149,22.292Z" transform="translate(-90.26 -325.456)"/>
        </g>
        <g id="Grupo_72" data-name="Grupo 72" transform="translate(349.905 49.147)">
          <path id="Caminho_565" data-name="Caminho 565" d="M288.983,409.617,274.9,378.02l-1.239.539,13.85,31.058Z" transform="translate(-273.66 -378.02)"/>
        </g>
        <g id="Grupo_73" data-name="Grupo 73" transform="translate(0 0.485)">
          <path id="Caminho_566" data-name="Caminho 566" d="M80.846,431.189l23.46-21.215,62.224-42.68,99.947-14.981L428.99,400.436l23.316,30.753h1.706l-24.214-31.9-.216-.072L266.567,350.93l-.144.036-100.4,15.053-.126.09L103.48,408.915,78.87,431.189Z" transform="translate(-78.87 -350.93)"/>
        </g>
      </g>
      <g id="Grupo_84" data-name="Grupo 84" transform="translate(17.011)">
        <g id="Grupo_78" data-name="Grupo 78">
          <g id="Grupo_75" data-name="Grupo 75" transform="translate(326.983 48.231)">
            <path id="Caminho_567" data-name="Caminho 567" d="M283.447,381.069a6.539,6.539,0,1,0-6.539,6.539A6.539,6.539,0,0,0,283.447,381.069Z" transform="translate(-270.37 -374.53)"/>
          </g>
          <g id="Grupo_76" data-name="Grupo 76" transform="translate(164.058)">
            <circle id="Elipse_136" data-name="Elipse 136" cx="6.539" cy="6.539" r="6.539" transform="translate(0 0)"/>
          </g>
          <g id="Grupo_77" data-name="Grupo 77" transform="translate(0 58.775)">
            <path id="Caminho_568" data-name="Caminho 568" d="M101.417,386.939a6.539,6.539,0,1,0-6.539,6.539A6.539,6.539,0,0,0,101.417,386.939Z" transform="translate(-88.34 -380.4)"/>
          </g>
        </g>
        <g id="Grupo_81" data-name="Grupo 81" transform="translate(65.655 13.059)">
          <g id="Grupo_79" data-name="Grupo 79" transform="translate(145.969)">
            <path id="Caminho_569" data-name="Caminho 569" d="M215.635,359.692a4.738,4.738,0,1,0-1.388,3.354,4.742,4.742,0,0,0,1.388-3.354Z" transform="translate(-206.15 -354.95)"/>
          </g>
          <g id="Grupo_80" data-name="Grupo 80" transform="translate(0 4.742)">
            <path id="Caminho_570" data-name="Caminho 570" d="M134.375,362.332a4.738,4.738,0,1,0-1.388,3.354,4.742,4.742,0,0,0,1.388-3.354Z" transform="translate(-124.89 -357.59)"/>
          </g>
        </g>
        <g id="Grupo_83" data-name="Grupo 83" transform="translate(261.31 68.08)">
          <g id="Grupo_82" data-name="Grupo 82">
            <path id="Caminho_571" data-name="Caminho 571" d="M249.33,393.34a7.76,7.76,0,1,0-7.76,7.76A7.76,7.76,0,0,0,249.33,393.34Z" transform="translate(-233.81 -385.58)"/>
          </g>
        </g>
      </g>
    </g>
    <path id="Bottom" d="M78.87,433.8h1.976L98.27,418.03c.072.054.126.108.2.162L86.9,433.8h1.67l11.047-14.909a6.548,6.548,0,0,0,2.048.575c-.665,3.736-1.473,8.64-2.353,14.335h1.347c.9-5.766,1.671-10.67,2.3-14.317a6.531,6.531,0,0,0,5.856-5.209l64.56,19.526h4.652L108.94,412.91a6.732,6.732,0,0,0-.305-1.814L260.6,357.063a6.388,6.388,0,0,0,2.479,2.73L227.174,433.8h1.491l35.621-73.433a6.324,6.324,0,0,0,2.192.4,6.5,6.5,0,0,0,4.922-2.281l86.852,61.165a7.718,7.718,0,0,0-1.078,3.88c0,.216.054.4.054.611l-57.734,9.646h8.173l49.776-8.317a7.721,7.721,0,0,0,6.161,5.694l-.234,2.623h1.347l.216-2.5a7.677,7.677,0,0,0,5.515-2.317l5.8,4.814h2.1l-7.059-5.856a7.77,7.77,0,0,0,1.383-4.419,8.142,8.142,0,0,0-.216-1.76L423.4,405.1a6.543,6.543,0,0,0,5.964,3.88,6.147,6.147,0,0,0,2.012-.359l11.209,25.148h1.473l-11.443-25.687a.451.451,0,0,0,.126-.072l19.544,25.759h1.689L433.822,407.2a6.528,6.528,0,1,0-10.491-7.257L316.11,368.182a4.739,4.739,0,1,0-8.622-2.712c0,.054.018.108.018.162l-34.633-10.257a6.531,6.531,0,1,0-12.951-1.186,1.768,1.768,0,0,0,.036.305L170.41,367.93a4.726,4.726,0,0,0-8.874,2.281,5.258,5.258,0,0,0,.2,1.311L107.4,408.8a6.516,6.516,0,1,0-10.077,8.263Zm193.661-77.08,35.3,10.455a4.739,4.739,0,0,0,4.419,3.09,4.689,4.689,0,0,0,2.8-.934l107.923,31.956a6.67,6.67,0,0,0-.126,1.2,7.085,7.085,0,0,0,.144,1.383l-50.926,16.652a7.784,7.784,0,0,0-7.149-4.724,7.692,7.692,0,0,0-5.91,2.784l-86.87-61.165a5.646,5.646,0,0,0,.4-.7Zm-110.222,16.1a4.743,4.743,0,0,0,8.73-2.569,4.382,4.382,0,0,0-.108-.988l88.81-13.329-151.25,53.782Z" transform="translate(40.398 263.557)"/>
    <path id="Fire" d="M275.125,206.492c9.918-18.483,9.469-37.814,3.837-57.37-1.385-4.812-4.266-13.064-6.211-18.459,33.159,24.5,61.476,83.423,47.082,141.976-13.334,54.25-65.329,97.946-118.965,103-69.073,6.5-122.778-34.885-142.992-85.2C36.322,236.788,53.583,170.81,90.629,137.962c-18.127,36.5-12.516,65.469-5.11,76.281,8.233,12.017,21.341,18.248,34.134,14.689a31.674,31.674,0,0,0,23.532-31.114c-.156-10.243-1.983-21.8-6.022-31.024-23.97-54.755-3.989-104.136,34.673-138.143A233.612,233.612,0,0,1,212.715,0c-18.25,25.913-21.351,57.484-7.485,86.865,8.131,16.01,18.547,32.73,27.74,48.176,16.52,27.762,26.651,56.306,22.264,89.421-.048.366,13.14-5.111,19.892-17.972" transform="translate(119.737 104.122)" fill="#d32f2f"/>
    <path id="Front" d="M583.453,271.344a6.539,6.539,0,0,0-6.539-6.539,4.321,4.321,0,0,0-.5.054l-5.173-39.645a4.729,4.729,0,0,0-1.2-9.3,4.67,4.67,0,0,0-1.814.359l-41.369-79.99a6.519,6.519,0,1,0-7.76-10.473L471.219,80.629a3.906,3.906,0,0,0,.665-2.209,3.976,3.976,0,0,0-6.826-2.784L408.833,36.709a6.523,6.523,0,0,0-12.161-4.724l-87.535-10.67a4.734,4.734,0,1,0-9.467.108c0,.2.036.377.054.575L262.99,31.985a6.532,6.532,0,0,0-12.628,2.353,7.069,7.069,0,0,0,.108,1.06L146.984,63.51a6.529,6.529,0,1,0-10.544,7.113L42.8,194.354a6.521,6.521,0,1,0-4.473,12l-6.79,103.683a4.723,4.723,0,0,0,.305,9.143l6.072,46.04a6.527,6.527,0,0,0,1.509,12.88,6.674,6.674,0,0,0,2.461-.485l43.076,81.05a4.729,4.729,0,1,0,5.676,6.611l47.117,42.663A6.516,6.516,0,1,0,147.83,516.2l54.339,37.274a4.451,4.451,0,0,0-.2,1.311,4.726,4.726,0,0,0,8.874,2.281L300.39,570.5c0,.108-.036.2-.036.3a6.539,6.539,0,1,0,13.077,0,6.307,6.307,0,0,0-.126-1.186l34.633-10.257c0,.054-.018.108-.018.162a4.742,4.742,0,1,0,8.622-2.712l107.222-31.759a6.531,6.531,0,1,0,10.491-7.257l92.4-121.844a6.519,6.519,0,1,0,4.437-12l6.269-106.108a6.535,6.535,0,0,0,6.092-6.5ZM563.5,390.368a6.665,6.665,0,0,0,.126,1.2l-34.04,10.077a7.752,7.752,0,0,0-3.629-3.862l50.081-119.922-6.269,106a6.5,6.5,0,0,0-6.269,6.507ZM469.8,516a6.543,6.543,0,0,0-5.964,3.88l-50.943-16.65a8.139,8.139,0,0,0,.216-1.76,7.812,7.812,0,0,0-1.383-4.419L516.792,410a7.494,7.494,0,0,0,1.8,1.383l-46.78,104.978A6.233,6.233,0,0,0,469.8,516ZM32.882,309.821l5.856-89.331V361.339l-5.551-42.052a4.738,4.738,0,0,0-.305-9.467ZM396.259,34c0,.108-.036.2-.036.305a6.488,6.488,0,0,0,4.688,6.233L392.145,94.93a7.742,7.742,0,0,0-6.664,3.916L262.99,36.637a6.039,6.039,0,0,0,.377-1.707ZM149.23,510.739a6.514,6.514,0,0,0-5.856-5.209c-2.928-17.137-9.377-61.865-14.191-96.444a7.752,7.752,0,0,0,4.437-2.82l120.515,67.721a7.7,7.7,0,0,0-.844,3.449,8.142,8.142,0,0,0,.216,1.76ZM43.445,205.024,87.9,245.154A7.69,7.69,0,0,0,90.257,256.4L41.451,365.381a6.571,6.571,0,0,0-1.365-.287v-158.7a6.3,6.3,0,0,0,3.359-1.37Zm83.187-83.493a6.536,6.536,0,0,0,6.413-5.263l91.45,30.25a7.785,7.785,0,0,0-.521,2.748,7.991,7.991,0,0,0,.736,3.269L99.885,244.525a7.594,7.594,0,0,0-3.449-2.191l28.993-120.928a6.67,6.67,0,0,0,1.2.125ZM256.9,40.84a6.533,6.533,0,0,0,5.479-3l122.527,62.224a7.12,7.12,0,0,0-.359,3.916L238.525,145.548a7.7,7.7,0,0,0-4.688-3.736L256.164,40.751a5.15,5.15,0,0,0,.736.089Zm263.7,96.175-26.136,99.444a7.708,7.708,0,0,0-2.138-.341,7.974,7.974,0,0,0-3,.593l-92.474-127.88a7.636,7.636,0,0,0,2.677-3.79L516.612,129.7a6.9,6.9,0,0,0-.126,1.239A6.591,6.591,0,0,0,520.6,137.015Zm-5.5,265.118L402.259,376.77c.018-.234.072-.467.072-.7a7.725,7.725,0,0,0-2.766-5.892L488.7,250.74a7.779,7.779,0,0,0,3.629.934,7.61,7.61,0,0,0,1.814-.234l26.28,145.771a7.7,7.7,0,0,0-5.323,4.923ZM238.363,153.272l110.33,71.1a8.465,8.465,0,0,0,.2,8.479l-111.282,79.5a7.7,7.7,0,0,0-5.209-2.676v-152.7A7.723,7.723,0,0,0,238.363,153.272ZM238.4,313.45l111.282-79.5a8.648,8.648,0,0,0,6.664,3.179,9.261,9.261,0,0,0,1.419-.144l34.274,131.76a7.828,7.828,0,0,0-4.383,3.808L239.189,319.341a7.812,7.812,0,0,0,.287-1.958,7.355,7.355,0,0,0-1.076-3.934Zm156.172,54.842a6.667,6.667,0,0,0-1.2.126L359.1,236.658a8.68,8.68,0,0,0,5.8-6.592l119.76,13.005a6.74,6.74,0,0,0-.09.844,7.72,7.72,0,0,0,3,6.09l-89.1,119.383a7.621,7.621,0,0,0-3.9-1.1Zm90.337-126.551L365.021,228.7c0-.09.036-.18.036-.269a8.674,8.674,0,0,0-5.8-8.173L390.19,110.144a7.458,7.458,0,0,0,2.012.287,7.815,7.815,0,0,0,3.539-.88l92.474,127.772a7.865,7.865,0,0,0-3.308,4.418Zm-96-132.029L357.962,219.9a9.273,9.273,0,0,0-1.6-.162,8.64,8.64,0,0,0-6.934,3.5l-110.456-71.17a7.534,7.534,0,0,0,.539-2.784,7.953,7.953,0,0,0-.431-2.461L384.906,105.31a7.782,7.782,0,0,0,4.006,4.4ZM231.07,156.972V309.7a7.674,7.674,0,0,0-5.946,3.7L101.376,252.608a7.694,7.694,0,0,0-.647-7.006L225.393,153.72a7.776,7.776,0,0,0,5.677,3.252ZM100.747,253.794l123.766,60.787a7.627,7.627,0,0,0-.539,2.8,7.815,7.815,0,0,0,1.329,4.347L133.35,396.457a7.69,7.69,0,0,0-5.856-2.712,7.547,7.547,0,0,0-1.114.108l-30.088-136.7a7.723,7.723,0,0,0,4.455-3.359Zm33.412,143.759,92.007-74.781a7.745,7.745,0,0,0,5.569,2.371c.251,0,.5-.054.754-.072l27.035,144.765a7.683,7.683,0,0,0-4.706,3.018l-120.479-67.7a7.779,7.779,0,0,0,.934-3.629,7.416,7.416,0,0,0-1.114-3.972ZM261.05,469.675c-.054,0-.108.018-.162.018L233.836,324.838a7.691,7.691,0,0,0,4.958-4.2l148.394,53.171a7.861,7.861,0,0,0-.377,2.263,7.637,7.637,0,0,0,1.1,3.916L267,472.513A7.726,7.726,0,0,0,261.05,469.675ZM42.672,365.938,91.46,256.991a7.887,7.887,0,0,0,2.694.5,6.452,6.452,0,0,0,.826-.09l30.106,136.772a7.7,7.7,0,0,0-4.832,4.67l-74.475-25.8a6.774,6.774,0,0,0,.18-1.491,6.5,6.5,0,0,0-3.287-5.614ZM267.751,473.609l120.928-92.528a7.7,7.7,0,0,0,5.874,2.748h.018L404,493.854a7.721,7.721,0,0,0-6.161,5.694l-129.1-21.592c.018-.18.054-.341.054-.5a7.34,7.34,0,0,0-1.042-3.847Zm137.6,20.1L395.92,383.685a7.757,7.757,0,0,0,6.107-5.587L514.78,403.445a6.863,6.863,0,0,0-.126,1.221,7.843,7.843,0,0,0,1.293,4.293L410.863,496.027a7.646,7.646,0,0,0-5.514-2.317Zm117.066-96.8c-.234,0-.449.054-.665.072L495.434,251.01a7.778,7.778,0,0,0,4.221-4.652L570.484,272.3a6.527,6.527,0,0,0,4.239,5.173L524.7,397.284a7.4,7.4,0,0,0-2.286-.378ZM570.43,270.841l-70.452-25.777a8.3,8.3,0,0,0,.126-1.168,7.764,7.764,0,0,0-4.347-6.952l26.154-99.57a6.083,6.083,0,0,0,1.15.108,6.74,6.74,0,0,0,1.832-.287l48.321,128.76A6.566,6.566,0,0,0,570.43,270.841Zm-53.4-142.412L399.852,103.747a6.837,6.837,0,0,0,.108-1.06,7.759,7.759,0,0,0-6.467-7.634l8.748-54.267a5.121,5.121,0,0,0,.521.054,6.457,6.457,0,0,0,5.138-2.55l109.935,88.756a5.939,5.939,0,0,0-.809,1.383ZM254.853,40.481l-22.328,101.1c-.251-.018-.5-.072-.772-.072a7.765,7.765,0,0,0-6.646,3.79l-91.936-30.412a6.487,6.487,0,0,0-1.329-3.826L251.728,38.236a6.483,6.483,0,0,0,3.125,2.245ZM124.135,121.028,95.143,242.064a8.46,8.46,0,0,0-.97-.09,7.716,7.716,0,0,0-5.371,2.174L44.415,204.09a6.412,6.412,0,0,0-.2-8.568l77.475-76.308a6.648,6.648,0,0,0,2.445,1.814Zm-78.8,253.3L119.9,400.14a8.579,8.579,0,0,0-.144,1.365,7.762,7.762,0,0,0,7.76,7.76c.108,0,.216-.036.323-.036,4.563,32.783,11.029,78.176,14.245,96.3a6.549,6.549,0,0,0-2.048.575L43.822,376.375a6.591,6.591,0,0,0,1.509-2.048Zm104,137.772L253.9,480.489a7.784,7.784,0,0,0,7.149,4.724,7.571,7.571,0,0,0,3.251-.736l39.178,80.762A6.622,6.622,0,0,0,301,567.97L149.032,513.936A6.217,6.217,0,0,0,149.337,512.1Zm157.537,52.147a6.773,6.773,0,0,0-2.192.4l-39.214-80.852a7.691,7.691,0,0,0,3.09-4.527L397.641,500.86c-.018.2-.054.4-.054.611a7.719,7.719,0,0,0,1.078,3.88l-86.852,61.165a6.555,6.555,0,0,0-4.939-2.265ZM569.891,225.358l5.209,39.717c-.234.072-.467.126-.7.216l-46.722-124.5,39.393,76.164a4.718,4.718,0,0,0,2.82,8.407ZM467.914,82.371a3.948,3.948,0,0,0,2.389-.808l39.555,37.31L417.4,44.236l46.92,32.477a4.077,4.077,0,0,0-.377,1.689,3.96,3.96,0,0,0,3.971,3.969ZM300.066,23.255a4.729,4.729,0,0,0,8.91-.647l83.241,10.077-128.832.9c-.018-.108-.018-.216-.036-.341Zm-49.255,13.4a4.609,4.609,0,0,0,.2.431l-120.1,72.984a6.743,6.743,0,0,0-2.3-1.293c3.5-12.754,7.94-28.274,10.634-36.627a6.358,6.358,0,0,0,1.671.234,6.539,6.539,0,0,0,6.539-6.539,7.061,7.061,0,0,0-.108-1.06ZM137.985,71.683c-3.162,9.682-8.245,27.915-10.688,36.825-.216-.018-.431-.072-.647-.072a6.494,6.494,0,0,0-5.712,9.664L47.379,190.51l90.157-119.1a3.712,3.712,0,0,0,.449.273ZM86.395,458.412h-.072L44.235,379.2l94.648,127.628c-.072.054-.126.108-.2.162l-47.6-43.076a5.114,5.114,0,0,0,.072-.754,4.765,4.765,0,0,0-4.76-4.743Zm120.281,91.612a4.734,4.734,0,0,0-3.988,2.174l-53.836-36.9L300.1,569.083l-88.81-13.329a4.5,4.5,0,0,0,.108-.988,4.711,4.711,0,0,0-4.722-4.742ZM355.465,555.7a4.77,4.77,0,0,0-2.8-.934,4.721,4.721,0,0,0-4.419,3.09l-35.3,10.455a6.245,6.245,0,0,0-.359-.683l86.87-61.165a7.727,7.727,0,0,0,13.059-1.94l50.926,16.652a6.949,6.949,0,0,0-.144,1.383,6.673,6.673,0,0,0,.126,1.2Zm117.713-38.729c-.036-.018-.09-.054-.126-.072L519.828,411.94a7.678,7.678,0,0,0,10.365-7.275,8.112,8.112,0,0,0-.216-1.742L564,392.847a6.687,6.687,0,0,0,1.581,2.263Z"/>
  </g>
</svg>
