<svg xmlns="http://www.w3.org/2000/svg" xmlns:xlink="http://www.w3.org/1999/xlink" width="512" height="512" viewBox="0 0 512 512"><defs><clipPath id="b"><rect width="512" height="512"/></clipPath></defs><g id="a" clip-path="url(#b)"><g transform="translate(-708 -473)"><g transform="translate(757.656 488.656)"><line x2="202.924" y2="33.316" transform="translate(212.011 90.862)" fill="none" stroke="#000" stroke-width="6"/><line y1="33.316" x2="212.011" transform="translate(0 90.862)" fill="none" stroke="#000" stroke-width="6"/><line x1="81.774" y1="187.782" transform="translate(0 124.178)" fill="none" stroke="#000" stroke-width="6"/><line y1="48.458" x2="84.804" transform="translate(0 311.956)" fill="none" stroke="#000" stroke-width="6"/><line x1="212.011" y1="118.12" transform="translate(0 360.418)" fill="none" stroke="#000" stroke-width="6"/><line x1="202.924" y2="118.12" transform="translate(212.011 360.418)" fill="none" stroke="#000" stroke-width="6"/><line y2="236.24" transform="translate(414.934 124.178)" fill="none" stroke="#000" stroke-width="6"/><line x2="202.924" y2="124.178" transform="translate(212.011)" fill="none" stroke="#000" stroke-width="6"/><line y1="124.178" x2="212.011" fill="none" stroke="#000" stroke-width="6"/><line y1="90.862" transform="translate(210.836)" fill="none" stroke="#000" stroke-width="6"/><line y1="221.098" x2="130.236" transform="translate(81.774 90.862)" fill="none" stroke="#000" stroke-width="6"/><line x1="254.411" transform="translate(81.774 311.956)" fill="none" stroke="#000" stroke-width="6"/><line x1="78.745" y2="187.782" transform="translate(336.189 124.178)" fill="none" stroke="#000" stroke-width="6"/><line x2="124.178" y2="221.098" transform="translate(212.011 90.862)" fill="none" stroke="#000" stroke-width="6"/><line x2="127.207" y2="166.578" transform="translate(86.474 311.956)" fill="none" stroke="#000" stroke-width="6"/><line y2="236.24" transform="translate(0 124.178)" fill="none" stroke="#000" stroke-width="6"/><line x2="78.745" y2="48.458" transform="translate(336.189 311.956)" fill="none" stroke="#000" stroke-width="6"/><line x1="127.207" y2="166.578" transform="translate(208.982 311.956)" fill="none" stroke="#000" stroke-width="6"/></g><g transform="translate(741 472)"><circle cx="16" cy="16" r="16" transform="translate(82 313)"/><circle cx="16" cy="16" r="16" transform="translate(212 476)"/><circle cx="16" cy="16" r="16" transform="translate(414 125)"/><circle cx="16" cy="16" r="16" transform="translate(334 313)"/><circle cx="16" cy="16" r="16" transform="translate(414 360)"/><circle cx="16" cy="16" r="16" transform="translate(2 125)"/><circle cx="16" cy="16" r="16" transform="translate(212 93)"/><circle cx="16" cy="16" r="16" transform="translate(212 6)"/><circle cx="16" cy="16" r="16" transform="translate(0 361)"/></g></g></g></svg>