<svg xmlns="http://www.w3.org/2000/svg" width="937.248" height="971.242" viewBox="0 0 937.248 971.242">
  <g id="Speek" transform="translate(0 0)">
    <path fill="#303f9f" id="Circle" d="M307.937,187.687l-12.21,8.1c-100.633,65.82-153.658,159.479-154.87,279.4-1.56,153.365,106.5,286.765,255.986,321.085,192.96,44.3,383.924-95.578,399.448-292.59C808.567,347.854,703.2,207.864,554.536,159.471c-22.417-24.995-42.773-109-7.344-147.262,146.1,32.467,255.642,107.07,326.265,227.224,154.419,262.723,15.6,605.178-277.719,686.975C323.27,1002.391,47.583,822.776,6.835,542.729-38.384,281.61,145.987,49.318,406.114,10.276,345.427,65.16,312.96,140.532,307.937,187.687" transform="translate(0 27.346)" />
    <path fill="#03a9f4" id="Fire" d="M528.565,437.359c21.008-39.148,20.056-80.091,8.128-121.513-2.932-10.193-9.036-27.671-13.154-39.1,70.231,51.9,130.208,176.694,99.722,300.711-28.242,114.9-138.369,207.454-251.974,218.156-146.3,13.777-260.05-73.889-302.863-180.465C22.769,501.527,59.329,361.782,137.794,292.21c-38.394,77.3-26.51,138.665-10.822,161.566,17.438,25.452,45.2,38.651,72.3,31.112,28.484-7.923,50.337-33.408,49.843-65.9-.329-21.7-4.2-46.163-12.755-65.71-50.769-115.974-8.45-220.565,73.439-292.594C333.562,39.778,361.2,19.715,396.376,0c-38.654,54.884-45.222,121.755-15.853,183.983,17.222,33.909,39.284,69.324,58.754,102.039,34.99,58.8,56.447,119.258,47.155,189.4-.1.776,27.832-10.826,42.132-38.065" transform="translate(128.915 0)" />
  </g>
</svg>
