<svg xmlns="http://www.w3.org/2000/svg" width="647.023" height="873.771" viewBox="0 0 647.023 873.771">
  <path id="Caminho_6" data-name="Caminho 6" d="M40.629,355.409c-4.269-45.938-2.5-81.562,13.7-137.653C66.7,175.5,95.442,147.674,126.382,121.4a12.107,12.107,0,0,1,9.43-3.02c1.916,1.541,2.359,4.931,2.213,8.1-2.062,43.137,11.637,82.369,34.189,102.467,2.062,1.916,4.712.515,5.889-1.619,0-5.6-.588-8.617-.588-10.309-.3-69.785,34.632-97.245,16.943-143.25-7.665-19.655-20.187-37.618-38.9-47.776a5.11,5.11,0,0,1-1.916-6.034c3.832-1.765,7.368-1.546,12.377-1.546,24.014.073,69.247-1.7,118.317,29.225,21.067,13.324,86.347,80.458,116.255,128.671,2.942,4.639,7.508.667,8.1-3.9,11.94-93.345-20.473-80.094-30.794-117.852-5.743-20.832-6.337-28.345,5.9-21.723,36.245,19.728,72.793,41.3,109.179,61.912a137.821,137.821,0,0,1,61.885,68.311c11.492-27.236,39.047-61.61,65.857-72.508,1.042-.437,11.794-1.765,14.007-.734,3.972,1.843,2.213,7.289.874,9.934-10.9,22.821-11.632,46.672-9.715,70.6,2.8,37.1,30.5,57.565,47.888,96.286,8.253,18.327,21.5,48.953,1.031,99.816-17.543,43.731,6.04,104.6,9.138,156.944,3.087,48.589,3.087,139.429-30.217,196.243-24.16,41.159-45.821,87.316-89.288,110.787-36.4,19.655-83.988,40.941-107.408,48.807-69.555,23.342-156.187,12.517-214.537-11.85-22.546-9.267-40.078-17.817-68.076-38.419C136.4,800.91,101.925,766.9,82.034,723.617c-6.488-14.063-6.488-14.282-16.064-38.061C45.929,636.609,48,576.389,50.5,524.416c2.953-56.522-4.712-112.765-9.867-169.007Z" transform="translate(-38.643 -18.4)" fill-rule="evenodd"/>
  <path id="Caminho_7" data-name="Caminho 7" d="M552.638,144.949c-5.155,71.774-14.271,81.484-33.5,96-.415-12-3.479-31.875-6.247-43.552-16.753-70.709-46.51-114.877-101.783-138,1.182,61.038,1.412,127.226-51.508,156.036-13.526-57.968-37.618-92.2-103.391-152.3C240.633,49.033,227.679,33.8,204.6,28.4c1.636,20.49-.387,31.085-.594,46.622-1.283,53.575-29.511,57.7-11.845,160.233-82.946,7.379-115.79-47.378-119.331-79.259-24.782,32.861-31.757,97.435-22.591,145.06,8.595,44.639,16.394,95.087,14.287,143.278-2.908,66.249-12.2,125.848,12.03,184.241,30.732,74.088,59.694,91.815,98.533,125.343,27.975,24.339,76.026,37.646,123.136,43.574,46.157,5.788,161.891-10.035,224.543-75.9,54.489-57.441,66.5-86.005,77.2-153.952,6.3-40.274-8.634-104.8-7.245-157.375,1.25-47.048,4.04-80.772,16.03-119.393C621.017,251.4,578.423,194.311,552.638,144.949Z" transform="translate(-3.06 27.613)" fill="#c1352c" fill-rule="evenodd"/>
  <path id="Caminho_8" data-name="Caminho 8" d="M72.367,223.2c-1.384-23.179.241-33.489-2.185-64.26-4.869-5.67-12.321-12.573-13.537-16.22-8.5-25.521-1.283-42.241,6.628-31.9,62.31,82.128,177.058,113.241,202.2,115.32,26.054,2.191,36.8,3.384,63.733,0,72.782-9.127,88.706-17.6,182.729-78.267,15.374-9.917,25.1-22.731,31.8-29.208,9.872-9.5,13.044,8.69,6.348,24.02-3.4,7.564-3.844,12.2-7.093,14.629-.241,44.134-14.136,96.214-41.619,134.185-34.032,47.042-97.626,108.361-175.826,108.361-57.822,0-119.242-7.082-163.186-47.591C123.376,316.33,75.555,276.728,72.367,223.2Z" transform="translate(26.623 392.725)" fill-rule="evenodd"/>
  <path id="Caminho_9" data-name="Caminho 9" d="M66.11,120.216c13.514,0,33.08-14.495,47.541-2.942,47.72,38.358,77.993,53.514,120.06,55.066-8.987,19.061-29.247,12.8-40.885,13.178-8.544,22.6-40.453,24.154-53.643,18.624-26.054-10.909-40.19-34.845-44.269-69.936-4.275-.812-8.556-4.959-14.444-6.623-4.426-1.283-7.8-1.922-14.36-7.368ZM256.554,157.84c10.091,8.242,41.619,6.186,58.271-6.186,21.437-15.464,31.758-37.108,60.405-51.536,7.144-3.608,12.965-2.062,32.054-8.247-3.535,10.819-10.679,12.366-12.892,15.458,1.031,52.046-4.5,68.025-36.1,80.391-14,5.155-32.564,7.726-45.832-6.186-21.286,5.676-54.735,1.546-55.906-23.695Z" transform="translate(87.789 319.78)" fill-rule="evenodd"/>
  <path id="Caminho_10" data-name="Caminho 10" d="M221.589,303.661a126.554,126.554,0,0,0-40.666,94.219,160.915,160.915,0,0,0,80.744,17.005,280,280,0,0,1-24.681-49.541,270.566,270.566,0,0,1-15.4-61.683Zm107.784,1.546A267.776,267.776,0,0,1,316.7,367.484a269.385,269.385,0,0,1-22.541,50.5,154.609,154.609,0,0,0,44.571-5.821A167.687,167.687,0,0,0,374.173,397.6a126.877,126.877,0,0,0-14.741-54.987,125.113,125.113,0,0,0-30.06-37.405Zm-90.465-3.02a270.043,270.043,0,0,0,16.5,64.781,274.186,274.186,0,0,0,23.5,46.454,189.4,189.4,0,0,0,33.147-113.359q-15.582.538-31.388,1.171C266.827,301.532,252.9,301.823,238.907,302.187Zm170.845-28.631a316.619,316.619,0,0,1-36.537,15.307,291.243,291.243,0,0,1-31.461,8.69,232.406,232.406,0,0,1,28.289,38.716,219.806,219.806,0,0,1,20.115,44.823,169.07,169.07,0,0,0,18.277-50.931A172.187,172.187,0,0,0,409.752,273.556Zm-269.866,2.062a173.056,173.056,0,0,0,24.238,106.6,225.747,225.747,0,0,1,18.126-45.642,233.264,233.264,0,0,1,26.6-39.9,295.378,295.378,0,0,1-31.752-7.362,301.923,301.923,0,0,1-37.209-13.694Zm63.655-124.251c-18.641-1.182-32.637-8.841-36.615-15.98-2.8-5.087-15.47-15.537-22.176-15.537a170.331,170.331,0,0,1,11.716,21.79C162.287,152.46,190.285,163.358,203.542,151.367Zm-58.416,224.88a231.189,231.189,0,0,1-18.12-100.931,73.365,73.365,0,0,0-22.1,29.528,75.94,75.94,0,0,0-5.452,23.846,153.578,153.578,0,0,0,45.675,47.558Zm263.893-1.838a152.1,152.1,0,0,0,27.841-26.362,145.239,145.239,0,0,0,15.705-23.191,75.363,75.363,0,0,0-6.488-23.549,73.7,73.7,0,0,0-23.275-28.5,231.147,231.147,0,0,1-1.916,56.545A227.255,227.255,0,0,1,409.018,374.409ZM403.04,98.795a277.191,277.191,0,0,0-41.322,40.644c9.945,1.686,15.475.437,22.031-4.124C393.913,128.317,399.146,124.126,403.04,98.795Zm56.657,204.2a130.224,130.224,0,0,0,1.7-30.76,118.508,118.508,0,0,0-5.743-30.4c-3.535,4.051-7.738,6.914-12.08,9.934-4.488,3.009-9.278,6.029-14.366,7.726a77.215,77.215,0,0,1,30.491,43.5ZM91.416,307.045a78.85,78.85,0,0,1,12.3-27.97A76.406,76.406,0,0,1,120,262.3c-5.155-1.479-10.024-4.342-14.584-7.071-4.645-2.869-8.987-5.592-12.747-9.5A134.884,134.884,0,0,0,88.4,276.363a130.259,130.259,0,0,0,3.02,30.682ZM63.939,239.031A18.512,18.512,0,0,1,75.5,230.57c-1.765-.964-7.951-4.718-9.43-6.191a22.215,22.215,0,0,1-3.535-4.925,14.713,14.713,0,0,0,1.4,19.577Zm420.226-5.295a14.768,14.768,0,0,0,.583-19.655,19.4,19.4,0,0,1-3.384,5.076c-1.334,1.619-7.3,5.513-9.217,6.623C477.9,226.811,481.5,230.049,484.165,233.736Zm-16.439,3.6a144.731,144.731,0,0,1,3.468,25.028,142.29,142.29,0,0,1-.151,17.817,47.393,47.393,0,0,0,11.206-27.157,18.63,18.63,0,0,0-5.6-10.668,19.246,19.246,0,0,0-8.92-5.02Zm-387.286,4.5a18.776,18.776,0,0,0-8.7,5.373,19.566,19.566,0,0,0-5.155,10.886,47.752,47.752,0,0,0,12.377,26.72,151.488,151.488,0,0,1,1.474-42.98Z" transform="translate(57.177 351.651)" fill="#fff" fill-rule="evenodd"/>
</svg>
