<svg version="1.1" xmlns="http://www.w3.org/2000/svg" x="0" y="0" viewBox="0 0 100 100" xml:space="preserve">
  <path
    d="M75.659 69.554l-3.324-3.324a8.296 8.296 0 0 0-5.904-2.446c-2.23 0-4.327.868-5.904 2.446l-2.154 2.154c-.547.548-1.408.6-2.001.122a154.448 154.448 0 0 1-22.878-22.879 1.494 1.494 0 0 1 .122-2l2.155-2.155a8.294 8.294 0 0 0 2.446-5.904 8.29 8.29 0 0 0-2.446-5.904l-3.324-3.324c-3.256-3.256-8.553-3.256-11.808 0l-5.387 5.387c-3.596 3.596-4.287 9.171-1.681 13.558 10.669 17.96 25.184 32.476 43.144 43.144a11.156 11.156 0 0 0 5.704 1.57c2.874 0 5.715-1.111 7.854-3.251l5.387-5.387c3.254-3.254 3.254-8.551-.001-11.807z"
    fill="#333" />
  <g>
    <g>
      <circle cx="70.12" cy="29.884" r="19.88" fill="none" stroke="#666" stroke-width="3.926" stroke-miterlimit="10" />
    </g>
    <path fill="none" stroke="#666" stroke-width="3.926" stroke-miterlimit="10" d="M81.004 31.384H68.62V18" />
  </g>
</svg>
