
<svg width="64" height="65" viewBox="0 0 64 65" fill="none" xmlns="http://www.w3.org/2000/svg">
  <g clip-path="url(#clip0)">
    <path
      d="M13.415 0H16.2614V2.86194H18.885V0H21.7314V8.66114H18.885V5.77409H16.2862V8.66114H13.415V0ZM25.4936 2.88705H22.9814V0H30.8646V2.88705H28.34V8.66114H25.4936V2.88705ZM32.1145 0H35.0971L36.9286 3.05023L38.7602 0H41.7427V8.66114H38.8964V4.36823L36.9039 7.48121L34.9114 4.36823V8.66114H32.1145V0ZM43.1536 0H46V5.7992H50.0344V8.66114H43.1536"
      fill="black" />
    <path d="M13.3162 59.1217L9.2323 12.6277H54.1309L50.047 59.0966L31.6445 64.2682" fill="#E44D26" />
    <path d="M31.6813 60.3141V16.4436H50.0343L46.532 56.1091" fill="#F16529" />
    <path
      d="M17.5734 22.1298H31.6816V27.8286H23.7365L24.2562 33.6655H31.6816V39.3517H19.108L17.5734 22.1298ZM19.3555 42.2136H24.9988L25.3948 46.7701L31.6816 48.4773V54.4271L20.1475 51.1635"
      fill="#EBEBEB" />
    <path
      d="M45.7401 22.1298H31.6567V27.8286H45.2204L45.7401 22.1298ZM44.713 33.6655H31.6567V39.3642H38.5871L37.9312 46.7701L31.6567 48.4773V54.402L43.166 51.1635"
      fill="white" />
  </g>
  <defs>
    <clipPath id="clip0">
      <rect width="63.363" height="64.2682" fill="white" />
    </clipPath>
  </defs>
</svg>
