
<svg width="63" height="65" viewBox="0 0 63 65" fill="none" xmlns="http://www.w3.org/2000/svg">
  <g clip-path="url(#clip0)">
    <path d="M62.4578 0H0V64.2682H62.4578V0Z" fill="#F7DF1E"/>
    <path d="M41.9557 50.2098C43.2137 52.3235 44.8505 53.8771 47.7454 53.8771C50.1773 53.8771 51.7308 52.6264 51.7308 50.8983C51.7308 48.8275 50.1347 48.094 47.4579 46.8892L45.9906 46.2415C41.7554 44.3848 38.9418 42.0589 38.9418 37.1419C38.9418 32.6125 42.2957 29.1645 47.5372 29.1645C51.2688 29.1645 53.9515 30.5009 55.8847 33.9999L51.3144 37.0195C50.3081 35.1628 49.2226 34.4314 47.5372 34.4314C45.8181 34.4314 44.7286 35.5536 44.7286 37.0195C44.7286 38.8312 45.8191 39.5647 48.3373 40.6868L49.8045 41.3336C54.7912 43.534 57.6068 45.7773 57.6068 50.8208C57.6068 56.2581 53.4558 59.2369 47.8812 59.2369C42.4305 59.2369 38.9091 56.5641 37.1861 53.061L41.9557 50.2098ZM21.2227 50.7331C22.1446 52.4163 22.9834 53.8394 24.9999 53.8394C26.9281 53.8394 28.1446 53.0631 28.1446 50.0445V29.5093H34.0136V50.1261C34.0136 56.3795 30.4505 59.2257 25.2497 59.2257C20.5505 59.2257 17.8291 56.7233 16.4451 53.7093L21.2227 50.7331Z" fill="black"/>
  </g>
  <defs>
    <clipPath id="clip0">
      <rect width="62.4578" height="64.2682" fill="white"/>
    </clipPath>
  </defs>
</svg>
