<svg width="66" height="65" viewBox="0 0 66 65" fill="none" xmlns="http://www.w3.org/2000/svg">
  <path fill-rule="evenodd" clip-rule="evenodd" d="M38.5976 1.06613C38.1519 1.06613 37.738 1.16363 37.356 1.29361C38.1678 1.84607 38.6135 2.57727 38.8363 3.40596C38.8523 3.5197 38.8841 3.60094 38.9 3.71468C38.916 3.81217 38.9318 3.90967 38.9318 4.00716C38.9955 5.43705 38.5657 5.61579 38.2633 6.46072C37.8017 7.54939 37.929 8.7193 38.4861 9.66173C38.5339 9.77547 38.5976 9.90546 38.6772 10.0192C38.0723 5.90826 41.4309 5.29081 42.0516 4.00716C42.0994 2.88599 41.1921 2.13855 40.4758 1.61859C39.7914 1.19612 39.1706 1.06613 38.5976 1.06613ZM43.6593 1.99231C43.5956 2.36603 43.6433 2.26854 43.6275 2.46353C43.6115 2.59351 43.6115 2.75601 43.5957 2.88599C43.5639 3.01598 43.532 3.14597 43.4842 3.27597C43.4524 3.40596 43.4047 3.53595 43.3569 3.66593C43.2932 3.79593 43.2455 3.90967 43.1818 4.03966C43.1341 4.10468 43.1022 4.16964 43.0545 4.23464C43.0227 4.28339 42.9908 4.33214 42.959 4.38088C42.8794 4.49463 42.7998 4.60836 42.7202 4.70586C42.6247 4.80335 42.5451 4.91709 42.4337 4.99834C42.4337 5.01461 42.4337 5.01461 42.4337 5.01461C42.3382 5.09585 42.2427 5.19334 42.1313 5.27458C41.797 5.53456 41.415 5.72955 41.0648 5.97328C40.9534 6.05452 40.842 6.11952 40.7465 6.21702C40.635 6.29826 40.5395 6.3795 40.444 6.47699C40.3326 6.57449 40.253 6.67198 40.1575 6.78572C40.0779 6.88322 39.9824 6.99695 39.9188 7.1107C39.8392 7.22444 39.7596 7.33818 39.6959 7.45192C39.6322 7.58191 39.5845 7.69565 39.5208 7.82564C39.4731 7.95563 39.4253 8.06937 39.3935 8.19936C39.3457 8.3456 39.3139 8.47559 39.2821 8.60559C39.2661 8.67061 39.2661 8.75182 39.2502 8.81682C39.2343 8.88184 39.2343 8.9468 39.2184 9.0118C39.2184 9.14179 39.2025 9.28803 39.2025 9.41802C39.2025 9.51551 39.2025 9.61301 39.2184 9.7105C39.2184 9.84049 39.2344 9.97048 39.2662 10.1167C39.2821 10.2467 39.3139 10.3767 39.3458 10.5067C39.3935 10.6367 39.4254 10.7667 39.4731 10.8967C39.5049 10.9779 39.5527 11.0591 39.5845 11.1241L35.9235 9.678C35.3028 9.49926 34.6979 9.33678 34.0771 9.19054C33.7429 9.1093 33.4086 9.02805 33.0743 8.94681C32.1193 8.75182 31.1483 8.60559 30.1774 8.50809C30.1456 8.50809 30.1296 8.49182 30.0978 8.49182C29.1427 8.39433 28.2036 8.34559 27.2486 8.34559C26.5482 8.34559 25.8478 8.37806 25.1634 8.42683C24.1924 8.49185 23.2215 8.62181 22.2505 8.7843C22.0117 8.81677 21.773 8.86555 21.5342 8.91429C21.0408 9.01178 20.5633 9.12552 20.1017 9.23927C19.8629 9.30429 19.6241 9.36926 19.3854 9.43425C19.1466 9.53174 18.9238 9.64549 18.7009 9.74298C18.5258 9.82422 18.3508 9.90546 18.1757 9.98671C18.1439 10.003 18.112 10.003 18.0961 10.0192C17.9369 10.1004 17.7936 10.1654 17.6504 10.2467C17.6026 10.2629 17.5708 10.2791 17.539 10.2954C17.3639 10.3767 17.1888 10.4741 17.0455 10.5554C16.9341 10.6041 16.8227 10.6691 16.7272 10.7179C16.6794 10.7504 16.6158 10.7829 16.5839 10.7991C16.4407 10.8804 16.2974 10.9616 16.1701 11.0429C16.0268 11.1241 15.8995 11.2053 15.7881 11.2866C15.6766 11.3678 15.5652 11.4328 15.4697 11.5141C15.4538 11.5303 15.4379 11.5303 15.422 11.5465C15.3264 11.6116 15.215 11.6928 15.1195 11.774C15.1195 11.774 15.1036 11.7903 15.0877 11.8065C15.0081 11.8715 14.9285 11.9365 14.849 12.0015C14.8171 12.0177 14.7853 12.0502 14.7534 12.0665C14.6739 12.1315 14.5943 12.2127 14.5147 12.2777C14.4987 12.3102 14.4669 12.3265 14.451 12.3428C14.3555 12.4402 14.26 12.5215 14.1645 12.619C14.1485 12.619 14.1485 12.6353 14.1327 12.6515C14.0372 12.7327 13.9417 12.8302 13.8462 12.9277C13.8302 12.944 13.8302 12.9602 13.8143 12.9602C13.7348 13.0414 13.6552 13.1227 13.5756 13.2201C13.5438 13.2526 13.496 13.2852 13.4642 13.3176C13.3846 13.4151 13.2891 13.5126 13.1936 13.6101C13.1776 13.6426 13.1458 13.6589 13.1299 13.6913C13.0025 13.8213 12.8911 13.9513 12.7638 14.0813C12.7478 14.0976 12.732 14.1138 12.716 14.1301C12.4613 14.4063 12.1907 14.6825 11.9042 14.9263C11.6177 15.1862 11.3153 15.43 11.0129 15.6412C10.6945 15.8687 10.3921 16.0637 10.0578 16.2587C9.73947 16.4374 9.40521 16.5999 9.05503 16.7461C8.72076 16.8924 8.37058 17.0224 8.0204 17.1361C7.35187 17.2823 6.66742 17.5586 6.07848 17.6073C5.95114 17.6073 5.80788 17.6398 5.68054 17.656C5.53729 17.6885 5.40995 17.7211 5.28261 17.7535C5.15527 17.8023 5.02793 17.851 4.90059 17.8998C4.77325 17.9485 4.64592 18.0135 4.51858 18.0785C4.40715 18.1598 4.27982 18.2248 4.16839 18.306C4.05697 18.3872 3.94555 18.4847 3.85004 18.5822C3.73863 18.6635 3.6272 18.7772 3.5317 18.8747C3.43619 18.9885 3.34069 19.0859 3.2611 19.1997C3.18152 19.3297 3.08601 19.4434 3.02234 19.5734C2.94275 19.6872 2.86317 19.8171 2.7995 19.9471C2.7358 20.0934 2.67216 20.2234 2.62441 20.3696C2.57665 20.4996 2.5289 20.6458 2.48115 20.7921C2.44934 20.9221 2.41746 21.052 2.40156 21.182C2.40156 21.1983 2.38562 21.2145 2.38562 21.2308C2.35381 21.377 2.35381 21.572 2.33787 21.6695C2.32193 21.7832 2.30606 21.8807 2.30606 21.9945C2.30606 22.0595 2.30606 22.1407 2.322 22.2057C2.33794 22.3195 2.35381 22.4169 2.3857 22.5144C2.41751 22.6119 2.44939 22.7094 2.49712 22.8069C2.49712 22.8232 2.49712 22.8232 2.49712 22.8232C2.54487 22.9207 2.60854 23.0182 2.67221 23.1157C2.7359 23.2132 2.79955 23.3107 2.87913 23.4081C2.95872 23.4894 3.05422 23.5869 3.14973 23.6681C3.24523 23.7656 3.34074 23.8469 3.45216 23.9281C3.83418 24.2693 3.92968 24.3831 4.42312 24.643C4.5027 24.6918 4.5823 24.7243 4.6778 24.773C4.69375 24.773 4.70961 24.7893 4.72555 24.7893C4.72555 24.8218 4.72555 24.8381 4.7415 24.8706C4.75744 25.0006 4.78925 25.1305 4.82108 25.2605C4.85289 25.4068 4.90068 25.5368 4.94843 25.6505C4.99618 25.748 5.02801 25.8455 5.07577 25.943C5.09171 25.9755 5.10758 26.008 5.12352 26.0242C5.18721 26.1542 5.25086 26.268 5.31452 26.3817C5.39411 26.4954 5.4737 26.6092 5.55328 26.7229C5.63287 26.8204 5.72837 26.9342 5.82388 27.0316C5.91938 27.1291 6.01489 27.2104 6.12631 27.3079C6.12631 27.3079 6.14226 27.3242 6.15812 27.3242C6.25363 27.4054 6.34913 27.4867 6.44464 27.5516C6.55606 27.6329 6.66748 27.6979 6.79482 27.7629C6.90624 27.8279 7.03358 27.8929 7.16092 27.9416C7.25642 27.9904 7.36784 28.0229 7.47927 28.0554C7.49521 28.0717 7.51108 28.0717 7.54296 28.0878C7.60666 28.1041 7.68621 28.1203 7.74988 28.1366C7.70213 29.014 7.68619 29.8427 7.81358 30.1352C7.95683 30.4602 8.6572 29.469 9.35756 28.3316C9.26206 29.4527 9.19839 30.7689 9.35756 31.1589C9.53265 31.5651 10.4877 30.2977 11.3154 28.9003C22.6008 26.2355 32.8994 34.1974 33.9817 45.4415C33.7748 43.6866 31.6578 42.7117 30.6869 42.9555C30.2093 44.1579 29.3975 45.7015 28.0923 46.6602C28.2037 45.5877 28.156 44.4828 27.9331 43.4104C27.583 44.9053 26.8985 46.3027 25.9594 47.5051C24.4472 47.6188 22.9351 46.8714 22.1392 45.7502C22.0755 45.7015 22.0596 45.604 22.0119 45.539C21.9641 45.4253 21.9164 45.3115 21.8845 45.1978C21.8368 45.084 21.8049 44.9703 21.789 44.8566C21.7731 44.7428 21.7731 44.6291 21.7731 44.4991C21.7731 44.4178 21.7731 44.3366 21.7731 44.2554C21.789 44.1416 21.8208 44.0279 21.8527 43.9141C21.8845 43.8004 21.9164 43.6866 21.9641 43.5729C22.0278 43.4592 22.0755 43.3454 22.1551 43.2317C22.4257 42.4517 22.4257 41.818 21.9323 41.4443C21.8368 41.3793 21.7413 41.3306 21.6298 41.2818C21.5661 41.2656 21.4866 41.2331 21.4229 41.2168C21.3752 41.2005 21.3433 41.1843 21.2956 41.1681C21.1841 41.1356 21.0727 41.103 20.9613 41.0868C20.8499 41.0543 20.7385 41.0381 20.627 41.0381C20.5156 41.0218 20.3883 41.0056 20.2769 41.0056C20.1973 41.0056 20.1177 41.0219 20.0381 41.0219C19.9108 41.0219 19.7993 41.0382 19.6879 41.0706C19.5765 41.0869 19.4651 41.1031 19.3536 41.1356C19.2422 41.1681 19.1308 41.2006 19.0194 41.2494C18.908 41.2981 18.8125 41.3469 18.701 41.3956C18.6055 41.4444 18.51 41.5094 18.3986 41.5581C14.6898 44.0279 16.9024 49.8125 19.4332 51.4861C18.4782 51.6648 17.5072 51.8761 17.2366 52.0873C17.2207 52.1036 17.2048 52.1198 17.2048 52.1198C17.8893 52.5422 18.6056 52.8997 19.3537 53.2084C20.3724 53.5497 21.4548 53.8584 21.9323 53.9884V54.0047C23.2534 54.2809 24.5905 54.3784 25.9435 54.2971C32.9949 53.7934 38.7729 48.3176 39.8234 41.1031C39.8552 41.2494 39.8871 41.3794 39.9189 41.5256C39.9667 41.8181 40.0303 42.1268 40.0622 42.4355C40.0622 42.4355 40.0622 42.4355 40.0622 42.4518C40.094 42.5981 40.1099 42.7443 40.1259 42.8743C40.1259 42.9068 40.1259 42.923 40.1259 42.9393C40.1418 43.0855 40.1577 43.2318 40.1577 43.3618C40.1736 43.5405 40.1895 43.7192 40.1895 43.898C40.1895 43.9792 40.1895 44.0605 40.1895 44.158C40.1895 44.2392 40.2054 44.3367 40.2054 44.4179C40.2054 44.5154 40.1895 44.6129 40.1895 44.7104C40.1895 44.7917 40.1895 44.8729 40.1895 44.9379C40.1895 45.0517 40.1735 45.1491 40.1735 45.2629C40.1735 45.3279 40.1735 45.3929 40.1576 45.4741C40.1576 45.5879 40.1417 45.7016 40.1417 45.8316C40.1257 45.8803 40.1257 45.9291 40.1257 45.9778C40.1098 46.1078 40.0939 46.2216 40.0779 46.3516C40.0779 46.4003 40.0779 46.449 40.062 46.4978C40.046 46.6603 40.0143 46.8065 39.9983 46.969V46.9853V47.0016C39.9665 47.1478 39.9346 47.3103 39.9028 47.4565C39.9028 47.4728 39.9028 47.489 39.9028 47.5053C39.871 47.6515 39.8391 47.7978 39.8073 47.944C39.8073 47.9603 39.7914 47.9927 39.7914 48.009C39.7596 48.1553 39.7277 48.3015 39.68 48.4477C39.68 48.464 39.68 48.4802 39.68 48.4965C39.6322 48.659 39.5844 48.8052 39.5526 48.9514C39.5367 48.9677 39.5367 48.9839 39.5367 48.9839C39.4889 49.1464 39.4412 49.3089 39.3934 49.4714C39.3297 49.6339 39.282 49.7801 39.2183 49.9426C39.1546 50.1051 39.1069 50.2676 39.0432 50.4138C38.9795 50.5763 38.9159 50.7225 38.8522 50.885H38.8363C38.7726 51.0313 38.7089 51.1938 38.6293 51.34C38.6134 51.3887 38.5975 51.4212 38.5816 51.4537C38.5656 51.47 38.5656 51.4862 38.5498 51.5025C37.5151 53.6311 35.9871 55.4997 34.077 56.9621C33.9497 57.0433 33.8223 57.1408 33.695 57.2383C33.6632 57.2708 33.6154 57.287 33.5836 57.3195C33.4721 57.4008 33.3607 57.482 33.2334 57.5633L33.2811 57.6608H33.2971C33.5199 57.6283 33.7427 57.5957 33.9656 57.5633H33.9815C34.3954 57.4982 34.8092 57.417 35.2231 57.3358C35.3345 57.3195 35.4619 57.287 35.5733 57.2545C35.6529 57.2382 35.7165 57.2221 35.7961 57.2058C35.9075 57.1895 36.019 57.157 36.1304 57.1408C36.2259 57.1083 36.3214 57.092 36.4169 57.0595C38.0086 56.6695 39.5526 56.1333 41.0329 55.4996C38.5021 59.0256 35.1117 61.8692 31.1482 63.7378C32.9787 63.6078 34.8092 63.299 36.5761 62.7791C42.9908 60.8455 48.3868 56.4421 51.618 50.5113C50.9654 54.2647 49.501 57.8395 47.3362 60.9592C48.8802 59.9193 50.2968 58.7169 51.5861 57.352C55.1516 53.5498 57.4915 48.7239 58.2874 43.5405C58.8286 46.1078 58.9877 48.7564 58.749 51.3725C70.2413 35.0099 59.704 18.0462 55.2949 13.5778C55.2789 13.5454 55.2631 13.5291 55.2631 13.4966C55.2471 13.5128 55.2471 13.5128 55.2471 13.5291C55.2471 13.5128 55.2471 13.5128 55.2312 13.4966C55.2312 13.6916 55.2153 13.8865 55.1994 14.0815C55.1516 14.4553 55.1039 14.8127 55.0402 15.1702C54.9606 15.5277 54.8651 15.8851 54.7696 16.2426C54.6582 16.5838 54.5309 16.9413 54.3876 17.2825C54.2443 17.6075 54.0852 17.9487 53.9101 18.2737C53.735 18.5824 53.544 18.9074 53.337 19.1999C53.1301 19.5086 52.9073 19.8011 52.6844 20.0773C52.4457 20.3698 52.191 20.6298 51.9363 20.8898C51.7771 21.036 51.6339 21.166 51.4747 21.296C51.3474 21.4097 51.236 21.5072 51.1086 21.621C50.8221 21.8484 50.5356 22.0597 50.2172 22.2547C49.9148 22.4496 49.5965 22.6446 49.2781 22.8071C48.9439 22.9696 48.6096 23.1158 48.2753 23.2621C47.9411 23.3921 47.5909 23.5058 47.2407 23.6033C46.8905 23.7008 46.5244 23.782 46.1742 23.847C45.8081 23.9121 45.442 23.9445 45.0918 23.977C44.8372 23.9933 44.5825 24.0095 44.3278 24.0095C43.9617 24.0095 43.5956 23.977 43.2454 23.9445C42.8793 23.912 42.5132 23.8632 42.163 23.782C41.797 23.717 41.4468 23.6195 41.0966 23.5058H41.0806C41.4308 23.4733 41.781 23.4407 42.1312 23.3758C42.4973 23.3108 42.8475 23.2295 43.1977 23.132C43.5478 23.0345 43.898 22.9208 44.2323 22.7908C44.5825 22.6608 44.9167 22.4983 45.2351 22.3358C45.5693 22.1734 45.8718 21.9946 46.1901 21.7996C46.4925 21.5884 46.795 21.3772 47.0815 21.1497C47.368 20.9222 47.6386 20.6785 47.8933 20.4185C48.1639 20.1748 48.4026 19.8985 48.6414 19.6223C48.8802 19.3298 49.103 19.0374 49.3099 18.7449C49.3417 18.6961 49.3736 18.6311 49.4054 18.5824C49.5646 18.3224 49.7238 18.0624 49.867 17.8024C50.0421 17.4775 50.2013 17.1525 50.3446 16.8113C50.4878 16.47 50.6152 16.1288 50.7266 15.7714C50.838 15.4301 50.9176 15.0727 50.9972 14.7152C51.0609 14.3415 51.1245 13.984 51.1563 13.6265C51.1882 13.2528 51.22 12.8791 51.22 12.5216C51.22 12.2616 51.2041 12.0016 51.1882 11.7417C51.1564 11.3679 51.1086 11.0105 51.0609 10.653C50.9972 10.2793 50.9176 9.9218 50.8221 9.56432C50.7107 9.2231 50.5993 8.86563 50.472 8.52441C50.3446 8.18318 50.1854 7.84196 50.0263 7.51698C49.8512 7.192 49.6761 6.86703 49.4851 6.55831C49.2781 6.24958 49.0712 5.9571 48.8484 5.66462C48.6096 5.38839 48.3709 5.11216 48.1162 4.83594C47.9888 4.70595 47.8456 4.55971 47.7023 4.42972C46.986 3.86101 46.2379 3.3248 45.4898 2.83734C45.3784 2.77232 45.2829 2.7236 45.1715 2.67485C44.6462 2.33363 44.1527 2.15488 43.6593 1.9924L43.6593 1.99231Z" fill="#E0234E"/>
</svg>
