
<svg width="65" height="65" viewBox="0 0 65 65" fill="none" xmlns="http://www.w3.org/2000/svg">
  <g clip-path="url(#clip0)">
    <path d="M0.460754 32.1341V64.2682H32.5948H64.7289V32.1341V3.05176e-05H32.5948H0.460754V32.1341ZM52.2527 29.5736C53.8849 29.9816 55.1295 30.7059 56.272 31.8893C56.8637 32.5218 57.741 33.6745 57.8124 33.9499C57.8328 34.0315 55.0377 35.9086 53.3443 36.9593C53.2831 37.0001 53.0382 36.7349 52.7628 36.3268C51.9365 35.1231 51.0694 34.6028 49.7432 34.511C47.7948 34.3784 46.54 35.3985 46.5502 37.1021C46.5502 37.602 46.6216 37.8978 46.8256 38.3059C47.2541 39.1934 48.0498 39.7239 50.5491 40.8052C55.1499 42.7843 57.1187 44.09 58.3429 45.9467C59.7099 48.0175 60.0159 51.3227 59.0876 53.7813C58.0675 56.454 55.5375 58.2698 51.9773 58.8717C50.8755 59.0655 48.264 59.0349 47.0807 58.8207C44.4997 58.3616 42.0514 57.0865 40.5416 55.4135C39.95 54.7606 38.7972 53.057 38.8686 52.9346C38.8992 52.8937 39.1645 52.7305 39.4603 52.5571C39.7459 52.3939 40.8273 51.7716 41.8474 51.1799L43.6938 50.1088L44.0815 50.6801C44.6222 51.5064 45.8055 52.6387 46.5196 53.0162C48.5701 54.0975 51.3856 53.9445 52.773 52.6999C53.3647 52.1593 53.6095 51.5982 53.6095 50.7719C53.6095 50.0272 53.5177 49.7007 53.13 49.1397C52.6302 48.4256 51.61 47.8237 48.7129 46.5689C45.3975 45.1408 43.9693 44.2532 42.6635 42.8455C41.9086 42.0294 41.1945 40.7236 40.8987 39.6321C40.6539 38.7241 40.5926 36.4493 40.7865 35.5311C41.47 32.3279 43.8877 30.0938 47.3765 29.4308C48.5089 29.2165 51.1408 29.2981 52.2527 29.5736ZM37.165 32.2565L37.1854 34.8885H33.0029H28.8204V46.773V58.6575H25.862H22.9036V46.773V34.8885H18.7211H14.5385V32.3075C14.5385 30.8793 14.5691 29.6858 14.6099 29.6552C14.6406 29.6144 19.731 29.594 25.9028 29.6042L37.1344 29.6348L37.165 32.2565Z" fill="#007ACC"/>
  </g>
  <defs>
    <clipPath id="clip0">
      <rect width="64.2682" height="64.2682" fill="white" transform="translate(0.460754)"/>
    </clipPath>
  </defs>
</svg>
