
<svg width="217" height="216" viewBox="0 0 217 216" fill="none" xmlns="http://www.w3.org/2000/svg">
  <path d="M174.661 107.023C170.031 89.647 161.141 75.623 157.091 70.582C149.008 60.591 151.05 51.869 153.73 47.315C156.411 42.761 166.628 37.753 167.586 33.493C168.544 29.233 144.176 13.326 140.605 15.746C137.034 18.166 137.555 31.804 134.32 35.636C119.759 52.886 109.323 44.122 86.5182 46.996C63.7142 49.869 44.2202 59.078 29.5582 81.244C15.3402 102.746 15.2732 127.005 21.6922 147.062C27.4402 164.993 40.5902 180.798 58.7142 191.267C69.948 197.622 82.653 200.916 95.5592 200.821C124.926 200.821 152.747 185.739 168.166 161.615C178.014 146.204 180.198 127.786 174.661 107.023Z" fill="#191919"/>
  <path d="M95.5679 207.543C81.4779 207.639 67.6099 204.032 55.3529 197.082C35.8249 185.806 21.5999 168.765 15.2899 149.112C10.5759 134.441 5.42488 105.544 23.9529 77.539C38.4469 55.625 58.0669 43.794 85.6779 40.332C92.1932 39.5875 98.7623 39.4302 105.306 39.862C116.288 40.332 121.33 40.559 129.094 31.459C129.657 30.359 130.262 26.813 130.632 24.679C131.657 18.704 132.623 13.058 136.883 10.192C140.857 7.529 145.731 9.167 149.966 11.133C153.847 12.9879 157.573 15.1516 161.108 17.603C168.746 22.838 175.619 28.527 174.174 35.005C173.132 39.643 168.981 42.853 164.67 46.214C162.99 47.534 160.133 49.744 159.545 50.734C158.293 52.844 156.049 58.583 162.318 66.33C167.006 72.12 176.241 86.832 181.156 105.259C187.206 127.946 184.744 148.112 173.838 165.203C157.158 191.335 127.17 207.543 95.5679 207.543ZM97.2479 53.079C93.9561 53.0672 90.6669 53.2636 87.3999 53.667C63.9499 56.608 47.3369 66.557 35.1699 84.95C19.7429 108.275 24.1119 132.592 28.0949 145.003C33.3719 161.472 45.4459 175.832 62.0749 185.436C72.2879 191.207 83.8375 194.194 95.5679 194.099C122.632 194.099 148.285 180.268 162.511 157.968C171.308 144.205 173.207 127.643 168.166 108.729C163.67 91.849 154.873 78.479 151.865 74.791C139.942 60.078 145.891 47.407 147.974 43.878C149.857 40.718 153.176 38.139 156.377 35.635C157.217 34.963 158.427 34.039 159.427 33.19C154.849 29.3523 149.845 26.0539 144.513 23.36C144.272 24.5426 144.056 25.7302 143.866 26.922C143.025 31.963 142.185 36.762 139.463 39.979C127.363 54.264 116.356 53.793 104.71 53.289C102.382 53.179 99.8779 53.079 97.2059 53.079H97.2479Z" fill="#191919"/>
  <path d="M174.661 107.023C170.031 89.647 161.141 75.623 157.091 70.582C149.008 60.591 151.05 51.869 153.73 47.315C156.411 42.761 166.628 37.753 167.586 33.493C168.544 29.233 144.176 13.326 140.605 15.746C137.034 18.166 137.555 31.804 134.32 35.636C119.759 52.886 109.323 44.122 86.5182 46.996C63.7142 49.869 44.2202 59.078 29.5582 81.244C15.3402 102.746 15.2732 127.005 21.6922 147.062C27.4402 164.993 40.5902 180.798 58.7142 191.267C69.948 197.622 82.653 200.916 95.5592 200.821C124.926 200.821 152.747 185.739 168.166 161.615C178.014 146.204 180.198 127.786 174.661 107.023Z" fill="white"/>
  <path d="M75.6031 133.021L87.9901 84.227C88.7881 81.152 92.1901 79.522 95.7871 82.664C99.3831 85.807 129.196 117.115 129.196 117.115C129.926 117.873 130.334 118.884 130.335 119.937C130.335 120.989 129.928 122.001 129.199 122.76C128.717 123.263 128.114 123.633 127.448 123.837L80.7551 137.945C80.0609 138.16 79.322 138.185 78.6146 138.019C77.9072 137.852 77.2571 137.5 76.7311 136.999C76.2058 136.497 75.8243 135.863 75.6261 135.163C75.428 134.464 75.4204 133.724 75.6041 133.021H75.6031Z" fill="#191919"/>
  <path d="M28 119C77.3632 89.8308 118.528 148.038 168 119C168 137.565 160.625 155.37 147.497 168.497C134.37 181.625 116.565 189 98 189C79.4348 189 61.6301 181.625 48.5025 168.497C35.375 155.37 28 137.565 28 119Z" fill="#448AFF">
    <animate attributeName="d" repeatCount="indefinite" dur="1s" calcMode="spline" keyTimes="0;0.5;1" values="
    M28 119C77.3632 89.8308 118.528 148.038 168 119C168 137.565 160.625 155.37 147.497 168.497C134.37 181.625 116.565 189 98 189C79.4348 189 61.6301 181.625 48.5025 168.497C35.375 155.37 28 137.565 28 119Z;
    M28 119C77.543 150.527 117.665 88.5892 168 119C168 137.565 160.625 155.37 147.497 168.497C134.37 181.625 116.565 189 98 189C79.4348 189 61.6301 181.625 48.5025 168.497C35.375 155.37 28 137.565 28 119Z;
    M28 119C77.3632 89.8308 118.528 148.038 168 119C168 137.565 160.625 155.37 147.497 168.497C134.37 181.625 116.565 189 98 189C79.4348 189 61.6301 181.625 48.5025 168.497C35.375 155.37 28 137.565 28 119Z"
    keySplines="0.5 0 0.5 1;0.5 0 0.5 1"></animate>
  </path>
  <path opacity="0.2" d="M128.842 120.451C126.657 117.157 120.288 111.62 120.288 111.62C118.509 112.174 116.684 112.568 114.835 112.796C112.499 112.989 105.147 111.174 101.635 111.115C98.122 111.057 90.2069 113.166 87.9219 112.846C85.8288 112.444 83.7695 111.882 81.7619 111.166L76.3769 136.037C75.5949 139.045 78.6289 141.692 83.7959 140.642C88.9639 139.592 127.128 127.038 127.128 127.038C129.968 126.173 131.027 123.736 128.842 120.451Z" fill="#191919"/>
  <path d="M67.4358 87.487C66.4992 86.2699 65.1621 85.4236 63.6613 85.0978C62.1605 84.772 60.5928 84.9878 59.2359 85.707C56.5039 87.202 55.8739 90.655 57.8819 93.386C59.8909 96.116 63.5539 96.932 66.0829 95.201C66.6863 94.79 67.2012 94.2622 67.5971 93.6488C67.9931 93.0354 68.2621 92.3488 68.3882 91.6297C68.5144 90.9106 68.4951 90.1735 68.3315 89.4619C68.1679 88.7504 67.8634 88.0788 67.4358 87.487ZM144.614 90.975C143.956 90.1139 143.015 89.5132 141.957 89.2793C140.899 89.0454 139.792 89.1934 138.833 89.697C136.908 90.747 136.48 93.193 137.883 95.117C138.499 96.0308 139.442 96.673 140.518 96.9107C141.594 97.1484 142.72 96.9634 143.664 96.394C144.086 96.104 144.447 95.7327 144.724 95.3017C145.001 94.8707 145.19 94.3887 145.279 93.884C145.367 93.3791 145.353 92.8617 145.239 92.3621C145.125 91.8625 144.912 91.3906 144.614 90.974V90.975Z" fill="#448AFF"/>
  <path d="M94.5601 170.454C93.8488 169.811 92.933 169.441 91.9748 169.409C91.0166 169.376 90.0779 169.684 89.3251 170.278C88.7927 170.732 88.4255 171.349 88.2806 172.034C88.1357 172.718 88.2213 173.431 88.5241 174.062C88.7241 174.48 89.0161 174.849 89.3751 175.143C90.0582 175.839 90.9828 176.245 91.9574 176.278C92.932 176.311 93.8818 175.967 94.6101 175.319C94.9311 174.999 95.1847 174.618 95.3561 174.198C95.5275 173.779 95.6132 173.329 95.6081 172.876C95.6032 172.423 95.508 171.975 95.3278 171.559C95.1477 171.143 94.8863 170.768 94.5591 170.454H94.5601ZM109.171 155.279C107.157 155.442 105.265 156.312 103.832 157.737C102.399 159.161 101.516 161.047 101.34 163.06C101.055 167.135 104.449 170.261 108.903 170.009C113.356 169.757 116.86 166.253 116.734 162.228C116.705 161.272 116.484 160.331 116.086 159.461C115.688 158.59 115.12 157.809 114.416 157.161C113.711 156.514 112.884 156.014 111.984 155.69C111.083 155.367 110.127 155.227 109.171 155.279ZM48.8241 120.308C47.6793 120.268 46.5384 120.462 45.4705 120.876C44.4026 121.29 43.4299 121.917 42.6114 122.718C41.7928 123.519 41.1454 124.478 40.7084 125.537C40.2714 126.596 40.0539 127.733 40.0691 128.878C40.1574 131.281 41.1662 133.558 42.8867 135.238C44.6072 136.918 46.9077 137.872 49.3121 137.903H50.4381C55.4791 138.012 59.1681 134.147 58.6301 129.315C58.2895 126.911 57.1261 124.7 55.3381 123.058C53.5501 121.415 51.2481 120.444 48.8241 120.308Z" fill="white"/>
  <path d="M147.512 7.10899C144.151 10.411 144.378 19.065 142.269 25.771C140.16 32.476 151.588 39.853 155.537 37.241C159.486 34.627 169.947 27.039 172.199 22.956C174.451 18.872 150.84 3.81499 147.512 7.10899Z" fill="#448AFF"/>
</svg>


<svg xmlns="http://www.w3.org/2000/svg" xmlns:xlink="http://www.w3.org/1999/xlink" width="227" height="181" viewBox="0 0 227 181">
  <defs>
    <clipPath id="clip-Personalizado_3">
      <rect width="227" height="181"/>
    </clipPath>
  </defs>
  <g id="Personalizado_3" data-name="Personalizado – 3" clip-path="url(#clip-Personalizado_3)">
    <g id="Grupo_8" data-name="Grupo 8" transform="matrix(0, -0.454, 1, 0, 3.331, 134.343)">
      <path id="Caminho_5" data-name="Caminho 5" d="M92.695,38.924l71.418,71.417L92.695,181.758l28.284,28.285,99.7-99.7-99.7-99.7Z">
        <animate attributeName="d" repeatCount="indefinite" dur="1s" calcMode="spline" keyTimes="0;0.5;1" values="
          M26.583,198.051l93.706-93.706L26.583,10.639,0,37.223l67.122,67.122L0,171.467Z;
          M28.284,210.043l99.7-99.7-99.7-99.7L0,38.924l71.417,71.417L0,181.758Z;
          M26.583,198.051l93.706-93.706L26.583,10.639,0,37.223l67.122,67.122L0,171.467Z
          "
          keySplines="0.5 0 0.5 1;0.5 0 0.5 1"></animate>
      </path>
      <path id="Caminho_6" data-name="Caminho 6" d="M28.284,210.043l99.7-99.7-99.7-99.7L0,38.924l71.417,71.417L0,181.758Z"/>
    </g>
  </g>
</svg>



<svg xmlns="http://www.w3.org/2000/svg" xmlns:xlink="http://www.w3.org/1999/xlink" width="227" height="120" viewBox="0 0 227 120">
  <defs>
    <clipPath id="clip-Personalizado_3">
      <rect width="227" height="120"/>
    </clipPath>
  </defs>
  <g id="Personalizado_3" data-name="Personalizado – 3" clip-path="url(#clip-Personalizado_3)">
    <g id="Grupo_8" data-name="Grupo 8" transform="matrix(0, -0.454, 1, 0, 12.89, 29.149)">
    <animate attributeName="d" repeatCount="indefinite" dur="1s" calcMode="spline" keyTimes="0;0.5;1" values="
          M28.284,210.043l99.7-99.7-99.7-99.7L0,38.924l71.417,71.417L0,181.758Z;
          M92.695,38.924l71.418,71.417L92.695,181.758l28.284,28.285,99.7-99.7-99.7-99.7Z;
          M28.284,210.043l99.7-99.7-99.7-99.7L0,38.924l71.417,71.417L0,181.758Z
          "
          keySplines="0.5 0 0.5 1;0.5 0 0.5 1"></animate>
      <path id="Caminho_6" data-name="Caminho 6" d="M26.583,198.051l93.706-93.706L26.583,10.639,0,37.223l67.122,67.122L0,171.467Z" transform="translate(-59.283 -1.897)"/>
    </g>
  </g>
</svg>




