<svg width="490" height="514" fill="none" xmlns="http://www.w3.org/2000/svg"><path d="M209.799 208.977l-21.469-29.55M209.799 208.977h69.476M209.799 208.977l-21.469 66.076M209.799 208.977l-21.469-29.55M188.33 179.427l56.207-18.263M188.33 179.427l-34.738 47.813M188.33 179.427l-34.738-47.813M279.275 208.977l21.469-29.55M279.275 208.977l21.469 66.076M279.275 208.977l21.469-29.55M244.537 161.164l56.207 18.263M244.537 161.164v36.526M244.537 161.164v-59.099M300.744 179.427l34.738 47.813M300.744 179.427l34.738-47.813M188.33 334.152l56.207 18.263M188.33 334.152l-34.738-47.813M188.33 334.153l21.469-29.55M188.33 334.152l-34.738 47.813M244.537 352.416V315.89M244.537 352.415l56.207-18.263M244.537 352.415v59.1M188.33 275.053l-34.738 11.287M188.33 275.053l56.207 40.837M188.33 275.053l-34.738 11.287M153.592 286.339V227.24M153.592 286.339l-56.208 18.263M244.537 315.89l56.207-40.837M244.537 315.89v36.526M279.275 304.603h-69.476M279.275 304.603l21.469 29.55M279.275 304.603l21.469-66.076M279.275 304.603l21.469 29.55M209.799 304.603l-21.469-66.076M209.799 304.603l-21.469 29.55M300.744 334.152l34.738-47.813M300.744 334.152l34.738 47.813M153.592 227.24l34.738 11.287M153.592 227.24l-56.208-18.263M300.744 275.053l34.738 11.287M300.744 275.053l34.738 11.287M300.744 238.527l-56.207-40.837M300.744 238.527l34.738-11.287M300.744 238.527l34.738-11.287M188.33 238.527l56.207-40.837M188.33 238.527l-34.738-11.287M244.537 197.69v-36.526M335.482 286.339V227.24M335.482 286.339l56.208 18.263M335.482 227.24l56.208-18.263M188.33 83.802l56.207 18.263M188.33 83.802l-34.738 47.813M188.33 83.802l21.469-29.55M188.33 83.801l-34.738-11.287M244.537 102.065v59.099M244.537 102.065l56.207-18.263M188.33 179.427l-34.738-47.813M188.33 179.427l56.207-18.263M188.33 179.427l-34.738 47.813M153.592 131.614l-56.208 18.262M244.537 161.164l56.207 18.263M244.537 161.164v36.526M279.275 54.252h-69.476M279.275 54.252l21.469 29.55M279.275 54.252l21.469 29.55M279.275 54.251l21.469-29.55M209.799 54.252l-21.469 29.55M209.799 54.251l-21.469-29.55M300.744 83.802l34.738 47.813M300.744 83.801l34.738-11.287M153.592 131.615l34.738-47.813M153.592 131.614l-56.208 18.262M300.744 179.427l34.738-47.813M300.744 179.427l34.738 47.813M300.744 83.802l-56.207 18.263M300.744 83.802l34.738 47.813M300.744 83.801l34.738-11.287M188.33 83.802l56.207 18.263M188.33 83.801l-34.738-11.287M335.482 131.614l56.208 18.262M335.482 131.614l56.208 18.262M391.69 149.876l-56.208-18.262M391.69 149.877l34.737 11.287M391.69 149.877v59.1M391.69 149.877v-36.526M335.482 131.614l-34.738 47.813M335.482 131.615l-34.738-47.813M426.427 161.164l-34.737-11.287M426.427 161.164l21.47 66.076M426.427 161.164l21.47-29.55M335.482 131.614l56.208 18.262M335.482 131.614l-34.738 47.813M335.482 131.615l-34.738-47.813M391.69 149.877v59.1M391.69 149.877v-36.526M335.482 286.339l56.208 18.263M335.482 286.339V227.24M335.482 286.34l-34.738-11.287M335.482 286.339l-34.738 47.813M391.69 304.603l34.737-47.813M391.69 304.603v59.1M391.69 208.977l-56.208 18.263M391.69 208.977l34.737 47.813M335.482 227.24l-34.738-47.813M335.482 227.24l-34.738 11.287M426.427 256.79l21.47-29.55M426.427 256.79l21.47 29.55M335.482 286.34l-34.738-11.287M335.482 286.339l56.208 18.263M335.482 286.339V227.24M335.482 286.339l-34.738 47.813M300.744 275.053l-21.469-66.076M300.744 275.053l-56.207 40.837M391.69 304.603l34.737-47.813M391.69 304.603v59.1M300.744 179.427l-21.469 29.55M300.744 179.427l-56.207-18.263M447.897 227.24l-21.47 29.55M447.897 227.24l34.738 11.287M335.482 227.24l-34.738-47.813M335.482 227.24l56.208-18.263M279.275 208.977l21.469-29.55M279.275 208.977h-69.476M300.744 179.427l-56.207-18.263M426.427 256.79l-34.737-47.813M426.427 256.79l21.47 29.55M335.482 35.989l56.208 18.263M335.482 35.989v36.526M335.482 35.988l-34.738-11.287M335.482 35.988l-34.738-11.287M391.69 54.252l34.737 47.813M391.69 113.351l-56.208-40.837M391.69 113.352l34.737-11.287M391.69 113.351v36.526M335.482 72.514l-34.738 11.287M335.482 72.514l-34.738 11.287M426.427 102.065l21.47 29.55M426.427 102.065l21.47 29.55M335.482 35.988l-34.738-11.287M335.482 35.989l56.208 18.263M335.482 35.989v36.526M335.482 35.988l-34.738-11.287M300.744 24.701l-21.469 29.55M300.744 24.701L244.537 6.439M391.69 54.252l34.737 47.813M300.744 83.802l-21.469-29.55M300.744 83.802l-56.207 18.263M447.897 131.615l-21.47-29.55M447.897 131.614l34.738 47.813M335.482 72.514l-34.738 11.287M335.482 72.514l56.208 40.837M279.275 54.252l21.469 29.55M279.275 54.252h-69.476M300.744 83.802l-56.207 18.263M426.427 102.065l-34.737 11.287M426.427 102.065l21.47 29.55M391.69 113.351v36.526M97.384 363.702l-34.737-11.287M97.384 363.703l56.208 18.262M97.384 363.703v36.526M97.384 363.703v-59.1M62.647 352.415l34.737 11.287M62.647 352.415l-21.47 29.55M62.647 352.415l-21.47-66.076M153.592 381.965l34.738 47.813M153.592 381.965l34.738-47.813M97.384 363.703l56.208 18.262M97.384 363.703v36.526M97.384 363.703v-59.1M153.592 381.965l34.738 47.813M153.592 381.965l34.738-47.813M97.384 459.328l56.208 18.263M97.384 459.327l-34.737-47.812M153.592 477.591v-36.526M153.592 477.591l34.738 11.287M153.592 477.591l34.738 11.287M97.384 400.228l-34.737 11.287M97.384 400.228l56.208 40.837M97.384 400.229v-36.526M62.647 411.515l-21.47-29.55M62.647 411.515l-21.47-29.55M153.592 441.065l34.738-11.287M153.592 441.065l34.738-11.287M153.592 477.591l-56.208-18.263M153.592 477.591l34.738 11.287M153.592 477.591v-36.526M153.592 477.591l34.738 11.287M97.384 459.327l-34.737-47.812M188.33 488.878l21.469-29.55M188.33 488.878l56.207 18.262M41.177 381.965l21.47 29.55M41.177 381.965L6.439 334.152M188.33 429.778l21.469 29.55M188.33 429.777l56.207-18.262M153.592 441.065l-56.208-40.837M153.592 441.065l34.738-11.287M153.592 441.065l34.738-11.287M62.647 411.515l34.737-11.287M62.647 411.515l-21.47-29.55M97.384 400.229v-36.526M209.799 459.328l-21.469-29.55M209.799 459.328h69.476M188.33 429.777l56.207-18.262M97.384 208.977l56.208 18.263M97.384 208.977L62.647 256.79M97.384 208.977v-59.1M153.592 227.24v59.099M153.592 227.24l34.738 11.287M153.592 227.24l34.738-47.813M97.384 304.603L62.647 256.79M97.384 304.602l56.208-18.263M62.647 256.79l-21.47 29.55M62.647 256.79l-21.47-29.55M153.592 286.339l34.738 47.813M153.592 286.34l34.738-11.287M153.592 227.24l-56.208-18.263M153.592 227.24l34.738 11.287M153.592 227.24v59.099M153.592 227.24l34.738-47.813M97.384 208.977L62.647 256.79M97.384 208.977v-59.1M188.33 238.527l21.469 66.076M188.33 238.527l56.207-40.837M41.177 286.34l21.47-29.55M41.177 286.34L6.439 275.053M188.33 334.153l21.469-29.55M188.33 334.152l56.207 18.263M153.592 286.339l-56.208 18.263M153.592 286.339l34.738 47.813M153.592 286.34l34.738-11.287M62.647 256.79l34.737 47.813M62.647 256.79l-21.47-29.55M209.799 304.603l-21.469 29.55M209.799 304.603h69.476M188.33 334.152l56.207 18.263M279.275 304.603h-69.476M279.275 304.603l21.469 29.55M279.275 304.603l21.469 29.55M279.275 304.603l21.469-66.076M209.799 304.603l-21.469 29.55M209.799 304.603l-21.469 29.55M209.799 304.603l-21.469-66.076M300.744 334.152l-56.207 18.263M300.744 334.152l34.738 47.813M300.744 334.152l34.738-47.813M188.33 334.152l56.207 18.263M188.33 334.152l-34.738 47.813M188.33 334.152l-34.738-47.813M244.537 352.415v59.1M244.537 352.416V315.89M244.537 411.515l56.207 18.262M244.537 411.515v-59.1M244.537 411.515l-56.207 18.262M300.744 429.778l34.738-47.813M300.744 429.778l-21.469 29.55M300.744 429.778l34.738 11.287M300.744 334.152l-56.207 18.263M300.744 334.152l34.738 47.813M300.744 334.152l34.738-47.813M244.537 352.415l-56.207-18.263M244.537 352.416V315.89M335.482 381.965l56.208-18.262M209.799 459.328l-21.469-29.55M209.799 459.328h69.476M209.799 459.328l-21.469-29.55M209.799 459.328l-21.469 29.55M188.33 429.778l-34.738-47.813M188.33 429.778l-34.738 11.287M279.275 459.328l21.469-29.55M279.275 459.328l21.469 29.55M188.33 334.152l-34.738 47.813M188.33 334.152l-34.738-47.813M335.482 381.965l-34.738 47.813M335.482 381.965l56.208-18.262M188.33 429.778l-34.738-47.813M188.33 429.777l56.207-18.262M153.592 381.965l-56.208-18.262M153.592 381.965l-56.208-18.262M300.744 429.777l-56.207-18.262M300.744 429.778l34.738 11.287M244.537 161.164l56.207 18.263M244.537 161.164v36.526M244.537 161.164l-56.207 18.263M244.537 161.164v-59.099M300.744 179.427l34.738 47.813M300.744 179.427l-21.469 29.55M300.744 179.427l34.738-47.813M300.744 238.527l-56.207-40.837M300.744 238.527l34.738-11.287M300.744 238.527l34.738-11.287M244.537 197.69l-56.207 40.837M244.537 197.69v-36.526M335.482 227.24v59.099M335.482 227.24l56.208-18.263M209.799 208.977l-21.469-29.55M209.799 208.977h69.476M209.799 208.977l-21.469 66.076M209.799 208.977l-21.469-29.55M188.33 179.427l-34.738 47.813M188.33 179.427l-34.738-47.813M279.275 208.977l21.469 66.076M279.275 208.977l21.469-29.55M188.33 238.527l-34.738-11.287M188.33 238.527l-34.738-11.287M335.482 286.34l-34.738-11.287M335.482 286.339l56.208 18.263M188.33 275.053l-34.738 11.287M188.33 275.053l56.207 40.837M153.592 227.24v59.099M153.592 227.24l-56.208-18.263M153.592 286.339l-56.208 18.263M300.744 275.053l-56.207 40.837M300.744 275.053l34.738 11.287M244.537 315.89v36.526M153.592 441.065l-56.208-40.837M153.592 441.065l34.738-11.287M153.592 441.065l34.738-11.287M153.592 441.065v36.526M97.384 400.229v-36.526M97.384 400.229v-36.526M97.384 400.228l-34.737 11.287M188.33 429.778l-34.738-47.813M188.33 429.777l56.207-18.262M188.33 429.778l21.469 29.55M97.384 363.703l56.208 18.262M97.384 363.703v-59.1M97.384 363.702l-34.737-11.287M153.592 381.965l34.738-47.813M188.33 429.778l-34.738-47.813M188.33 429.777l56.207-18.262M188.33 429.778l21.469 29.55M153.592 381.965l-56.208-18.262M244.537 411.515l56.207 18.262M153.592 286.339l-56.208 18.263M153.592 286.339l34.738 47.813M153.592 286.339V227.24M97.384 304.603v59.1M97.384 304.603L62.647 256.79M97.384 304.603L62.647 256.79M244.537 352.415l-56.207-18.263M244.537 352.415v59.1M244.537 352.415l56.207-18.263M188.33 334.153l21.469-29.55M97.384 363.702l-34.737-11.287M244.537 411.515l56.207 18.262M153.592 131.614l-56.208 18.262M153.592 131.614l34.738 47.813M153.592 131.615l34.738-47.813M97.384 149.877v59.1M97.384 149.877v-36.526M97.384 149.877l-34.737 11.287M188.33 179.427l-34.738 47.813M188.33 179.427l56.207-18.263M188.33 179.427l21.469 29.55M97.384 208.977l56.208 18.263M97.384 208.977L62.647 256.79M153.592 227.24l34.738 11.287M153.592 227.24v59.099M188.33 83.801l-34.738-11.287M188.33 83.802l56.207 18.263M188.33 83.802l21.469-29.55M153.592 72.514l-56.208 40.837M153.592 72.515V35.989M244.537 102.065v59.099M244.537 102.065l56.207-18.263M153.592 227.24l-56.208-18.263M153.592 227.24l34.738 11.287M97.384 149.877v59.1M97.384 149.877v-36.526M97.384 149.877l-34.737 11.287M97.384 208.977L62.647 256.79M244.537 197.69l-56.207 40.837M244.537 197.69v-36.526M244.537 197.69l56.207 40.837M188.33 238.527l21.469 66.076M97.384 113.352l-34.737-11.287M244.537 161.164l56.207 18.263M335.482 381.965l-34.738-47.813M335.482 381.965l56.208-18.262M335.482 381.965l-34.738 47.813M300.744 334.152l34.738-47.813M300.744 334.153l-21.469-29.55M300.744 334.152l-56.207 18.263M391.69 363.703v-59.1M391.69 363.702l34.737-11.287M391.69 363.703v36.526M335.482 286.339l56.208 18.263M335.482 286.339V227.24M335.482 286.34l-34.738-11.287M391.69 304.603l34.737-47.813M335.482 381.965l-34.738-47.813M335.482 381.965l56.208-18.262M335.482 381.965l-34.738 47.813M300.744 334.153l-21.469-29.55M300.744 334.152l-56.207 18.263M391.69 363.702l34.737-11.287M391.69 363.703v36.526M391.69 208.977l-56.208 18.263M391.69 208.977l34.737 47.813M391.69 208.977v-59.1M300.744 238.527l34.738-11.287M300.744 238.527l-21.469 66.076M300.744 238.527l-56.207-40.837M335.482 227.24l-34.738-47.813M447.897 286.34l-21.47-29.55M447.897 286.339l-21.47 66.076M447.897 286.34l34.738-11.287M426.427 256.79l21.47-29.55M279.275 304.603h-69.476M426.427 352.415l21.47 29.55M335.482 72.514l-34.738 11.287M335.482 72.514l56.208 40.837M335.482 72.515V35.989M335.482 72.514l-34.738 11.287M300.744 83.802l34.738 47.813M300.744 83.802l-21.469-29.55M300.744 83.802l-56.207 18.263M391.69 113.351v36.526M391.69 113.352l34.737-11.287M391.69 113.351v36.526M335.482 131.614l56.208 18.262M335.482 131.614l-34.738 47.813M391.69 149.877l34.737 11.287M391.69 149.877v59.1M335.482 35.988l-34.738-11.287M335.482 35.989l56.208 18.263M335.482 35.988l-34.738-11.287M300.744 24.701l-21.469 29.55M300.744 24.701L244.537 6.439M391.69 54.252l34.737 47.813M391.69 149.876l-56.208-18.262M391.69 149.877l34.737 11.287M300.744 83.802l34.738 47.813M300.744 83.802l-21.469-29.55M300.744 83.802l-56.207 18.263M335.482 131.614l-34.738 47.813M447.897 131.614l-21.47 29.55M447.897 131.615l-21.47-29.55M447.897 131.614l34.738 47.813M426.427 161.164l21.47 66.076M279.275 54.252h-69.476M426.427 102.065l21.47 29.55M153.592 477.591l-56.208-18.263M153.592 477.591l34.738 11.287M153.592 477.591l34.738 11.287M97.384 459.327l-34.737-47.812M188.33 488.878l21.469-29.55M188.33 488.878l56.207 18.262M97.384 363.702l-34.737-11.287M97.384 363.703l56.208 18.262M97.384 363.703v-59.1M41.177 381.965l21.47-29.55M41.177 381.965l21.47 29.55M41.177 381.965L6.439 334.152M62.647 352.415l-21.47-66.076M188.33 429.778l-34.738-47.813M188.33 429.778l21.469 29.55M188.33 429.777l56.207-18.262M153.592 381.965l34.738-47.813M62.647 411.515l-21.47-29.55M209.799 459.328h69.476M153.592 131.614l-56.208 18.262M153.592 131.614l34.738 47.813M153.592 131.615l34.738-47.813M97.384 149.877l-34.737 11.287M97.384 149.877v-36.526M188.33 179.427l21.469 29.55M188.33 179.427l56.207-18.263M97.384 304.603L62.647 256.79M97.384 304.602l56.208-18.263M41.177 227.24l21.47 29.55M41.177 227.24l21.47-66.076M41.177 227.24L6.439 238.527M62.647 256.79l-21.47 29.55M188.33 275.053l-34.738 11.287M188.33 275.053l21.469-66.076M188.33 275.053l56.207 40.837M153.592 286.339l34.738 47.813M62.647 161.164l-21.47-29.55M209.799 208.977h69.476M300.744 429.777l-56.207-18.262M300.744 429.778l34.738 11.287M300.744 429.778l-21.469 29.55M244.537 411.515v-59.1M244.537 411.515l-56.207 18.262M335.482 441.065l56.208-40.837M335.482 441.065v36.526M335.482 286.34l-34.738-11.287M335.482 286.339l56.208 18.263M335.482 286.339V227.24M244.537 315.89l56.207-40.837M244.537 315.89v36.526M244.537 315.89l-56.207-40.837M300.744 275.053l-21.469-66.076M391.69 363.703v-59.1M391.69 363.703v36.526M391.69 363.702l34.737-11.287M391.69 304.603l34.737-47.813M244.537 352.415l-56.207-18.263M391.69 400.228l34.737 11.287M300.744 83.802l-56.207 18.263M300.744 83.802l34.738 47.813M300.744 83.802l-21.469-29.55M244.537 102.065L188.33 83.802M335.482 131.614l56.208 18.262M335.482 227.24l-34.738-47.813M335.482 227.24l56.208-18.263M244.537 161.164l56.207 18.263M244.537 161.164v-59.099M244.537 161.164l-56.207 18.263M300.744 179.427l-21.469 29.55M391.69 208.977v-59.1M391.69 208.977l34.737 47.813M391.69 208.977l34.737 47.813M244.537 102.065L188.33 83.802M391.69 149.877l34.737 11.287M300.744 334.152l-56.207 18.263M300.744 334.152l34.738 47.813M244.537 352.415v59.1M244.537 352.415l-56.207-18.263M244.537 352.416V315.89M335.482 381.965l-34.738 47.813M335.482 381.965l56.208-18.262M244.537 411.515l56.207 18.262M244.537 411.515l-56.207 18.262M300.744 429.778l-21.469 29.55M300.744 429.778l34.738 11.287M188.33 334.152l-34.738 47.813M188.33 334.152l-34.738-47.813M335.482 381.965l-34.738 47.813M335.482 381.965l56.208-18.262M209.799 459.328l-21.469-29.55M209.799 459.328h69.476M209.799 459.328l-21.469 29.55M153.592 381.965l34.738 47.813M153.592 381.965l-56.208-18.262M188.33 429.778l-34.738 11.287M300.744 429.778l-21.469 29.55M300.744 429.778l34.738 11.287M279.275 459.328l21.469 29.55M300.744 24.701L244.537 6.439M300.744 24.701l34.738 11.287M244.537 6.439L188.33 24.701M335.482 35.988l-34.738-11.287M335.482 35.989v36.526M335.482 35.989l56.208 18.263M244.537 6.439l56.207 18.262M244.537 6.439L188.33 24.701M300.744 24.701l-21.469 29.55M300.744 24.701l34.738 11.287M188.33 24.701l-34.738 11.287M188.33 24.701l-34.738 11.287M335.482 72.514l-34.738 11.287M335.482 72.514l56.208 40.837M209.799 54.251l-21.469-29.55M209.799 54.252h69.476M209.799 54.252l-21.469 29.55M153.592 35.988l34.738-11.287M153.592 35.989L97.384 54.252M188.33 24.701l-34.738 11.287M300.744 83.802l-21.469-29.55M300.744 83.802l34.738 47.813M279.275 54.252l21.469 29.55M244.537 315.89v36.526M244.537 315.89l-56.207-40.837M391.69 363.703v36.526M391.69 363.702l34.737-11.287M300.744 429.777l-56.207-18.262M300.744 429.778l34.738 11.287M300.744 429.778l-21.469 29.55M244.537 352.415v59.1M244.537 352.415l-56.207-18.263M244.537 411.515l-56.207 18.262M391.69 400.228l-56.208 40.837M391.69 400.228l34.737 11.287M335.482 441.065v36.526M244.537 6.439L188.33 24.701M391.69 54.252l34.737 47.813M300.744 24.701L244.537 6.439M300.744 24.701l34.738 11.287M300.744 24.701l-21.469 29.55M244.537 6.439L188.33 24.701M244.537 6.439L188.33 24.701M391.69 54.252l-56.208-18.263M391.69 54.252l34.737 47.813M335.482 35.989v36.526M188.33 488.878l-34.738-11.287M188.33 488.878l56.207 18.262M153.592 477.591l34.738 11.287M153.592 477.591l-56.208-18.263M153.592 477.591v-36.526M244.537 507.14l56.207-18.262M188.33 488.878l56.207 18.262M188.33 488.878l-34.738-11.287M188.33 488.878l21.469-29.55M244.537 507.14l56.207-18.262M97.384 459.327l-34.737-47.812M244.537 507.14l56.207-18.262M188.33 488.878l-34.738-11.287M188.33 488.878l56.207 18.262M97.384 459.328l56.208 18.263M97.384 459.327l-34.737-47.812M153.592 477.591v-36.526M244.537 507.14l56.207-18.262M244.537 507.14l56.207-18.262M188.33 179.427l-34.738-47.813M188.33 179.427l56.207-18.263M153.592 131.615l34.738-47.813M153.592 131.614l-56.208 18.262M244.537 161.164v-59.099M244.537 161.164v36.526M244.537 161.164l56.207 18.263M188.33 83.802l56.207 18.263M188.33 83.801l-34.738-11.287M188.33 83.802l21.469-29.55M244.537 102.065l56.207-18.263M97.384 149.877v-36.526M97.384 149.877l-34.737 11.287M244.537 197.69v-36.526M244.537 197.69l56.207 40.837M188.33 83.801l-34.738-11.287M188.33 83.802l56.207 18.263M97.384 113.351l56.208-40.837M97.384 113.352l-34.737-11.287M153.592 72.515V35.989M244.537 161.164v-59.099M244.537 161.164l56.207 18.263M244.537 102.065l56.207-18.263M153.592 441.065l34.738-11.287M153.592 441.065l-56.208-40.837M300.744 488.878l34.738-11.287M300.744 488.878l34.738-11.287M279.275 459.328h-69.476M279.275 459.328l21.469 29.55M188.33 429.778l21.469 29.55M188.33 429.778l-34.738-47.813M209.799 459.328l-21.469-29.55M335.482 477.591l-34.738 11.287M335.482 477.591l56.208-18.263M300.744 488.878l34.738-11.287M153.592 131.615l34.738-47.813M153.592 131.614l-56.208 18.262M300.744 179.427l34.738-47.813M300.744 179.427l34.738 47.813M279.275 54.252h-69.476M279.275 54.252l21.469 29.55M188.33 83.802l21.469-29.55M188.33 83.801l-34.738-11.287M209.799 54.251l-21.469-29.55M335.482 131.615l-34.738-47.813M335.482 131.614l56.208 18.262M300.744 83.801l34.738-11.287M97.384 208.977v-59.1M97.384 208.977L62.647 256.79M97.384 149.877l-34.737 11.287M97.384 149.877v-36.526M41.177 227.24l21.47 29.55M41.177 227.24l21.47 29.55M41.177 227.24l21.47-66.076M41.177 227.24L6.439 238.527M62.647 256.79l-21.47 29.55M62.647 256.79l-21.47 29.55M62.647 161.164l-21.47-29.55M335.482 286.339V227.24M335.482 286.339l-34.738 47.813M335.482 286.339l56.208 18.263M335.482 227.24l-34.738 11.287M335.482 227.24l56.208-18.263M279.275 304.603h-69.476M279.275 304.603l21.469 29.55M279.275 304.603l21.469-66.076M279.275 304.603l21.469 29.55M209.799 304.603l-21.469 29.55M300.744 334.152l34.738 47.813M300.744 238.527l34.738-11.287M244.537 161.164v-59.099M244.537 161.164v36.526M244.537 161.164l-56.207 18.263M244.537 102.065L188.33 83.802M244.537 161.164l56.207 18.263M244.537 161.164v36.526M244.537 161.164v-59.099M244.537 161.164l-56.207 18.263M300.744 179.427l-21.469 29.55M244.537 197.69l-56.207 40.837M244.537 102.065L188.33 83.802M482.635 238.526v-59.099M482.635 238.527v36.526M482.635 238.527v36.526M482.635 238.527l-34.738-11.287M482.635 238.527v36.526M482.635 238.526v-59.099M482.635 238.527v36.526M447.897 227.24l-21.47 29.55M482.635 275.053v59.099M6.439 334.152v-59.099M6.439 275.053v-36.526M6.439 275.053v-36.526M6.439 275.053l34.738 11.287M6.439 275.053v59.099M6.439 275.053v-36.526M6.439 275.053v-36.526M6.439 238.526v-59.099M244.537 411.515v-59.1M244.537 411.515l56.207 18.262M244.537 352.416V315.89M244.537 352.415l56.207-18.263M244.537 352.415l-56.207-18.263M244.537 352.415v59.1M244.537 352.416V315.89M244.537 352.415l56.207-18.263M244.537 411.515l56.207 18.262M244.537 315.89l56.207-40.837M153.592 286.339V227.24M153.592 286.34l34.738-11.287M153.592 286.339l-56.208 18.263M153.592 227.24l34.738-47.813M153.592 227.24l-56.208-18.263M209.799 208.977h69.476M209.799 208.977l-21.469 66.076M209.799 208.977l-21.469-29.55M209.799 208.977l-21.469-29.55M188.33 275.053l-34.738 11.287M188.33 179.427l-34.738-47.813M391.69 363.703v-59.1M391.69 363.702l34.737-11.287M391.69 363.703v36.526M391.69 304.603l34.737-47.813M447.897 286.34l-21.47-29.55M447.897 286.339l-21.47 66.076M447.897 286.34l-21.47-29.55M447.897 286.34l34.738-11.287M426.427 352.415l21.47 29.55M426.427 256.79l21.47-29.55M188.33 179.427l56.207-18.263M188.33 179.427l-34.738 47.813M188.33 179.427l21.469 29.55M188.33 179.427l-34.738-47.813M244.537 161.164v-59.099M153.592 227.24v59.099M153.592 227.24l-56.208-18.263M209.799 208.977l-21.469 66.076M209.799 208.977l-21.469-29.55M153.592 286.34l34.738-11.287M153.592 286.339l-56.208 18.263M188.33 275.053l-34.738 11.287M426.427 256.79l-34.737-47.813M426.427 256.79l-34.737 47.813M426.427 256.79l21.47 29.55M426.427 256.79l21.47-29.55M391.69 208.977v-59.1M391.69 304.603v59.1M447.897 286.339l-21.47 66.076M447.897 286.34l34.738-11.287M391.69 363.702l34.737-11.287M391.69 363.703v36.526M426.427 352.415l21.47 29.55M188.33 83.802l56.207 18.263M188.33 83.801l-34.738-11.287M188.33 83.802l21.469-29.55M188.33 83.802l-34.738 47.813M153.592 72.515V35.989M153.592 72.514l-56.208 40.837M209.799 54.251l-21.469-29.55M209.799 54.252l-21.469 29.55M153.592 35.988l34.738-11.287M153.592 35.989L97.384 54.252M188.33 24.701l-34.738 11.287M426.427 161.164l-34.737-11.287M426.427 161.164l-34.737-11.287M426.427 161.164l21.47-29.55M426.427 161.164l21.47 66.076M391.69 149.877v-36.526M391.69 149.877v59.1M447.897 131.615l-21.47-29.55M447.897 131.614l34.738 47.813M391.69 113.352l34.737-11.287M391.69 113.351v36.526M426.427 102.065l21.47 29.55M62.647 352.415l34.737 11.287M62.647 352.415l-21.47 29.55M62.647 352.415l34.737 11.287M62.647 352.415l-21.47-66.076M97.384 363.703v-59.1M41.177 381.965l21.47 29.55M41.177 381.965L6.439 334.152M97.384 363.703v36.526M97.384 363.703v-59.1M62.647 411.515l34.737-11.287M62.647 411.515l-21.47-29.55M97.384 400.229v-36.526M300.744 429.777l-56.207-18.262M300.744 429.778l-21.469 29.55M300.744 429.778l34.738 11.287M300.744 429.778l34.738-47.813M244.537 411.515v-59.1M279.275 459.328l21.469 29.55M279.275 459.328l21.469-29.55M335.482 441.065v36.526M335.482 441.065l56.208-40.837M300.744 488.878l34.738-11.287M300.744 488.878l34.738-11.287M335.482 477.591l56.208-18.263M62.647 256.79l34.737 47.813M62.647 256.79l-21.47-29.55M62.647 256.79l34.737-47.813M62.647 256.79l-21.47 29.55M41.177 227.24l21.47-66.076M41.177 227.24L6.439 238.527M97.384 208.977v-59.1M62.647 161.164l34.737-11.287M62.647 161.164l-21.47-29.55M97.384 149.877v-36.526M300.744 334.152l-56.207 18.263M300.744 334.153l-21.469-29.55M300.744 334.152l34.738-47.813M300.744 334.152l34.738 47.813M279.275 304.603l21.469-66.076M279.275 304.603l21.469 29.55M335.482 286.339V227.24M335.482 286.339l56.208 18.263M300.744 238.527l34.738-11.287M300.744 238.527l34.738-11.287M335.482 227.24l56.208-18.263M62.647 352.415l-21.47 29.55M62.647 352.415l34.737 11.287M62.647 352.415l-21.47-66.076M41.177 381.965l21.47 29.55M41.177 381.965L6.439 334.152M97.384 400.228l56.208 40.837M97.384 400.229v-36.526M97.384 400.228l-34.737 11.287M97.384 400.229v-36.526M153.592 441.065l34.738-11.287M97.384 363.703v-59.1M62.647 411.515l-21.47-29.55M300.744 429.778l-21.469 29.55M300.744 429.778l34.738 11.287M300.744 429.778l34.738-47.813M279.275 459.328l21.469 29.55M279.275 459.328l21.469-29.55M335.482 477.591l-34.738 11.287M335.482 477.591v-36.526M335.482 477.591l-34.738 11.287M335.482 477.591l56.208-18.263M300.744 488.878l34.738-11.287M335.482 441.065l56.208-40.837M300.744 488.878l34.738-11.287M62.647 102.065l-21.47 29.55M62.647 102.065l34.737-47.813M62.647 102.065l-21.47 29.55M41.177 131.615l21.47-29.55M41.177 131.614L6.439 179.427M97.384 54.252l56.208-18.263M97.384 54.252l-34.737 47.813M153.592 35.988l34.738-11.287M62.647 102.065l-21.47 29.55M300.744 179.427l-21.469 29.55M300.744 179.427l34.738-47.813M300.744 179.427l34.738 47.813M279.275 208.977l21.469-29.55M279.275 208.977l21.469 66.076M335.482 131.615l-34.738-47.813M335.482 131.614l-34.738 47.813M335.482 131.614l56.208 18.262M300.744 83.801l34.738-11.287M335.482 131.614l56.208 18.262M300.744 179.427l34.738 47.813M209.799 304.603l-21.469 29.55M209.799 304.603l-21.469 29.55M209.799 304.603l-21.469-66.076M188.33 334.152l-34.738 47.813M188.33 334.152l-34.738-47.813M153.592 381.965l34.738 47.813M153.592 381.965l34.738-47.813M153.592 381.965l-56.208-18.262M188.33 334.152l-34.738-47.813M153.592 381.965l-56.208-18.262M447.897 381.965l-21.47 29.55M447.897 381.965l-21.47 29.55M447.897 381.965l34.738-47.813M426.427 411.515l-34.737 47.812M426.427 411.515l21.47-29.55M391.69 459.328l-56.208 18.263M391.69 459.327l34.737-47.812M426.427 411.515l21.47-29.55M209.799 54.252l-21.469 29.55M209.799 54.251l-21.469-29.55M209.799 54.252l-21.469 29.55M188.33 83.801l-34.738-11.287M188.33 83.802l-34.738 47.813M153.592 35.988l34.738-11.287M153.592 35.988l34.738-11.287M153.592 35.989v36.526M153.592 35.989L97.384 54.252M188.33 24.701l-34.738 11.287M153.592 72.514l-56.208 40.837M447.897 131.614l-21.47 29.55M447.897 131.615l-21.47-29.55M447.897 131.614l34.738 47.813M426.427 161.164l-34.737-11.287M426.427 161.164l21.47 66.076M391.69 113.351l-56.208-40.837M391.69 113.352l34.737-11.287M391.69 113.351v36.526M391.69 113.351v36.526M426.427 102.065l21.47 29.55M391.69 149.877v59.1M153.592 131.614l-56.208 18.262M97.384 149.877v59.1M97.384 149.877v-36.526M97.384 149.877l-34.737 11.287M97.384 208.977L62.647 256.79M97.384 113.352l-34.737-11.287M447.897 227.24l-21.47 29.55M447.897 227.24l34.738 11.287M426.427 256.79l-34.737 47.813M426.427 256.79l-34.737-47.813M426.427 256.79l21.47 29.55M391.69 304.603v59.1M153.592 131.614l34.738 47.813M153.592 131.615l34.738-47.813M153.592 131.614l-56.208 18.262M188.33 179.427l-34.738 47.813M188.33 83.801l-34.738-11.287M482.635 238.527v36.526M482.635 238.526v-59.099M482.635 238.527v36.526M482.635 275.053v59.099M41.177 286.34L6.439 275.053M41.177 286.34l21.47-29.55M6.439 275.053v59.099M6.439 275.053v-36.526M6.439 275.053v-36.526M6.439 238.526v-59.099M335.482 381.965l56.208-18.262M335.482 381.965l-34.738 47.813M335.482 381.965l-34.738-47.813M335.482 381.965l56.208-18.262M300.744 429.778l34.738 11.287M300.744 334.152l34.738-47.813M62.647 256.79l34.737 47.813M62.647 256.79l34.737-47.813M62.647 256.79l-21.47-29.55M97.384 208.977v-59.1M391.69 363.703v36.526M391.69 363.703v-59.1M391.69 363.702l34.737-11.287M391.69 400.228l34.737 11.287M391.69 304.603l34.737-47.813M6.439 238.527v36.526M6.439 238.526v-59.099M6.439 275.053l34.738 11.287M6.439 275.053v59.099M6.439 275.053v-36.526M41.177 286.34l21.47-29.55M300.744 334.152l34.738 47.813M300.744 334.152l34.738-47.813M335.482 381.965l-34.738 47.813M335.482 381.965l56.208-18.262M335.482 381.965l56.208-18.262M300.744 429.778l34.738 11.287M6.439 179.427l34.738-47.813M41.177 131.615l21.47-29.55M335.482 286.339V227.24M335.482 286.34l-34.738-11.287M335.482 286.339l56.208 18.263M335.482 227.24l56.208-18.263M300.744 275.053l34.738 11.287M188.33 179.427l-34.738 47.813M188.33 179.427l-34.738-47.813M153.592 227.24l34.738 11.287M153.592 227.24v59.099M153.592 227.24l-56.208-18.263M188.33 238.527l-34.738-11.287M153.592 286.339l-56.208 18.263M482.635 275.053v59.099M482.635 275.053v-36.526M482.635 334.152l-34.738 47.813M447.897 381.965l-21.47 29.55M153.592 131.615l34.738-47.813M153.592 131.614l-56.208 18.262M188.33 83.801l-34.738-11.287M153.592 131.614l-56.208 18.262M482.635 238.526v-59.099M482.635 238.527l-34.738-11.287M482.635 238.527v36.526M447.897 227.24l-21.47 29.55M97.384 363.703v-59.1M97.384 363.702l-34.737-11.287M97.384 304.602l56.208-18.263M97.384 304.603L62.647 256.79M97.384 304.603L62.647 256.79M153.592 286.339V227.24M391.69 459.327l34.737-47.812M426.427 411.515l-34.737-11.287M426.427 411.515l21.47-29.55M426.427 411.515l21.47-29.55M391.69 400.229v-36.526M447.897 381.965l34.738-47.813M97.384 54.252l-34.737 47.813M97.384 54.252l56.208-18.263M97.384 54.252l-34.737 47.813M97.384 54.252l-34.737 47.813M153.592 35.989v36.526M391.69 149.877l34.737 11.287M391.69 149.877v59.1M426.427 161.164l-34.737-11.287M426.427 161.164l21.47-29.55M426.427 161.164l21.47 66.076M391.69 149.877v59.1M447.897 131.614l34.738 47.813M62.647 352.415l-21.47 29.55M62.647 352.415l34.737 11.287M62.647 352.415l-21.47-66.076M41.177 381.965L6.439 334.152M97.384 363.703v-59.1M391.69 459.328l-56.208 18.263M391.69 459.327l34.737-47.812M335.482 477.591v-36.526M391.69 459.327l34.737-47.812M62.647 102.065l-21.47 29.55M62.647 102.065l34.737 11.287M62.647 102.065l-21.47 29.55M41.177 131.614L6.439 179.427M97.384 113.351v36.526M391.69 208.977l-56.208 18.263M391.69 208.977l34.737 47.813M335.482 227.24v59.099M391.69 208.977l34.737 47.813M6.439 238.526v-59.099M6.439 238.527l34.738-11.287M6.439 238.527v36.526M6.439 179.427l34.738-47.813M62.647 161.164l-21.47 66.076M62.647 161.164l-21.47-29.55M62.647 161.164l34.737-11.287M62.647 256.79l-21.47-29.55M41.177 227.24l21.47 29.55M62.647 102.065l-21.47 29.55M41.177 131.615l21.47-29.55M391.69 363.703v-59.1M391.69 363.702l34.737-11.287M391.69 363.703v36.526M391.69 304.603l34.737-47.813M447.897 286.339l-21.47 66.076M447.897 286.34l-21.47-29.55M447.897 286.34l34.738-11.287M391.69 363.702l34.737-11.287M426.427 352.415l21.47 29.55M391.69 208.977l34.737 47.813M426.427 256.79l21.47-29.55M97.384 208.977v-59.1M97.384 208.977L62.647 256.79M97.384 149.877v-36.526M97.384 149.877l-34.737 11.287M97.384 149.877v59.1M97.384 149.877v-36.526M153.592 227.24l-56.208-18.263M97.384 208.977L62.647 256.79M153.592 72.514l-56.208 40.837M97.384 113.352l-34.737-11.287M482.635 334.152v-59.099M482.635 334.152l-34.738 47.813M482.635 275.053v-36.526M482.635 275.053l-34.738 11.287M482.635 275.053v59.099M482.635 275.053v-36.526M482.635 334.152l-34.738 47.813M482.635 179.427v59.099M482.635 238.527l-34.738-11.287M6.439 238.527v36.526M6.439 238.526v-59.099M6.439 238.527l34.738-11.287M6.439 334.152v-59.099M6.439 275.053l34.738 11.287M6.439 179.427l34.738-47.813M391.69 363.703v36.526M391.69 363.703v-59.1M391.69 363.702l34.737-11.287M335.482 441.065l56.208-40.837M391.69 400.228l34.737 11.287M335.482 286.339l56.208 18.263M391.69 304.603l34.737-47.813M41.177 227.24l21.47 29.55M41.177 227.24l21.47-66.076M97.384 304.603L62.647 256.79M62.647 256.79l-21.47 29.55M97.384 149.877l-34.737 11.287M62.647 161.164l-21.47-29.55M426.427 352.415l21.47 29.55M426.427 352.415l21.47-66.076M426.427 411.515l21.47-29.55M447.897 381.965l-21.47 29.55M426.427 256.79l21.47 29.55M447.897 286.34l-21.47-29.55M62.647 256.79l-21.47 29.55M447.897 381.965l-21.47 29.55M62.647 102.065l-21.47 29.55M447.897 227.24l-21.47 29.55" stroke="#000"/><path d="M279.275 59.691a5.439 5.439 0 100-10.878 5.439 5.439 0 000 10.878zM209.799 59.691a5.439 5.439 0 100-10.878 5.439 5.439 0 000 10.878zM426.427 166.603a5.439 5.439 0 100-10.878 5.439 5.439 0 000 10.878zM447.897 232.679a5.439 5.439 0 100-10.878 5.439 5.439 0 000 10.878zM335.482 41.428a5.439 5.439 0 100-10.878 5.439 5.439 0 000 10.878zM391.69 59.691a5.439 5.439 0 100-10.878 5.439 5.439 0 000 10.878zM391.69 118.79a5.439 5.439 0 100-10.878 5.439 5.439 0 000 10.878zM335.482 77.953a5.439 5.439 0 100-10.878 5.439 5.439 0 000 10.878zM426.427 107.504a5.439 5.439 0 100-10.878 5.439 5.439 0 000 10.878zM300.744 30.14a5.439 5.439 0 100-10.878 5.439 5.439 0 000 10.878zM447.897 137.053a5.439 5.439 0 100-10.878 5.439 5.439 0 000 10.878zM62.647 357.854a5.439 5.439 0 100-10.878 5.439 5.439 0 000 10.878zM97.384 464.767a5.439 5.439 0 100-10.878 5.439 5.439 0 000 10.878zM153.592 483.03a5.439 5.439 0 100-10.878 5.439 5.439 0 000 10.878zM97.384 405.667a5.439 5.439 0 100-10.878 5.439 5.439 0 000 10.878zM62.647 416.954a5.439 5.439 0 100-10.878 5.439 5.439 0 000 10.878zM153.592 446.504a5.439 5.439 0 100-10.878 5.439 5.439 0 000 10.878zM188.33 494.317a5.439 5.439 0 100-10.878 5.439 5.439 0 000 10.878zM41.177 387.404a5.439 5.439 0 100-10.878 5.439 5.439 0 000 10.878zM209.799 464.767a5.439 5.439 0 100-10.878 5.439 5.439 0 000 10.878zM41.177 291.778a5.439 5.439 0 100-10.878 5.439 5.439 0 000 10.878zM279.275 464.767a5.439 5.439 0 100-10.878 5.439 5.439 0 000 10.878zM153.592 77.953a5.439 5.439 0 100-10.878 5.439 5.439 0 000 10.878zM97.384 118.79a5.439 5.439 0 100-10.878 5.439 5.439 0 000 10.878zM447.897 291.778a5.439 5.439 0 100-10.878 5.439 5.439 0 000 10.878zM426.427 357.854a5.439 5.439 0 100-10.878 5.439 5.439 0 000 10.878zM41.177 232.679a5.439 5.439 0 100-10.878 5.439 5.439 0 000 10.878zM62.647 166.603a5.439 5.439 0 100-10.878 5.439 5.439 0 000 10.878zM335.482 446.504a5.439 5.439 0 100-10.878 5.439 5.439 0 000 10.878zM391.69 405.667a5.439 5.439 0 100-10.878 5.439 5.439 0 000 10.878zM244.537 11.878a5.439 5.439 0 100-10.878 5.439 5.439 0 000 10.878zM188.33 30.14a5.439 5.439 0 100-10.878 5.439 5.439 0 000 10.878zM153.592 41.428a5.439 5.439 0 100-10.878 5.439 5.439 0 000 10.878zM244.537 512.579a5.439 5.439 0 100-10.878 5.439 5.439 0 000 10.878zM300.744 494.317a5.439 5.439 0 100-10.878 5.439 5.439 0 000 10.878zM335.482 483.03a5.439 5.439 0 100-10.878 5.439 5.439 0 000 10.878zM482.635 243.966a5.439 5.439 0 100-10.878 5.439 5.439 0 000 10.878zM482.635 184.866a5.439 5.439 0 100-10.878 5.439 5.439 0 000 10.878zM482.635 280.492a5.439 5.439 0 100-10.878 5.439 5.439 0 000 10.878zM6.848 339.58a5.5 5.5 0 100-11 5.5 5.5 0 000 11zM6.439 280.492a5.439 5.439 0 100-10.878 5.439 5.439 0 000 10.878zM6.439 243.966a5.439 5.439 0 100-10.878 5.439 5.439 0 000 10.878zM62.647 107.504a5.439 5.439 0 100-10.878 5.439 5.439 0 000 10.878zM41.177 137.053a5.439 5.439 0 100-10.878 5.439 5.439 0 000 10.878zM97.384 59.691a5.439 5.439 0 100-10.878 5.439 5.439 0 000 10.878zM447.897 387.404a5.439 5.439 0 100-10.878 5.439 5.439 0 000 10.878zM426.427 416.954a5.439 5.439 0 100-10.878 5.439 5.439 0 000 10.878zM391.69 464.767a5.439 5.439 0 100-10.878 5.439 5.439 0 000 10.878zM6.439 184.866a5.439 5.439 0 100-10.878 5.439 5.439 0 000 10.878zM482.635 339.591a5.439 5.439 0 100-10.878 5.439 5.439 0 000 10.878z" fill="#0097A7" stroke="#000"/><path d="M188.33 184.867a5.439 5.439 0 100-10.878 5.439 5.439 0 000 10.878zM244.537 166.604a5.439 5.439 0 100-10.878 5.439 5.439 0 000 10.878zM300.744 184.867a5.439 5.439 0 100-10.878 5.439 5.439 0 000 10.878zM188.33 339.592a5.439 5.439 0 100-10.878 5.439 5.439 0 000 10.878zM244.537 357.855a5.439 5.439 0 100-10.878 5.439 5.439 0 000 10.878zM153.592 291.779a5.439 5.439 0 100-10.878 5.439 5.439 0 000 10.878zM300.744 339.592a5.439 5.439 0 100-10.878 5.439 5.439 0 000 10.878zM153.592 232.679a5.439 5.439 0 100-10.878 5.439 5.439 0 000 10.878zM335.482 291.779a5.439 5.439 0 100-10.878 5.439 5.439 0 000 10.878zM335.482 232.679a5.439 5.439 0 100-10.878 5.439 5.439 0 000 10.878zM188.33 89.241a5.439 5.439 0 100-10.878 5.439 5.439 0 000 10.878zM244.537 107.504a5.439 5.439 0 100-10.878 5.439 5.439 0 000 10.878zM153.592 137.054a5.439 5.439 0 100-10.878 5.439 5.439 0 000 10.878zM300.744 89.241a5.439 5.439 0 100-10.878 5.439 5.439 0 000 10.878zM335.482 137.054a5.439 5.439 0 100-10.878 5.439 5.439 0 000 10.878zM391.69 155.316a5.439 5.439 0 100-10.878 5.439 5.439 0 000 10.878zM391.69 310.042a5.439 5.439 0 100-10.878 5.439 5.439 0 000 10.878zM391.69 214.416a5.439 5.439 0 100-10.878 5.439 5.439 0 000 10.878zM426.428 262.229a5.439 5.439 0 100-10.878 5.439 5.439 0 000 10.878zM97.384 369.142a5.439 5.439 0 100-10.878 5.439 5.439 0 000 10.878zM153.592 387.405a5.439 5.439 0 100-10.878 5.439 5.439 0 000 10.878zM188.33 435.217a5.439 5.439 0 100-10.878 5.439 5.439 0 000 10.878zM97.384 214.416a5.439 5.439 0 100-10.878 5.439 5.439 0 000 10.878zM97.384 310.042a5.439 5.439 0 100-10.878 5.439 5.439 0 000 10.878zM62.647 262.229a5.439 5.439 0 100-10.878 5.439 5.439 0 000 10.878zM244.537 416.954a5.439 5.439 0 100-10.878 5.439 5.439 0 000 10.878zM300.744 435.217a5.439 5.439 0 100-10.878 5.439 5.439 0 000 10.878zM335.482 387.405a5.439 5.439 0 100-10.878 5.439 5.439 0 000 10.878zM97.384 155.316a5.439 5.439 0 100-10.878 5.439 5.439 0 000 10.878zM391.69 369.142a5.439 5.439 0 100-10.878 5.439 5.439 0 000 10.878z" fill="#00BCD4" stroke="#000"/><path d="M209.799 214.416a5.439 5.439 0 100-10.878 5.439 5.439 0 000 10.878zM279.275 214.416a5.439 5.439 0 100-10.878 5.439 5.439 0 000 10.878zM188.33 280.492a5.439 5.439 0 100-10.878 5.439 5.439 0 000 10.878zM244.537 321.329a5.439 5.439 0 100-10.878 5.439 5.439 0 000 10.878zM279.275 310.042a5.439 5.439 0 100-10.878 5.439 5.439 0 000 10.878zM209.799 310.042a5.439 5.439 0 100-10.878 5.439 5.439 0 000 10.878zM300.744 280.492a5.439 5.439 0 100-10.878 5.439 5.439 0 000 10.878zM300.744 243.966a5.439 5.439 0 100-10.878 5.439 5.439 0 000 10.878zM188.33 243.966a5.439 5.439 0 100-10.878 5.439 5.439 0 000 10.878zM244.537 203.129a5.439 5.439 0 100-10.878 5.439 5.439 0 000 10.878z" fill="#B2EBF2" stroke="#000"/></svg>
