<svg xmlns="http://www.w3.org/2000/svg" x="0" y="0" viewBox="0 0 100 100" xml:space="preserve">
  <path
    d="M9.3 48.4V50c0 6.3.5 12.6 1.6 18.9.7 4.3 4.2 7.8 8.6 8.4 20.4 2.9 40.8 2.9 61.1 0 4.4-.6 7.8-4 8.6-8.4 1.1-6.3 1.6-12.6 1.6-18.9 0-6.3-.5-12.6-1.6-18.9-.7-4.3-4.2-7.8-8.6-8.4-20.4-2.9-40.8-2.9-61.1 0-4.4.6-7.8 4-8.6 8.4"
    stroke="#fff" stroke-linecap="round" fill="none" stroke-width="3.5" stroke-miterlimit="10" />
  <path d="M9.8 39.1c0 .2 0 .5-.1.7" stroke="#fff" stroke-linecap="round" fill="none" stroke-width="3.5"
    stroke-miterlimit="10" />
  <path d="M42 42.3v-2.6c0-1.4 1.5-2.2 2.6-1.5l16.9 10.4c1.1.7 1.1 2.3 0 3L44.6 61.8c-1.2.7-2.6-.1-2.6-1.5V48.9"
    stroke="#fff" stroke-linecap="round" fill="none" stroke-width="3.5" stroke-miterlimit="10" />
</svg>
