<svg width="411" height="823" viewBox="0 0 411 823" fill="none" xmlns="http://www.w3.org/2000/svg">
<path fill-rule="evenodd" clip-rule="evenodd" d="M679.63 52.2059C681.012 47.5186 678.333 42.598 673.647 41.2167C672.2 40.7888 670.731 40.7498 669.351 41.0365L634.701 -76.383C636.835 -77.4393 638.538 -79.3476 639.265 -81.8114C640.648 -86.4978 637.969 -91.4182 633.282 -92.8008C628.595 -94.1833 623.674 -91.5046 622.292 -86.8176C621.273 -83.3638 622.46 -79.7819 625.031 -77.585L553.267 -3.06597C552.657 -3.4244 551.994 -3.71383 551.286 -3.92304C547.799 -4.95121 544.184 -3.73302 541.991 -1.11093L440.558 -67.6805C440.701 -68.0109 440.826 -68.3537 440.93 -68.708C442.313 -73.395 439.634 -78.3153 434.947 -79.6979C430.26 -81.0805 425.339 -78.4016 423.957 -73.7146C422.574 -69.0276 425.254 -64.1074 429.939 -62.7246C430.488 -62.5632 431.039 -62.4572 431.586 -62.4031L404.002 31.1088C399.702 30.4603 395.473 33.0683 394.207 37.358C394.029 37.9629 393.918 38.5707 393.871 39.1758L313.658 45.1632C312.752 42.5607 310.648 40.4191 307.803 39.5792C303.115 38.1965 298.195 40.8764 296.813 45.562C295.638 49.5469 297.397 53.699 300.83 55.7041L246.882 209.678C242.764 209.304 238.82 211.872 237.607 215.989C236.224 220.676 238.902 225.597 243.59 226.979C245.378 227.507 247.201 227.443 248.849 226.901L283.493 321.039C281.643 322.138 280.186 323.913 279.528 326.141C278.976 328.014 279.073 329.923 279.686 331.631L227.49 366.127C226.517 365.216 225.321 364.513 223.956 364.11C219.269 362.727 214.348 365.405 212.965 370.093C212.198 372.69 212.681 375.36 214.06 377.459L155.26 471.16C155.14 471.119 155.018 471.081 154.896 471.045C150.208 469.662 145.289 472.34 143.907 477.028C142.524 481.715 145.202 486.634 149.889 488.017C149.977 488.044 150.067 488.068 150.154 488.092L156.478 615.967C154.963 617.073 153.786 618.668 153.214 620.607C152.064 624.509 153.726 628.572 157.019 630.621L124.463 698.93C124.093 698.764 123.708 698.62 123.308 698.502C118.62 697.119 113.701 699.797 112.319 704.484C111.316 707.883 112.449 711.405 114.934 713.612L54.2604 864.717C49.8605 863.903 45.4667 866.53 44.1726 870.917C43.3146 873.829 44.0219 876.83 45.8065 879.018L-8.78035 949.053C-9.38318 948.703 -10.0374 948.418 -10.7351 948.212C-15.4222 946.831 -20.3428 949.509 -21.7241 954.196C-23.1068 958.883 -20.4286 963.803 -15.7413 965.185C-14.2957 965.612 -12.8259 965.652 -11.4461 965.365L23.2043 1082.79C21.0715 1083.84 19.3676 1085.75 18.6414 1088.21C17.2587 1092.9 19.9371 1097.82 24.6242 1099.2C29.3115 1100.59 34.2321 1097.91 35.6148 1093.22C36.6339 1089.77 35.446 1086.18 32.8744 1083.99L104.638 1009.47C105.248 1009.83 105.91 1010.12 106.619 1010.33C110.105 1011.35 113.722 1010.13 115.915 1007.51L217.348 1074.08C217.205 1074.41 217.08 1074.76 216.976 1075.11C215.593 1079.8 218.271 1084.72 222.959 1086.1C227.646 1087.48 232.567 1084.8 233.949 1080.12C235.331 1075.43 232.652 1070.51 227.965 1069.13C227.418 1068.96 226.867 1068.86 226.32 1068.81L253.904 975.293C258.204 975.942 262.433 973.334 263.698 969.044C263.877 968.439 263.988 967.83 264.035 967.226L344.247 961.237C345.152 963.841 347.258 965.984 350.103 966.823C354.791 968.205 359.71 965.527 361.092 960.84C362.268 956.855 360.509 952.703 357.076 950.698L411.023 796.724C415.141 797.099 419.084 794.53 420.299 790.413C421.682 785.727 419.004 780.807 414.316 779.424C412.527 778.897 410.705 778.96 409.057 779.501L374.413 685.363C376.263 684.264 377.72 682.489 378.377 680.261C379.693 675.799 377.327 671.123 373.052 669.493L370.241 561.639C371.473 561.417 372.642 560.936 373.667 560.236L429.468 628.373C428.806 629.222 428.289 630.208 427.967 631.303C426.585 635.99 429.263 640.911 433.95 642.294C438.638 643.676 443.558 640.996 444.941 636.311C445.706 633.712 445.225 631.042 443.846 628.943L502.645 535.243C502.765 535.283 502.886 535.323 503.009 535.359C507.696 536.741 512.617 534.061 513.999 529.376C515.381 524.689 512.702 519.768 508.015 518.385C507.927 518.36 507.839 518.335 507.752 518.311L501.428 390.436C502.943 389.33 504.121 387.735 504.693 385.795C505.769 382.149 504.385 378.36 501.511 376.208L534.137 307.751C534.29 307.805 534.443 307.855 534.598 307.9C539.285 309.283 544.206 306.605 545.589 301.917C546.653 298.309 545.31 294.563 542.497 292.398L577.098 175.103C581.493 175.907 585.876 173.281 587.169 168.9C588.087 165.785 587.213 162.567 585.146 160.353L666.636 57.3197C667.252 57.6833 667.922 57.9777 668.64 58.1888C673.327 59.5715 678.247 56.8932 679.63 52.2059ZM30.226 1082.43L102.351 1007.54C100.728 1005.6 99.958 1003.01 100.39 1000.41L-5.6668 961.28C-6.41675 962.523 -7.44954 963.539 -8.65427 964.267L26.0668 1081.93C27.2283 1081.79 28.4378 1081.88 29.6306 1082.23C29.8331 1082.29 30.0321 1082.36 30.226 1082.43ZM-6.48946 950.974C-4.77555 952.999 -4.00184 955.757 -4.57399 958.498L101.365 997.579C102.11 996.22 103.187 995.107 104.459 994.32L54.2668 882.122C52.9403 882.369 51.5381 882.315 50.1568 881.906C49.4042 881.685 48.704 881.372 48.0627 880.983L-6.48946 950.974ZM354.276 949.647L408.126 795.955C407.275 795.567 406.51 795.055 405.846 794.446L341.358 841.773C341.922 843.44 341.996 845.291 341.46 847.106C340.617 849.963 338.461 852.073 335.846 852.972L352.673 949.486C353.204 949.49 353.741 949.543 354.276 949.647ZM349.723 949.971L332.896 853.453C332.094 853.446 331.279 853.328 330.469 853.089C329.981 852.945 329.514 852.763 329.071 852.546L261.534 960.35C262.598 961.438 263.364 962.783 263.759 964.249L343.757 958.278C343.762 957.469 343.879 956.648 344.121 955.834C344.961 952.982 347.113 950.873 349.723 949.971ZM218.986 1071.58C219.557 1070.97 220.21 1070.45 220.921 1070.02L197.972 875.762C196.91 875.852 195.814 875.748 194.731 875.429C194.567 875.38 194.407 875.328 194.247 875.272L115.087 995.3C117.506 997.512 118.598 1000.99 117.609 1004.34C117.55 1004.54 117.486 1004.73 117.416 1004.92L218.986 1071.58ZM112.57 993.689L191.638 873.799C190.248 872.664 189.243 871.132 188.743 869.43L61.3743 874.957C61.3172 875.279 61.2407 875.602 61.146 875.924C60.4763 878.194 58.9776 879.993 57.0763 881.087L107.229 993.194C108.639 992.884 110.143 992.915 111.625 993.352C111.95 993.448 112.264 993.561 112.57 993.689ZM246.725 964.038C247.268 962.196 248.357 960.664 249.765 959.569L201.006 874.946C200.968 874.965 200.929 874.982 200.89 875L223.62 1067.39L251.063 974.359C247.42 972.431 245.513 968.145 246.725 964.038ZM257.716 958.055C258.201 958.198 258.666 958.38 259.108 958.596L326.645 850.789C325.348 849.46 324.494 847.746 324.219 845.9L205.96 868.419C205.901 868.762 205.821 869.105 205.722 869.446C205.284 870.929 204.491 872.212 203.464 873.227L252.397 958.152C254.059 957.593 255.904 957.521 257.716 958.055ZM61.3888 871.965L188.398 866.454C188.436 865.785 188.55 865.109 188.748 864.439C189.338 862.438 190.573 860.803 192.16 859.693L120.737 715.839C119.931 715.831 119.112 715.714 118.302 715.475C118.195 715.443 118.089 715.411 117.985 715.375C117.909 715.349 117.834 715.323 117.76 715.296C117.725 715.284 117.69 715.271 117.655 715.257C117.609 715.24 117.561 715.222 117.515 715.203L57.0672 865.746C59.389 867.077 60.9574 869.384 61.3888 871.965ZM216.178 379.704L157.888 472.593C159.213 473.644 160.201 475.048 160.749 476.623L280.791 454.442C280.738 453.462 280.848 452.456 281.142 451.462C281.501 450.244 282.098 449.162 282.87 448.252L226.284 380.008C224.189 381.373 221.533 381.844 218.948 381.082C217.922 380.779 216.99 380.306 216.178 379.704ZM228.48 377.975L285.158 446.33C285.94 445.871 286.791 445.533 287.68 445.332L284.855 336.909C283.368 336.342 282.11 335.405 281.159 334.239L229.302 368.512C230.321 370.472 230.612 372.813 229.939 375.099C229.622 376.171 229.121 377.138 228.48 377.975ZM125.769 699.661C128.041 701.199 129.473 703.722 129.639 706.448L254.247 718.456C254.478 718.073 254.735 717.712 255.016 717.374L165.924 630.886C163.936 631.965 161.537 632.288 159.197 631.598C158.907 631.511 158.625 631.412 158.35 631.301L125.769 699.661ZM129.312 709.418L253.139 721.352C252.545 724.42 253.631 727.494 255.825 729.524L199.338 858.347C197.817 857.974 196.282 858.02 194.861 858.418L123.812 715.311C126.366 714.384 128.464 712.299 129.292 709.492L129.312 709.418ZM202.079 859.536L258.369 731.165C258.676 731.297 258.996 731.411 259.325 731.508C261.558 732.166 263.841 731.904 265.772 730.942L327.057 838.022C325.877 839.081 324.968 840.469 324.487 842.1C324.413 842.347 324.352 842.595 324.302 842.843L205.945 865.38C205.518 863.007 204.129 860.875 202.079 859.536ZM329.588 836.428L268.198 729.165C268.545 728.807 268.862 728.417 269.147 727.998L403.008 787.022C402.826 788.808 403.197 790.565 404.011 792.087L339.921 839.122C338.826 837.731 337.303 836.656 335.477 836.117C333.457 835.52 331.393 835.679 329.588 836.428ZM403.82 784.114L270.384 725.279C270.639 724.317 270.724 723.349 270.658 722.405L362.987 683.294C364.08 684.657 365.585 685.712 367.387 686.244C368.812 686.664 370.26 686.709 371.623 686.437L406.394 780.915C405.318 781.746 404.426 782.832 403.82 784.114ZM361.533 680.666L269.932 719.467C268.92 717.163 266.936 715.303 264.332 714.534C264.163 714.485 263.994 714.44 263.824 714.4L250.824 603.98C253.143 603.856 255.32 602.817 256.876 601.122L361.731 674.334C361.607 674.631 361.497 674.939 361.404 675.255C360.86 677.098 360.945 678.979 361.533 680.666ZM247.771 603.606L260.796 714.231C259.549 714.379 258.357 714.789 257.296 715.423L168.289 629.019C169.142 628.07 169.802 626.919 170.188 625.613C170.55 624.383 170.633 623.135 170.473 621.942L241.866 597.649C242.683 600.405 244.824 602.708 247.771 603.606ZM153.16 488.348L159.4 614.565C160.926 614.153 162.579 614.144 164.204 614.624C166.63 615.339 168.516 617.001 169.582 619.088L241.518 594.611C241.557 593.956 241.671 593.295 241.865 592.638C242.128 591.749 242.518 590.929 243.011 590.198L157.067 487.043C155.895 487.772 154.558 488.226 153.16 488.348ZM363.335 671.812L258.494 598.608C258.625 598.298 258.741 597.976 258.839 597.646C259.412 595.698 259.285 593.711 258.606 591.953L360.899 557.147C361.982 559.142 363.825 560.722 366.174 561.414C366.532 561.521 366.892 561.603 367.253 561.662L370.047 668.908C367.48 668.861 365.033 669.944 363.335 671.812ZM359.936 554.319L257.028 589.334C256.174 588.352 255.098 587.547 253.844 587.012L288.135 462.686C289.913 462.994 291.685 462.741 293.249 462.039L362.496 546.595C361.445 547.619 360.635 548.918 360.191 550.425C359.805 551.733 359.735 553.057 359.936 554.319ZM285.31 461.69L250.937 586.311C248.813 586.169 246.746 586.804 245.09 588.028L159.303 485.06C160.001 484.188 160.544 483.17 160.878 482.034C161.121 481.214 161.238 480.385 161.243 479.572L281.456 457.357C282.206 459.16 283.546 460.705 285.31 461.69ZM628.275 -75.827C628.073 -75.8868 627.874 -75.9531 627.679 -76.026L555.553 -1.13328C557.174 0.796901 557.945 3.38778 557.514 5.99658L663.572 45.1202C664.322 43.8791 665.356 42.8632 666.56 42.1345L631.838 -75.5271C630.677 -75.3864 629.468 -75.476 628.275 -75.827ZM662.48 47.9024C661.911 50.6251 662.67 53.3623 664.358 55.3829L582.766 158.546C582.27 158.288 581.741 158.074 581.185 157.91C580.171 157.611 579.148 157.502 578.15 157.562L551.442 13.0034C553.579 12.3282 555.429 10.8523 556.54 8.82142L662.48 47.9024ZM546.278 13.0506C545.954 12.9546 545.64 12.8422 545.335 12.7136L466.266 132.603C468.303 134.265 469.516 136.779 469.523 139.436L570.586 162.823C571.517 160.708 573.211 159.104 575.238 158.246L548.479 13.4086C547.749 13.3833 547.01 13.2656 546.278 13.0506ZM540.295 2.05992C540.354 1.86187 540.418 1.66766 540.49 1.47687L438.921 -65.1806C438.349 -64.5681 437.697 -64.043 436.985 -63.6176L459.936 130.641C460.997 130.553 462.092 130.655 463.175 130.975C463.339 131.023 463.499 131.075 463.657 131.132L542.818 11.102C540.398 8.89189 539.305 5.4163 540.295 2.05992ZM313.786 50.5699C312.945 53.4217 310.793 55.53 308.183 56.4314L325.01 152.949C325.813 152.957 326.627 153.075 327.435 153.313C327.924 153.457 328.39 153.639 328.833 153.856L396.371 46.0526C395.308 44.9644 394.54 43.6172 394.147 42.151L314.149 48.1225C314.144 48.933 314.027 49.7543 313.786 50.5699ZM305.235 56.9159C304.702 56.9119 304.165 56.8601 303.628 56.7556L249.778 210.447C250.629 210.835 251.394 211.348 252.059 211.956L316.548 164.629C315.984 162.963 315.908 161.112 316.444 159.296C317.287 156.439 319.444 154.329 322.061 153.43L305.235 56.9159ZM408.141 46.8346C409.549 45.7374 410.638 44.2057 411.181 42.3642C412.393 38.2582 410.486 33.971 406.841 32.043L434.287 -60.9942L457.016 131.404C456.978 131.421 456.938 131.438 456.9 131.457L408.141 46.8346ZM398.798 47.8061C399.239 48.0217 399.703 48.2041 400.19 48.3471C402.001 48.8822 403.847 48.8092 405.509 48.2502L454.442 133.176C453.415 134.191 452.622 135.474 452.186 136.957C452.085 137.299 452.006 137.641 451.948 137.982L333.685 160.502C333.412 158.656 332.556 156.942 331.26 155.613L398.798 47.8061ZM574.285 174.078C571.332 172.39 569.594 169.123 569.858 165.721L469.023 142.388C468.39 144.197 467.22 145.681 465.746 146.71L537.169 290.565C537.975 290.571 538.794 290.688 539.606 290.928L539.656 290.942L539.74 290.969L539.798 290.986L574.285 174.078ZM500.016 533.809L441.726 626.698C440.914 626.096 439.984 625.623 438.956 625.32C436.395 624.565 433.764 625.021 431.679 626.357L375.822 558.151C376.408 557.35 376.866 556.437 377.163 555.432C377.512 554.247 377.603 553.048 377.467 551.895L497.155 529.777C497.703 531.352 498.692 532.758 500.016 533.809ZM369.656 544.134C368.019 543.949 366.402 544.232 364.966 544.896L295.741 460.365C296.825 459.331 297.661 458.008 298.115 456.468C298.561 454.956 298.585 453.419 298.253 451.985L400.876 417.066C401.73 418.049 402.808 418.854 404.062 419.39L369.656 544.134ZM406.969 420.091L372.527 544.961C374.343 545.835 375.758 547.283 376.611 549.014L496.661 526.831C496.666 526.016 496.784 525.188 497.026 524.368C497.361 523.232 497.904 522.214 498.603 521.342L412.816 418.376C411.16 419.597 409.093 420.234 406.969 420.091ZM414.895 416.203L500.839 519.359C502.011 518.63 503.348 518.176 504.746 518.054L498.506 391.837C496.982 392.249 495.329 392.258 493.702 391.779C491.278 391.062 489.39 389.4 488.323 387.312L416.389 411.789C416.349 412.444 416.236 413.107 416.041 413.764C415.778 414.655 415.388 415.473 414.895 416.203ZM416.04 408.751L487.433 384.459C487.274 383.265 487.357 382.019 487.719 380.788C488.105 379.483 488.765 378.332 489.618 377.383L400.612 290.979C399.549 291.613 398.357 292.023 397.11 292.171L410.135 402.796C413.082 403.694 415.223 405.997 416.04 408.751ZM394.082 292.002L407.082 402.423C404.763 402.547 402.586 403.587 401.03 405.28L296.175 332.068C296.299 331.77 296.409 331.463 296.502 331.147C297.046 329.304 296.961 327.423 296.373 325.736L387.974 286.935C388.986 289.239 390.97 291.1 393.575 291.867C393.691 291.901 393.807 291.934 393.924 291.963L393.994 291.98C394.024 291.987 394.052 291.995 394.082 292.002ZM387.522 281.124C387.269 282.085 387.182 283.053 387.248 283.997L294.918 323.107C293.827 321.744 292.321 320.69 290.519 320.158C289.092 319.736 287.646 319.691 286.282 319.965L251.512 225.487C252.588 224.656 253.48 223.571 254.086 222.288L387.522 281.124ZM389.709 277.236C389.361 277.595 389.044 277.985 388.759 278.404L254.898 219.38C255.08 217.594 254.707 215.837 253.893 214.317L317.984 167.281C319.08 168.671 320.601 169.748 322.427 170.287C324.449 170.882 326.513 170.723 328.318 169.974L389.709 277.236ZM399.537 275.237C399.23 275.105 398.909 274.991 398.581 274.894C396.35 274.235 394.065 274.498 392.135 275.46L330.849 168.38C332.027 167.321 332.936 165.933 333.418 164.302C333.491 164.055 333.552 163.807 333.603 163.559L451.961 141.022C452.388 143.394 453.777 145.527 455.826 146.868L399.537 275.237ZM402.081 276.878L458.568 148.055C460.089 148.429 461.624 148.383 463.045 147.987L534.094 291.092C531.54 292.017 529.444 294.105 528.615 296.911L528.595 296.982L404.768 285.05C405.36 281.98 404.275 278.906 402.081 276.878ZM403.661 287.946L528.268 299.952C528.419 302.425 529.611 304.731 531.526 306.286L498.849 374.848C498.803 374.833 498.756 374.819 498.71 374.805C496.369 374.115 493.972 374.437 491.984 375.515L402.892 289.028C403.173 288.69 403.429 288.329 403.661 287.946ZM399.412 407.795L294.569 334.592C292.873 336.458 290.426 337.539 287.859 337.494L290.666 445.177C291.154 445.235 291.644 445.334 292.132 445.479C294.269 446.109 295.99 447.477 297.097 449.221L399.299 414.447C398.62 412.69 398.493 410.703 399.069 408.757C399.165 408.426 399.281 408.105 399.412 407.795Z" fill="url(#paint0_linear)"/>
<defs>
<linearGradient id="paint0_linear" x1="553.998" y1="558.974" x2="103.956" y2="447.379" gradientUnits="userSpaceOnUse">
<stop stop-color="#212121"/>
<stop offset="1" stop-color="#303030"/>
</linearGradient>
</defs>
</svg>
