<svg xmlns="http://www.w3.org/2000/svg" xmlns:xlink="http://www.w3.org/1999/xlink" width="512" height="512" viewBox="0 0 512 512">
  <defs>
    <clipPath id="clip-fireblue">
      <rect width="512" height="512"/>
    </clipPath>
  </defs>
  <g id="fireblue" clip-path="url(#clip-fireblue)">
    <g id="Speek" transform="translate(33.866 -70)">
      <path id="Fire" d="M301.443,230.465c11.07-20.629,10.569-42.2,4.283-64.031-1.545-5.371-4.761-14.581-6.931-20.6,37.008,27.349,68.613,93.108,52.548,158.459-14.882,60.546-72.913,109.317-132.777,114.957-77.092,7.26-137.033-38.936-159.593-95.1C34.915,264.278,54.18,190.64,95.527,153.979c-20.232,40.733-13.969,73.069-5.7,85.137,9.189,13.412,23.818,20.367,38.1,16.394,15.01-4.175,26.525-17.6,26.265-34.726-.173-11.435-2.213-24.326-6.721-34.626-26.753-61.112-4.453-116.226,38.7-154.182A260.648,260.648,0,0,1,231.786,0c-20.369,28.921-23.83,64.158-8.354,96.949,9.075,17.868,20.7,36.53,30.96,53.769,18.438,30.985,29.745,62.843,24.848,99.8-.053.409,14.666-5.7,22.2-20.058" transform="translate(19.69 116)" fill="none" stroke="#03a9f4" stroke-linejoin="round" stroke-width="10"/>
    </g>
  </g>
</svg>
