<svg xmlns="http://www.w3.org/2000/svg" width="942.886" height="977.085" viewBox="0 0 942.886 977.085">
  <g id="Grupo_1" data-name="Grupo 1" transform="translate(0 0)">
    <!-- <path fill="#212121" id="Circle" data-name="Caminho 2" d="M309.789,188.754l-12.283,8.151c-101.239,66.216-154.582,160.438-155.8,281.08C140.136,632.273,248.848,766.476,399.231,801c194.121,44.57,386.234-96.152,401.851-294.35,12.35-156.766-93.648-297.6-243.21-346.283-22.552-25.145-43.03-109.655-7.388-148.148,146.984,32.662,257.18,107.714,328.228,228.591,155.348,264.3,15.69,608.818-279.39,691.107C325.214,1008.359,47.869,827.664,6.876,545.932-38.615,283.242,146.865,49.553,408.557,10.276,347.5,65.49,314.843,141.315,309.789,188.754" transform="translate(0 27.572)" /> -->
    <path fill="#d32f2f" id="Fire" data-name="Caminho 3" d="M531.453,439.99c21.134-39.384,20.176-80.573,8.177-122.244-2.95-10.254-9.09-27.837-13.234-39.332,70.654,52.212,130.991,177.756,100.322,302.52-28.412,115.6-139.2,208.7-253.489,219.468-147.179,13.86-261.615-74.333-304.685-181.55-45.929-114.307-9.149-254.893,69.788-324.884-38.625,77.766-26.67,139.5-10.887,162.538,17.543,25.605,45.472,38.883,72.731,31.3,28.655-7.97,50.64-33.609,50.142-66.3-.331-21.826-4.225-46.441-12.832-66.105-51.074-116.671-8.5-221.892,73.88-294.354C335.277,40.017,363.078,19.834,398.469,0c-38.887,55.214-45.494,122.487-15.948,185.09,17.326,34.113,39.52,69.741,59.107,102.653,35.2,59.155,56.787,119.975,47.439,190.537-.1.781,28-10.891,42.386-38.294" transform="translate(129.982 0)" />
  </g>
</svg>
