<svg xmlns="http://www.w3.org/2000/svg" width="881.021" height="889.586" viewBox="0 0 881.021 889.586">
  <path id="Front" d="M909.163,420.74a10.374,10.374,0,0,0-10.374-10.374,6.857,6.857,0,0,0-.793.086l-8.207-62.9a7.5,7.5,0,0,0-1.9-14.755,7.408,7.408,0,0,0-2.878.57L819.373,206.461a10.343,10.343,0,1,0-12.311-16.616L731.1,118.164a6.2,6.2,0,0,0,1.055-3.5,6.308,6.308,0,0,0-10.83-4.417l-89.2-61.759a10.349,10.349,0,0,0-19.294-7.495L473.951,24.06a7.511,7.511,0,1,0-15.02.171c0,.317.057.6.086.912l-58.28,15.845A10.363,10.363,0,0,0,380.7,44.721a11.222,11.222,0,0,0,.171,1.682L216.689,91a10.359,10.359,0,1,0-16.728,11.285L51.4,298.593a10.346,10.346,0,1,0-7.1,19.038l-10.773,164.5a7.493,7.493,0,0,0,.484,14.506l9.633,73.044a10.355,10.355,0,0,0,2.394,20.435,10.589,10.589,0,0,0,3.9-.769l68.342,128.589a7.5,7.5,0,1,0,9.005,10.489l74.753,67.686a10.338,10.338,0,1,0,15.988,13.11l86.211,59.136a7.062,7.062,0,0,0-.317,2.08A7.5,7.5,0,0,0,318,874.052l142.07,21.31c0,.171-.057.317-.057.484a10.374,10.374,0,1,0,20.748,0,10,10,0,0,0-.2-1.882l54.947-16.273c0,.086-.029.171-.029.257a7.523,7.523,0,1,0,13.679-4.3l170.112-50.387a10.362,10.362,0,1,0,16.644-11.514l146.6-193.31a10.343,10.343,0,1,0,7.039-19.039L899.5,431.053a10.368,10.368,0,0,0,9.665-10.313ZM877.507,609.576a10.571,10.571,0,0,0,.2,1.9L823.7,627.468a12.3,12.3,0,0,0-5.758-6.127L897.4,431.08l-9.946,168.173a10.313,10.313,0,0,0-9.946,10.324ZM728.849,808.9a10.381,10.381,0,0,0-9.462,6.156l-80.823-26.416a12.91,12.91,0,0,0,.343-2.792,12.393,12.393,0,0,0-2.194-7.011L803.4,640.723a11.889,11.889,0,0,0,2.856,2.194L732.041,809.469A9.889,9.889,0,0,0,728.849,808.9ZM35.662,481.786l9.291-141.727V563.521L36.146,496.8a7.517,7.517,0,0,0-.484-15.02Zm576.511-437.6c0,.171-.057.317-.057.484a10.293,10.293,0,0,0,7.437,9.889l-13.907,86.3a12.283,12.283,0,0,0-10.573,6.213l-194.337-98.7a9.58,9.58,0,0,0,.6-2.708ZM220.252,800.549a10.335,10.335,0,0,0-9.291-8.264c-4.645-27.188-14.877-98.151-22.515-153.012a12.3,12.3,0,0,0,7.039-4.474l191.2,107.442a12.215,12.215,0,0,0-1.339,5.472,12.918,12.918,0,0,0,.343,2.792ZM52.42,315.521l70.53,63.668a12.2,12.2,0,0,0,3.739,17.842l-77.433,172.9a10.424,10.424,0,0,0-2.166-.455V317.695a10,10,0,0,0,5.329-2.174ZM184.4,183.056a10.37,10.37,0,0,0,10.174-8.35L339.663,222.7a12.351,12.351,0,0,0-.827,4.36A12.678,12.678,0,0,0,340,232.245L141.965,378.191a12.048,12.048,0,0,0-5.472-3.476L158,285l24.489-102.144a10.584,10.584,0,0,0,1.909.2ZM391.075,55.037a10.365,10.365,0,0,0,8.693-4.76L594.161,149a11.3,11.3,0,0,0-.57,6.213L361.922,221.16a12.216,12.216,0,0,0-7.438-5.927L389.907,54.9a8.172,8.172,0,0,0,1.168.141Zm418.37,152.585L767.979,365.394a12.23,12.23,0,0,0-3.392-.541,12.65,12.65,0,0,0-4.76.941L613.114,162.907a12.115,12.115,0,0,0,4.247-6.013l185.757,39.122a10.945,10.945,0,0,0-.2,1.966A10.457,10.457,0,0,0,809.445,207.622Zm-8.726,420.62L621.692,588c.029-.371.114-.741.114-1.111a12.256,12.256,0,0,0-4.388-9.348L758.834,388.051a12.342,12.342,0,0,0,5.758,1.482,12.074,12.074,0,0,0,2.878-.371l41.694,231.271a12.217,12.217,0,0,0-8.445,7.811ZM361.665,233.415l175.043,112.8a13.43,13.43,0,0,0,.317,13.452L360.472,485.8a12.216,12.216,0,0,0-8.264-4.246V239.29A12.253,12.253,0,0,0,361.665,233.415Zm.057,254.128,176.553-126.13a13.72,13.72,0,0,0,10.573,5.044,14.691,14.691,0,0,0,2.251-.228l54.377,209.042a12.419,12.419,0,0,0-6.954,6.042L362.976,496.889a12.393,12.393,0,0,0,.455-3.107,11.669,11.669,0,0,0-1.707-6.241Zm247.773,87.009a10.581,10.581,0,0,0-1.9.2L553.214,365.71a13.771,13.771,0,0,0,9.2-10.458l190,20.633a10.692,10.692,0,0,0-.143,1.339,12.248,12.248,0,0,0,4.76,9.662L615.676,576.291a12.092,12.092,0,0,0-6.181-1.74ZM752.818,373.774l-190.205-20.69c0-.143.057-.286.057-.427a13.762,13.762,0,0,0-9.2-12.967l49.076-174.7a11.833,11.833,0,0,0,3.192.455,12.4,12.4,0,0,0,5.615-1.4L758.065,366.765a12.478,12.478,0,0,0-5.248,7.009ZM600.51,164.305l-49.1,174.817a14.713,14.713,0,0,0-2.538-.257,13.708,13.708,0,0,0-11,5.553L362.631,231.5a11.954,11.954,0,0,0,.855-4.417,12.619,12.619,0,0,0-.684-3.9l231.358-65.862a12.346,12.346,0,0,0,6.356,6.982Zm-250.416,74.98V481.594a12.175,12.175,0,0,0-9.434,5.87L144.33,391.015A12.207,12.207,0,0,0,143.3,379.9L341.088,234.125a12.337,12.337,0,0,0,9.007,5.159ZM143.332,392.9l196.359,96.441a12.1,12.1,0,0,0-.855,4.442,12.4,12.4,0,0,0,2.109,6.9L195.058,619.237a12.2,12.2,0,0,0-9.291-4.3,11.977,11.977,0,0,0-1.767.171l-47.736-216.88a12.253,12.253,0,0,0,7.068-5.329Zm53.009,228.079L342.314,502.333a12.288,12.288,0,0,0,8.835,3.762c.4,0,.793-.086,1.2-.114l42.892,229.675a12.19,12.19,0,0,0-7.466,4.788L196.627,633.035a12.342,12.342,0,0,0,1.482-5.758,11.766,11.766,0,0,0-1.767-6.3ZM397.659,735.4c-.086,0-.171.029-.257.029L354.483,505.611a12.2,12.2,0,0,0,7.866-6.663L597.781,583.3a12.472,12.472,0,0,0-.6,3.59,12.116,12.116,0,0,0,1.745,6.213L407.1,739.9A12.257,12.257,0,0,0,397.659,735.4ZM51.194,570.817l77.4-172.848a12.513,12.513,0,0,0,4.274.793,10.232,10.232,0,0,0,1.31-.143l47.764,216.994a12.216,12.216,0,0,0-7.666,7.409L56.123,582.09a10.747,10.747,0,0,0,.286-2.366,10.312,10.312,0,0,0-5.215-8.907Zm357.1,170.824,191.857-146.8a12.216,12.216,0,0,0,9.319,4.36h.029l14.959,174.559a12.25,12.25,0,0,0-9.775,9.034L409.858,748.538c.029-.286.086-.541.086-.793a11.646,11.646,0,0,0-1.653-6.1ZM626.6,773.531,611.635,598.974a12.307,12.307,0,0,0,9.689-8.864l178.887,40.214a10.883,10.883,0,0,0-.2,1.937,12.443,12.443,0,0,0,2.051,6.811L635.343,777.208a12.131,12.131,0,0,0-8.748-3.676ZM812.327,619.954c-.371,0-.712.086-1.055.114L769.518,388.48a12.34,12.34,0,0,0,6.7-7.381l112.373,41.158a10.355,10.355,0,0,0,6.725,8.207L815.949,620.549a11.74,11.74,0,0,0-3.627-.6ZM888.5,419.942l-111.775-40.9a13.171,13.171,0,0,0,.2-1.853,12.318,12.318,0,0,0-6.9-11.03l41.494-157.972a9.651,9.651,0,0,0,1.825.171,10.694,10.694,0,0,0,2.906-.455L892.919,412.19A10.417,10.417,0,0,0,888.5,419.942ZM803.781,194,617.873,154.841a10.851,10.851,0,0,0,.171-1.682,12.31,12.31,0,0,0-10.26-12.112l13.879-86.1a8.124,8.124,0,0,0,.827.086,10.244,10.244,0,0,0,8.152-4.046L805.058,191.806A9.422,9.422,0,0,0,803.774,194ZM387.827,54.468,352.4,214.866c-.4-.029-.793-.114-1.225-.114a12.319,12.319,0,0,0-10.544,6.013l-145.86-48.25a10.292,10.292,0,0,0-2.108-6.07l190.2-115.54a10.286,10.286,0,0,0,4.958,3.562ZM180.438,182.258l-46,192.028a13.416,13.416,0,0,0-1.539-.143,12.242,12.242,0,0,0-8.521,3.449L53.959,314.039a10.173,10.173,0,0,0-.317-13.593L176.559,179.38a10.547,10.547,0,0,0,3.879,2.878ZM55.419,584.128l118.3,40.952a13.612,13.612,0,0,0-.228,2.166A12.315,12.315,0,0,0,185.8,639.557c.171,0,.343-.057.512-.057,7.239,52.011,17.5,124.029,22.6,152.784a10.391,10.391,0,0,0-3.249.912L53.019,587.376a10.457,10.457,0,0,0,2.394-3.249Zm165,218.58,165.893-50.152a12.35,12.35,0,0,0,11.342,7.495,12.013,12.013,0,0,0,5.158-1.168l62.157,128.132a10.506,10.506,0,0,0-3.931,4.333l-241.1-85.727A9.863,9.863,0,0,0,220.422,802.709ZM470.36,885.442a10.747,10.747,0,0,0-3.478.635L404.668,757.8a12.2,12.2,0,0,0,4.9-7.182l204.795,34.257c-.029.317-.086.635-.086.969A12.247,12.247,0,0,0,615.99,792L478.2,889.042a10.4,10.4,0,0,0-7.836-3.594Zm417.286-537.66,8.264,63.013c-.371.114-.741.2-1.111.343L820.674,213.613l62.5,120.837a7.485,7.485,0,0,0,4.474,13.338ZM725.856,120.928a6.264,6.264,0,0,0,3.79-1.282L792.4,178.839,645.714,60.425l74.44,51.526a6.468,6.468,0,0,0-.6,2.68,6.283,6.283,0,0,0,6.3,6.3Zm-266.3-93.79A7.5,7.5,0,0,0,473.7,26.111L605.76,42.1l-204.4,1.428c-.029-.171-.029-.343-.057-.541ZM381.414,48.4a7.315,7.315,0,0,0,.317.684L191.189,164.873a10.7,10.7,0,0,0-3.649-2.051c5.553-20.235,12.6-44.858,16.871-58.11a10.087,10.087,0,0,0,2.651.371,10.374,10.374,0,0,0,10.374-10.374,11.2,11.2,0,0,0-.171-1.682Zm-179,55.573c-5.017,15.361-13.081,44.288-16.957,58.424-.343-.029-.684-.114-1.026-.114a10.3,10.3,0,0,0-9.062,15.332L58.662,292.494,201.7,103.538a5.888,5.888,0,0,0,.712.433Zm-81.849,613.56h-.114L53.674,591.85,203.836,794.337c-.114.086-.2.171-.317.257L128,726.252a8.114,8.114,0,0,0,.114-1.2,7.56,7.56,0,0,0-7.552-7.525Zm190.83,145.346a7.51,7.51,0,0,0-6.327,3.449l-85.413-58.543,239.961,85.332-140.9-21.147a7.143,7.143,0,0,0,.171-1.567,7.474,7.474,0,0,0-7.492-7.524Zm236.059,9.005a7.568,7.568,0,0,0-4.442-1.482A7.49,7.49,0,0,0,536,875.3l-56,16.587a9.9,9.9,0,0,0-.57-1.084l137.822-97.041a12.259,12.259,0,0,0,20.719-3.078l80.8,26.419a11.028,11.028,0,0,0-.228,2.194,10.587,10.587,0,0,0,.2,1.9Zm186.756-61.445c-.057-.029-.143-.086-.2-.114L808.22,643.8a12.181,12.181,0,0,0,16.445-11.542,12.87,12.87,0,0,0-.343-2.764L878.3,613.509a10.608,10.608,0,0,0,2.508,3.59Z" transform="translate(-28.143 -16.635)"/>
</svg>
