<svg xmlns="http://www.w3.org/2000/svg" x="0" y="0" viewBox="0 0 100 100" xml:space="preserve"><path d="M84 85.8h-7.9V74.5c0-6.6-4.2-12.8-11.3-16.6-3.2-1.7-5-4.3-5-7.1v-1.7c0-2.8 1.9-5.4 5.1-7.1 7.1-3.8 11.3-9.9 11.3-16.6V14.2H84c1 0 1.8-.8 1.8-1.8s-.8-1.6-1.8-1.6H16c-1 0-1.8.8-1.8 1.8s.8 1.8 1.8 1.8h7.9v11.2c0 6.6 4.2 12.8 11.3 16.6 3.2 1.7 5.1 4.3 5.1 7.1V51c0 2.8-1.9 5.4-5.1 7.1-7.1 3.8-11.3 9.9-11.3 16.6v11.2H16c-1 0-1.8.8-1.8 1.8s.8 1.8 1.8 1.8h68c1 0 1.8-.8 1.8-1.8s-.8-1.9-1.8-1.9zM27.3 74.5c0-5.3 3.5-10.3 9.4-13.5 4.3-2.3 6.9-6.1 6.9-10.2v-1.7c0-4.1-2.6-7.9-6.9-10.2-5.9-3.1-9.4-8.2-9.4-13.5V14.3h45.4v11.2c0 5.3-3.5 10.3-9.4 13.5-4.3 2.3-6.9 6.1-6.9 10.2v1.7c0 4.1 2.6 7.9 6.9 10.2 5.9 3.1 9.4 8.2 9.4 13.5v11.2H27.3V74.5z" fill="#666"/><circle cx="50" cy="50" r="17.5" fill="#fff" stroke="#333" stroke-width="3.5" stroke-linecap="round" stroke-miterlimit="10"/><path fill="none" stroke="#333" stroke-width="3.5" stroke-linecap="round" stroke-miterlimit="10" d="M50 39.3V50"/><path fill="none" stroke="#333" stroke-width="3.5" stroke-linecap="round" stroke-miterlimit="10" d="M57 54.1L50 50"/><metadata xmlns:d="https://loading.io/stock/"><d:name>wait</d:name><d:tags>wait,spinner,hourglass,loader,preloader,ajax spinner,waiting icon,loading icon,loading gif</d:tags><d:license>by</d:license><d:slug>581mbr</d:slug></metadata></svg>
